STARTFONT 2.1
COMMENT
COMMENT Converted from OpenType font "Q:\font stuff\winfont\CollegiateBlackFLF.otf" by "otf2bdf 3.0".
COMMENT
FONT -FreeType-CollegiateBlackFLF-Medium-R-Normal--169-1700-72-72-P-988-ISO10646-1
SIZE 170 72 72
FONTBOUNDINGBOX 223 169 0 -26
STARTPROPERTIES 19
FOUNDRY "FreeType"
FAMILY_NAME "CollegiateBlackFLF"
WEIGHT_NAME "Medium"
SLANT "R"
SETWIDTH_NAME "Normal"
ADD_STYLE_NAME ""
PIXEL_SIZE 169
POINT_SIZE 1700
RESOLUTION_X 72
RESOLUTION_Y 72
SPACING "P"
AVERAGE_WIDTH 988
CHARSET_REGISTRY "ISO10646"
CHARSET_ENCODING "1"
FONT_ASCENT 141
FONT_DESCENT 25
COPYRIGHT "CollegeFLF Black 4.1 Copyright Casady & Greene, Inc. 1988-92 All rights reserved."
_OTF_FONTFILE "Q:\font stuff\winfont\CollegiateBlackFLF.otf"
_OTF_PSNAME "CollegiateBlackFLF"
ENDPROPERTIES
CHARS 81
STARTCHAR 0020
ENCODING 32
SWIDTH 288 0
DWIDTH 49 0
BBX 0 0 0 0
BITMAP
ENDCHAR
STARTCHAR 0021
ENCODING 33
SWIDTH 288 0
DWIDTH 49 0
BBX 39 141 0 0
BITMAP
FFFFFFFFFE
FFFFFFFFFE
FFFFFFFFFE
FFFFFFFFFE
FFFFFFFFFE
FFFFFFFFFE
FFFFFFFFFE
FFFFFFFFFE
FFFFFFFFFE
FFFFFFFFFE
FFFFFFFFFE
FFFFFFFFFE
FFFFFFFFFE
FFFFFFFFFE
FFFFFFFFFE
FFFFFFFFFE
FFFFFFFFFE
FFFFFFFFFE
FFFFFFFFFE
FFFFFFFFFE
FFFFFFFFFE
FFFFFFFFFE
FFFFFFFFFE
FFFFFFFFFE
FFFFFFFFFE
FFFFFFFFFE
FFFFFFFFFE
FFFFFFFFFE
FFFFFFFFFE
FFFFFFFFFE
FFFFFFFFFE
FFFFFFFFFE
FFFFFFFFFE
FFFFFFFFFE
FFFFFFFFFE
FFFFFFFFFE
FFFFFFFFFE
FFFFFFFFFE
FFFFFFFFFE
FFFFFFFFFE
FFFFFFFFFE
FFFFFFFFFE
FFFFFFFFFE
FFFFFFFFFE
FFFFFFFFFE
FFFFFFFFFE
FFFFFFFFFE
FFFFFFFFFE
FFFFFFFFFE
FFFFFFFFFE
FFFFFFFFFE
FFFFFFFFFE
FFFFFFFFFE
FFFFFFFFFE
FFFFFFFFFE
FFFFFFFFFE
FFFFFFFFFE
FFFFFFFFFE
FFFFFFFFFE
FFFFFFFFFE
FFFFFFFFFE
FFFFFFFFFE
FFFFFFFFFE
FFFFFFFFFE
FFFFFFFFFE
FFFFFFFFFE
FFFFFFFFFE
FFFFFFFFFE
FFFFFFFFFE
FFFFFFFFFE
FFFFFFFFFE
FFFFFFFFFE
FFFFFFFFFE
FFFFFFFFFE
FFFFFFFFFE
FFFFFFFFFE
FFFFFFFFFE
FFFFFFFFFE
FFFFFFFFFE
FFFFFFFFFE
FFFFFFFFFE
FFFFFFFFFE
FFFFFFFFFE
FFFFFFFFFE
FFFFFFFFFE
FFFFFFFFFE
FFFFFFFFFE
FFFFFFFFFE
FFFFFFFFFE
FFFFFFFFFE
FFFFFFFFFE
FFFFFFFFFE
FFFFFFFFFE
FFFFFFFFFE
FFFFFFFFFE
FFFFFFFFFE
FFFFFFFFFE
FFFFFFFFFE
FFFFFFFFFE
0000000000
0000000000
0000000000
0000000000
0000000000
0000000000
0000000000
0000000000
0000000000
0000000000
FFFFFFFFFE
FFFFFFFFFE
FFFFFFFFFE
FFFFFFFFFE
FFFFFFFFFE
FFFFFFFFFE
FFFFFFFFFE
FFFFFFFFFE
FFFFFFFFFE
FFFFFFFFFE
FFFFFFFFFE
FFFFFFFFFE
FFFFFFFFFE
FFFFFFFFFE
FFFFFFFFFE
FFFFFFFFFE
FFFFFFFFFE
FFFFFFFFFE
FFFFFFFFFE
FFFFFFFFFE
FFFFFFFFFE
FFFFFFFFFE
FFFFFFFFFE
FFFFFFFFFE
FFFFFFFFFE
FFFFFFFFFE
FFFFFFFFFE
FFFFFFFFFE
FFFFFFFFFE
FFFFFFFFFE
FFFFFFFFFE
FFFFFFFFFE
ENDCHAR
STARTCHAR 0022
ENCODING 34
SWIDTH 358 0
DWIDTH 61 0
BBX 54 41 0 101
BITMAP
FFFFFE01FFFFFC
FFFFFE01FFFFFC
FFFFFE01FFFFFC
FFFFFE01FFFFFC
FFFFFE01FFFFFC
FFFFFE01FFFFFC
FFFFFE01FFFFFC
FFFFFE01FFFFFC
FFFFFE01FFFFFC
FFFFFE01FFFFFC
FFFFFE01FFFFFC
FFFFFE01FFFFFC
FFFFFE01FFFFFC
FFFFFE01FFFFFC
FFFFFE01FFFFFC
FFFFFE01FFFFFC
FFFFFE01FFFFFC
FFFFFE01FFFFFC
FFFFFE01FFFFFC
FFFFFE01FFFFFC
FFFFFE01FFFFFC
FFFFFE01FFFFFC
FFFFFE01FFFFFC
FFFFFE01FFFFFC
FFFFFE01FFFFFC
FFFFFE01FFFFFC
FFFFFE01FFFFFC
FFFFFE01FFFFFC
FFFFFE01FFFFFC
FFFFFE01FFFFFC
FFFFFE01FFFFFC
FFFFFE01FFFFFC
FFFFFE01FFFFFC
FFFFFE01FFFFFC
FFFFFE01FFFFFC
FFFFFE01FFFFFC
FFFFFE01FFFFFC
FFFFFE01FFFFFC
FFFFFE01FFFFFC
FFFFFE01FFFFFC
FFFFFE01FFFFFC
ENDCHAR
STARTCHAR 0023
ENCODING 35
SWIDTH 811 0
DWIDTH 138 0
BBX 129 107 0 34
BITMAP
0000003FFFFFFFC000FFFFFFFE00000000
0000003FFFFFFFC000FFFFFFFE00000000
0000003FFFFFFFC000FFFFFFFE00000000
0000003FFFFFFFC000FFFFFFFE00000000
0000003FFFFFFFC000FFFFFFFE00000000
0000003FFFFFFFC000FFFFFFFE00000000
0000003FFFFFFFC000FFFFFFFE00000000
0000003FFFFFFFC000FFFFFFFE00000000
0000003FFFFFFFC000FFFFFFFE00000000
0000003FFFFFFFC000FFFFFFFE00000000
0000003FFFFFFFC000FFFFFFFE00000000
0000003FFFFFFFC000FFFFFFFE00000000
0000003FFFFFFFC000FFFFFFFE00000000
0000003FFFFFFFC000FFFFFFFE00000000
0000003FFFFFFFC000FFFFFFFE00000000
0000003FFFFFFFC000FFFFFFFE00000000
0000003FFFFFFFC000FFFFFFFE00000000
0000003FFFFFFFC000FFFFFFFE00000000
0000003FFFFFFFC000FFFFFFFE00000000
FFFFFFFFFFFFFFFFFFFFFFFFFFFFFFFF80
FFFFFFFFFFFFFFFFFFFFFFFFFFFFFFFF80
FFFFFFFFFFFFFFFFFFFFFFFFFFFFFFFF80
FFFFFFFFFFFFFFFFFFFFFFFFFFFFFFFF80
FFFFFFFFFFFFFFFFFFFFFFFFFFFFFFFF80
FFFFFFFFFFFFFFFFFFFFFFFFFFFFFFFF80
FFFFFFFFFFFFFFFFFFFFFFFFFFFFFFFF80
FFFFFFFFFFFFFFFFFFFFFFFFFFFFFFFF80
FFFFFFFFFFFFFFFFFFFFFFFFFFFFFFFF80
FFFFFFFFFFFFFFFFFFFFFFFFFFFFFFFF80
FFFFFFFFFFFFFFFFFFFFFFFFFFFFFFFF80
FFFFFFFFFFFFFFFFFFFFFFFFFFFFFFFF80
FFFFFFFFFFFFFFFFFFFFFFFFFFFFFFFF80
FFFFFFFFFFFFFFFFFFFFFFFFFFFFFFFF80
FFFFFFFFFFFFFFFFFFFFFFFFFFFFFFFF80
FFFFFFFFFFFFFFFFFFFFFFFFFFFFFFFF80
FFFFFFFFFFFFFFFFFFFFFFFFFFFFFFFF80
FFFFFFFFFFFFFFFFFFFFFFFFFFFFFFFF80
FFFFFFFFFFFFFFFFFFFFFFFFFFFFFFFF80
FFFFFFFFFFFFFFFFFFFFFFFFFFFFFFFF80
FFFFFFFFFFFFFFFFFFFFFFFFFFFFFFFF80
FFFFFFFFFFFFFFFFFFFFFFFFFFFFFFFF80
FFFFFFFFFFFFFFFFFFFFFFFFFFFFFFFF80
FFFFFFFFFFFFFFFFFFFFFFFFFFFFFFFF80
FFFFFFFFFFFFFFFFFFFFFFFFFFFFFFFF80
0000003FFFFFFFC000FFFFFFFE00000000
0000003FFFFFFFC000FFFFFFFE00000000
0000003FFFFFFFC000FFFFFFFE00000000
0000003FFFFFFFC000FFFFFFFE00000000
0000003FFFFFFFC000FFFFFFFE00000000
0000003FFFFFFFC000FFFFFFFE00000000
0000003FFFFFFFC000FFFFFFFE00000000
0000003FFFFFFFC000FFFFFFFE00000000
0000003FFFFFFFC000FFFFFFFE00000000
0000003FFFFFFFC000FFFFFFFE00000000
0000003FFFFFFFC000FFFFFFFE00000000
0000003FFFFFFFC000FFFFFFFE00000000
0000003FFFFFFFC000FFFFFFFE00000000
0000003FFFFFFFC000FFFFFFFE00000000
0000003FFFFFFFC000FFFFFFFE00000000
0000003FFFFFFFC000FFFFFFFE00000000
0000003FFFFFFFC000FFFFFFFE00000000
FFFFFFFFFFFFFFFFFFFFFFFFFFFFFFFF80
FFFFFFFFFFFFFFFFFFFFFFFFFFFFFFFF80
FFFFFFFFFFFFFFFFFFFFFFFFFFFFFFFF80
FFFFFFFFFFFFFFFFFFFFFFFFFFFFFFFF80
FFFFFFFFFFFFFFFFFFFFFFFFFFFFFFFF80
FFFFFFFFFFFFFFFFFFFFFFFFFFFFFFFF80
FFFFFFFFFFFFFFFFFFFFFFFFFFFFFFFF80
FFFFFFFFFFFFFFFFFFFFFFFFFFFFFFFF80
FFFFFFFFFFFFFFFFFFFFFFFFFFFFFFFF80
FFFFFFFFFFFFFFFFFFFFFFFFFFFFFFFF80
FFFFFFFFFFFFFFFFFFFFFFFFFFFFFFFF80
FFFFFFFFFFFFFFFFFFFFFFFFFFFFFFFF80
FFFFFFFFFFFFFFFFFFFFFFFFFFFFFFFF80
FFFFFFFFFFFFFFFFFFFFFFFFFFFFFFFF80
FFFFFFFFFFFFFFFFFFFFFFFFFFFFFFFF80
FFFFFFFFFFFFFFFFFFFFFFFFFFFFFFFF80
FFFFFFFFFFFFFFFFFFFFFFFFFFFFFFFF80
FFFFFFFFFFFFFFFFFFFFFFFFFFFFFFFF80
FFFFFFFFFFFFFFFFFFFFFFFFFFFFFFFF80
FFFFFFFFFFFFFFFFFFFFFFFFFFFFFFFF80
FFFFFFFFFFFFFFFFFFFFFFFFFFFFFFFF80
FFFFFFFFFFFFFFFFFFFFFFFFFFFFFFFF80
FFFFFFFFFFFFFFFFFFFFFFFFFFFFFFFF80
FFFFFFFFFFFFFFFFFFFFFFFFFFFFFFFF80
FFFFFFFFFFFFFFFFFFFFFFFFFFFFFFFF80
FFFFFFFFFFFFFFFFFFFFFFFFFFFFFFFF80
0000003FFFFFFFC000FFFFFFFE00000000
0000003FFFFFFFC000FFFFFFFE00000000
0000003FFFFFFFC000FFFFFFFE00000000
0000003FFFFFFFC000FFFFFFFE00000000
0000003FFFFFFFC000FFFFFFFE00000000
0000003FFFFFFFC000FFFFFFFE00000000
0000003FFFFFFFC000FFFFFFFE00000000
0000003FFFFFFFC000FFFFFFFE00000000
0000003FFFFFFFC000FFFFFFFE00000000
0000003FFFFFFFC000FFFFFFFE00000000
0000003FFFFFFFC000FFFFFFFE00000000
0000003FFFFFFFC000FFFFFFFE00000000
0000003FFFFFFFC000FFFFFFFE00000000
0000003FFFFFFFC000FFFFFFFE00000000
0000003FFFFFFFC000FFFFFFFE00000000
0000003FFFFFFFC000FFFFFFFE00000000
0000003FFFFFFFC000FFFFFFFE00000000
0000003FFFFFFFC000FFFFFFFE00000000
0000003FFFFFFFC000FFFFFFFE00000000
0000003FFFFFFFC000FFFFFFFE00000000
ENDCHAR
STARTCHAR 0024
ENCODING 36
SWIDTH 694 0
DWIDTH 118 0
BBX 108 142 0 0
BITMAP
000000003FFFF07FFFE000000000
000000003FFFF07FFFE000000000
000000003FFFF07FFFE000000000
000000003FFFF07FFFE000000000
000000003FFFF07FFFE000000000
000000003FFFF07FFFE000000000
000000003FFFF07FFFE000000000
000000003FFFF07FFFE000000000
000000003FFFF07FFFE000000000
000003FFFFFFFFFFFFFFFC000000
000007FFFFFFFFFFFFFFFE000000
00000FFFFFFFFFFFFFFFFF000000
00001FFFFFFFFFFFFFFFFF800000
00003FFFFFFFFFFFFFFFFFC00000
00007FFFFFFFFFFFFFFFFFE00000
0000FFFFFFFFFFFFFFFFFFF00000
0001FFFFFFFFFFFFFFFFFFF80000
0003FFFFFFFFFFFFFFFFFFFC0000
0007FFFFFFFFFFFFFFFFFFFE0000
000FFFFFFFFFFFFFFFFFFFFF0000
001FFFFFFFFFFFFFFFFFFFFF8000
003FFFFFFFFFFFFFFFFFFFFFC000
007FFFFFFFFFFFFFFFFFFFFFE000
00FFFFFFFFFFFFFFFFFFFFFFF000
01FFFFFFFFFFFFFFFFFFFFFFF800
03FFFFFFFFFFFFFFFFFFFFFFFC00
07FFFFFFFFFFFFFFFFFFFFFFFC00
0FFFFFFFFFFFFFFFFFFFFFFFFE00
1FFFFFFFFFFFFFFFFFFFFFFFFF00
3FFFFFFFFFFFFFFFFFFFFFFFFF80
7FFFFFFFFFFFFFFFFFFFFFFFFFC0
FFFFFFFFFFFFFFFFFFFFFFFFFFE0
FFFFFFFFFFFFFFFFFFFFFFFFFFF0
FFFFFFFFFFFFFFFFFFFFFFFFFFF0
FFFFFFFFFFFFFFFFFFFFFFFFFFF0
FFFFFFFFFFE000007FFFFFFFFFF0
FFFFFFFFFFC000003FFFFFFFFFF0
FFFFFFFFFF8000001FFFFFFFFFF0
FFFFFFFFFF0000000FFFFFFFFFF0
FFFFFFFFFE00000007FFFFFFFFF0
FFFFFFFFFE00000007FFFFFFFFF0
FFFFFFFFFE00000007FFFFFFFFF0
FFFFFFFFFE00000007FFFFFFFFF0
FFFFFFFFFE00000007FFFFFFFFF0
FFFFFFFFFE00000007FFFFFFFFF0
FFFFFFFFFE00000007FFFFFFFFF0
FFFFFFFFFE00000007FFFFFFFFF0
FFFFFFFFFE00000007FFFFFFFFF0
FFFFFFFFFE00000007FFFFFFFFF0
FFFFFFFFFE00000007FFFFFFFFF0
FFFFFFFFFE00000007FFFFFFFFF0
FFFFFFFFFE00000007FFFFFFFFF0
FFFFFFFFFE00000007FFFFFFFFF0
FFFFFFFFFE00000007FFFFFFFFF0
FFFFFFFFFF000000000000000000
FFFFFFFFFF800000000000000000
FFFFFFFFFFC00000000000000000
FFFFFFFFFFE00000000000000000
FFFFFFFFFFF00000000000000000
FFFFFFFFFFFFFFFFFFFFFC000000
FFFFFFFFFFFFFFFFFFFFFE000000
FFFFFFFFFFFFFFFFFFFFFF000000
7FFFFFFFFFFFFFFFFFFFFF800000
3FFFFFFFFFFFFFFFFFFFFFC00000
1FFFFFFFFFFFFFFFFFFFFFE00000
0FFFFFFFFFFFFFFFFFFFFFF00000
07FFFFFFFFFFFFFFFFFFFFF80000
03FFFFFFFFFFFFFFFFFFFFFC0000
01FFFFFFFFFFFFFFFFFFFFFE0000
00FFFFFFFFFFFFFFFFFFFFFF0000
007FFFFFFFFFFFFFFFFFFFFF8000
003FFFFFFFFFFFFFFFFFFFFFC000
001FFFFFFFFFFFFFFFFFFFFFE000
000FFFFFFFFFFFFFFFFFFFFFF000
0007FFFFFFFFFFFFFFFFFFFFF800
0003FFFFFFFFFFFFFFFFFFFFFC00
0001FFFFFFFFFFFFFFFFFFFFFE00
0000FFFFFFFFFFFFFFFFFFFFFF00
00007FFFFFFFFFFFFFFFFFFFFF80
00003FFFFFFFFFFFFFFFFFFFFFC0
00001FFFFFFFFFFFFFFFFFFFFFE0
00000FFFFFFFFFFFFFFFFFFFFFF0
000007FFFFFFFFFFFFFFFFFFFFF0
000003FFFFFFFFFFFFFFFFFFFFF0
00000000000000007FFFFFFFFFF0
00000000000000007FFFFFFFFFF0
00000000000000003FFFFFFFFFF0
00000000000000001FFFFFFFFFF0
00000000000000000FFFFFFFFFF0
FFFFFFFFFE00000007FFFFFFFFF0
FFFFFFFFFE00000007FFFFFFFFF0
FFFFFFFFFE00000007FFFFFFFFF0
FFFFFFFFFE00000007FFFFFFFFF0
FFFFFFFFFE00000007FFFFFFFFF0
FFFFFFFFFE00000007FFFFFFFFF0
FFFFFFFFFE00000007FFFFFFFFF0
FFFFFFFFFE00000007FFFFFFFFF0
FFFFFFFFFE00000007FFFFFFFFF0
FFFFFFFFFE00000007FFFFFFFFF0
FFFFFFFFFE00000007FFFFFFFFF0
FFFFFFFFFE00000007FFFFFFFFF0
FFFFFFFFFE00000007FFFFFFFFF0
FFFFFFFFFE00000007FFFFFFFFF0
FFFFFFFFFF0000000FFFFFFFFFF0
FFFFFFFFFF8000001FFFFFFFFFF0
FFFFFFFFFFC000003FFFFFFFFFF0
FFFFFFFFFFE000007FFFFFFFFFF0
FFFFFFFFFFFFFFFFFFFFFFFFFFF0
FFFFFFFFFFFFFFFFFFFFFFFFFFF0
FFFFFFFFFFFFFFFFFFFFFFFFFFF0
FFFFFFFFFFFFFFFFFFFFFFFFFFE0
7FFFFFFFFFFFFFFFFFFFFFFFFFC0
3FFFFFFFFFFFFFFFFFFFFFFFFF80
1FFFFFFFFFFFFFFFFFFFFFFFFF00
0FFFFFFFFFFFFFFFFFFFFFFFFE00
07FFFFFFFFFFFFFFFFFFFFFFFC00
03FFFFFFFFFFFFFFFFFFFFFFF800
01FFFFFFFFFFFFFFFFFFFFFFF000
00FFFFFFFFFFFFFFFFFFFFFFE000
007FFFFFFFFFFFFFFFFFFFFFC000
003FFFFFFFFFFFFFFFFFFFFF8000
001FFFFFFFFFFFFFFFFFFFFF0000
000FFFFFFFFFFFFFFFFFFFFE0000
0007FFFFFFFFFFFFFFFFFFFC0000
0003FFFFFFFFFFFFFFFFFFF80000
0001FFFFFFFFFFFFFFFFFFF80000
0000FFFFFFFFFFFFFFFFFFF00000
00007FFFFFFFFFFFFFFFFFE00000
00003FFFFFFFFFFFFFFFFFC00000
00001FFFFFFFFFFFFFFFFF800000
00000FFFFFFFFFFFFFFFFF000000
000007FFFFFFFFFFFFFFFE000000
000003FFFFFFFFFFFFFFFC000000
000000003FFFF07FFFE000000000
000000003FFFF07FFFE000000000
000000003FFFF07FFFE000000000
000000003FFFF07FFFE000000000
000000003FFFF07FFFE000000000
000000003FFFF07FFFE000000000
000000003FFFF07FFFE000000000
000000003FFFF07FFFE000000000
000000003FFFF07FFFE000000000
ENDCHAR
STARTCHAR 0026
ENCODING 38
SWIDTH 694 0
DWIDTH 118 0
BBX 108 143 0 0
BITMAP
0000000003FFFFFFFC0000000000
0000000003FFFFFFFC0000000000
0000000003FFFFFFFC0000000000
0000000003FFFFFFFC0000000000
0000000003FFFFFFFC0000000000
0000000003FFFFFFFC0000000000
0000000003FFFFFFFC0000000000
0000000003FFFFFFFC0000000000
0000000003FFFFFFFC0000000000
000001FFFFFFFFFFFFFFF8000000
000003FFFFFFFFFFFFFFFC000000
000007FFFFFFFFFFFFFFFE000000
00000FFFFFFFFFFFFFFFFF000000
00001FFFFFFFFFFFFFFFFF800000
00003FFFFFFFFFFFFFFFFFC00000
00007FFFFFFFFFFFFFFFFFE00000
0000FFFFFFFFFFFFFFFFFFF00000
0001FFFFFFFFFFFFFFFFFFF80000
0003FFFFFFFFFFFFFFFFFFFC0000
0007FFFFFFFFFFFFFFFFFFFE0000
000FFFFFFFFFFFFFFFFFFFFF0000
001FFFFFFFFFFFFFFFFFFFFF8000
003FFFFFFFFFFFFFFFFFFFFFC000
007FFFFFFFFFFFFFFFFFFFFFE000
00FFFFFFFFFFFFFFFFFFFFFFF000
01FFFFFFFFFFFFFFFFFFFFFFF800
03FFFFFFFFFFFFFFFFFFFFFFFC00
07FFFFFFFFFFFFFFFFFFFFFFFE00
0FFFFFFFFFFFFFFFFFFFFFFFFF00
1FFFFFFFFFFFFFFFFFFFFFFFFF80
3FFFFFFFFFFFFFFFFFFFFFFFFFC0
7FFFFFFFFFFFFFFFFFFFFFFFFFE0
FFFFFFFFFFFFFFFFFFFFFFFFFFF0
FFFFFFFFFFFFFFFFFFFFFFFFFFF0
FFFFFFFFFFFFFFFFFFFFFFFFFFF0
FFFFFFFFFFFFFFFFFFFFFFFFFFF0
FFFFFFFFFFFFFFFFFFFFFFFFFFF0
FFFFFFFFFFFFFFFFFFFFFFFFFFF0
FFFFFFFFFFFFFFFFFFFFFFFFFFF0
FFFFFFFFFFFFFFFFFFFFFFFFFFF0
FFFFFFFFFFFFFFFFFFFFFFFFFFF0
FFFFFFFFFFE00000FFFFFFFFFFF0
FFFFFFFFFFC000007FFFFFFFFFF0
FFFFFFFFFF8000003FFFFFFFFFF0
FFFFFFFFFF0000001FFFFFFFFFF0
FFFFFFFFFE0000000FFFFFFFFFF0
FFFFFFFFFE00000007FFFFFFFFF0
FFFFFFFFFE00000007FFFFFFFFF0
FFFFFFFFFE00000007FFFFFFFFF0
FFFFFFFFFE00000007FFFFFFFFF0
FFFFFFFFFE00000007FFFFFFFFF0
FFFFFFFFFE00000007FFFFFFFFF0
FFFFFFFFFE00000007FFFFFFFFF0
FFFFFFFFFF00000007FFFFFFFFF0
FFFFFFFFFF80000007FFFFFFFFF0
FFFFFFFFFFC0000007FFFFFFFFF0
FFFFFFFFFFE00000000000000000
FFFFFFFFFFFFFFF8000000000000
FFFFFFFFFFFFFFF8000000000000
FFFFFFFFFFFFFFF8000000000000
FFFFFFFFFFFFFFF8000000000000
FFFFFFFFFFFFFFF8000000000000
FFFFFFFFFFFFFFF8000000000000
FFFFFFFFFFFFFFF8000000000000
FFFFFFFFFFFFFFF8000000000000
FFFFFFFFFFFFFFF8000000000000
7FFFFFFFFFFFFFF8000000000000
3FFFFFFFFFFFFFF8000000000000
1FFFFFFFFFFFFFF8000000000000
0FFFFFFFFFFFFFF8000000000000
07FFFFFFFFFFFFF8000000000000
03FFFFFFFFFFFFF8000000000000
07FFFFFFFFFFFFF8000000000000
0FFFFFFFFFFFFFF8000000000000
1FFFFFFFFFFFFFF8000000000000
3FFFFFFFFFFFFFF8000000000000
7FFFFFFFFFFFFFF8000000000000
FFFFFFFFFFFFFFF8000000000000
FFFFFFFFFFFFFFF8000000000000
FFFFFFFFFFFFFFF8000000000000
FFFFFFFFFFFFFFF8000000000000
FFFFFFFFFFFFFFF8000000000000
FFFFFFFFFFFFFFF8000000000000
FFFFFFFFFFFFFFF8000000000000
FFFFFFFFFFFFFFF8000000000000
FFFFFFFFFFFFFFF8000000000000
FFFFFFFFFFE00000000000000000
FFFFFFFFFFC00000000000000000
FFFFFFFFFF800000000000000000
FFFFFFFFFF000000000000000000
FFFFFFFFFE00000007FFFFFFFFF0
FFFFFFFFFE00000007FFFFFFFFF0
FFFFFFFFFE00000007FFFFFFFFF0
FFFFFFFFFE00000007FFFFFFFFF0
FFFFFFFFFE00000007FFFFFFFFF0
FFFFFFFFFE00000007FFFFFFFFF0
FFFFFFFFFE00000007FFFFFFFFF0
FFFFFFFFFE00000007FFFFFFFFF0
FFFFFFFFFF0000000FFFFFFFFFF0
FFFFFFFFFF8000001FFFFFFFFFF0
FFFFFFFFFFC000003FFFFFFFFFF0
FFFFFFFFFFE000007FFFFFFFFFF0
FFFFFFFFFFFFFFFFFFFFFFFFFFF0
FFFFFFFFFFFFFFFFFFFFFFFFFFF0
FFFFFFFFFFFFFFFFFFFFFFFFFFF0
FFFFFFFFFFFFFFFFFFFFFFFFFFF0
FFFFFFFFFFFFFFFFFFFFFFFFFFF0
FFFFFFFFFFFFFFFFFFFFFFFFFFF0
FFFFFFFFFFFFFFFFFFFFFFFFFFF0
FFFFFFFFFFFFFFFFFFFFFFFFFFF0
FFFFFFFFFFFFFFFFFFFFFFFFFFF0
FFFFFFFFFFFFFFFFFFFFFFFFFFE0
7FFFFFFFFFFFFFFFFFFFFFFFFFC0
3FFFFFFFFFFFFFFFFFFFFFFFFF80
1FFFFFFFFFFFFFFFFFFFFFFFFF00
0FFFFFFFFFFFFFFFFFFFFFFFFE00
07FFFFFFFFFFFFFFFFFFFFFFFC00
03FFFFFFFFFFFFFFFFFFFFFFF800
01FFFFFFFFFFFFFFFFFFFFFFF000
00FFFFFFFFFFFFFFFFFFFFFFE000
007FFFFFFFFFFFFFFFFFFFFFC000
003FFFFFFFFFFFFFFFFFFFFF8000
001FFFFFFFFFFFFFFFFFFFFF0000
000FFFFFFFFFFFFFFFFFFFFE0000
0007FFFFFFFFFFFFFFFFFFFC0000
0003FFFFFFFFFFFFFFFFFFF80000
0001FFFFFFFFFFFFFFFFFFF00000
0000FFFFFFFFFFFFFFFFFFE00000
00007FFFFFFFFFFFFFFFFFC00000
00003FFFFFFFFFFFFFFFFF800000
00001FFFFFFFFFFFFFFFFF000000
00000FFFFFFFFFFFFFFFFE000000
000007FFFFFFFFFFFFFFFE000000
000003FFFFFFFFFFFFFFFC000000
0000000003FFFFFFFC0000000000
0000000003FFFFFFFC0000000000
0000000003FFFFFFFC0000000000
0000000003FFFFFFFC0000000000
0000000003FFFFFFFC0000000000
0000000003FFFFFFFC0000000000
0000000003FFFFFFFC0000000000
0000000003FFFFFFFC0000000000
0000000003FFFFFFFC0000000000
ENDCHAR
STARTCHAR 0027
ENCODING 39
SWIDTH 176 0
DWIDTH 30 0
BBX 23 41 0 101
BITMAP
FFFFFE
FFFFFE
FFFFFE
FFFFFE
FFFFFE
FFFFFE
FFFFFE
FFFFFE
FFFFFE
FFFFFE
FFFFFE
FFFFFE
FFFFFE
FFFFFE
FFFFFE
FFFFFE
FFFFFE
FFFFFE
FFFFFE
FFFFFE
FFFFFE
FFFFFE
FFFFFE
FFFFFE
FFFFFE
FFFFFE
FFFFFE
FFFFFE
FFFFFE
FFFFFE
FFFFFE
FFFFFE
FFFFFE
FFFFFE
FFFFFE
FFFFFE
FFFFFE
FFFFFE
FFFFFE
FFFFFE
FFFFFE
ENDCHAR
STARTCHAR 002C
ENCODING 44
SWIDTH 288 0
DWIDTH 49 0
BBX 39 58 0 -25
BITMAP
FFFFFFFFFE
FFFFFFFFFE
FFFFFFFFFE
FFFFFFFFFE
FFFFFFFFFE
FFFFFFFFFE
FFFFFFFFFE
FFFFFFFFFE
FFFFFFFFFE
FFFFFFFFFE
FFFFFFFFFE
FFFFFFFFFE
FFFFFFFFFE
FFFFFFFFFE
FFFFFFFFFE
FFFFFFFFFE
FFFFFFFFFE
FFFFFFFFFE
FFFFFFFFFE
FFFFFFFFFE
FFFFFFFFFE
FFFFFFFFFE
FFFFFFFFFE
FFFFFFFFFE
FFFFFFFFFE
FFFFFFFFFE
FFFFFFFFFE
FFFFFFFFFE
FFFFFFFFFE
FFFFFFFFFE
FFFFFFFFFE
FFFFFFFFFE
0007FFFFFE
0007FFFFFC
0007FFFFF8
0007FFFFF0
0007FFFFE0
0007FFFFC0
0007FFFF80
0007FFFF00
0007FFFE00
0007FFFC00
0007FFF800
0007FFF000
0007FFE000
0007FFC000
0007FF8000
0007FF0000
0007FE0000
0007FC0000
0007F80000
0007F00000
0007E00000
0007C00000
0007800000
0007000000
0006000000
0004000000
ENDCHAR
STARTCHAR 002D
ENCODING 45
SWIDTH 394 0
DWIDTH 67 0
BBX 56 32 0 55
BITMAP
FFFFFFFFFFFFFF
FFFFFFFFFFFFFF
FFFFFFFFFFFFFF
FFFFFFFFFFFFFF
FFFFFFFFFFFFFF
FFFFFFFFFFFFFF
FFFFFFFFFFFFFF
FFFFFFFFFFFFFF
FFFFFFFFFFFFFF
FFFFFFFFFFFFFF
FFFFFFFFFFFFFF
FFFFFFFFFFFFFF
FFFFFFFFFFFFFF
FFFFFFFFFFFFFF
FFFFFFFFFFFFFF
FFFFFFFFFFFFFF
FFFFFFFFFFFFFF
FFFFFFFFFFFFFF
FFFFFFFFFFFFFF
FFFFFFFFFFFFFF
FFFFFFFFFFFFFF
FFFFFFFFFFFFFF
FFFFFFFFFFFFFF
FFFFFFFFFFFFFF
FFFFFFFFFFFFFF
FFFFFFFFFFFFFF
FFFFFFFFFFFFFF
FFFFFFFFFFFFFF
FFFFFFFFFFFFFF
FFFFFFFFFFFFFF
FFFFFFFFFFFFFF
FFFFFFFFFFFFFF
ENDCHAR
STARTCHAR 002E
ENCODING 46
SWIDTH 276 0
DWIDTH 47 0
BBX 36 36 0 1
BITMAP
FFFFFFFFF0
FFFFFFFFF0
FFFFFFFFF0
FFFFFFFFF0
FFFFFFFFF0
FFFFFFFFF0
FFFFFFFFF0
FFFFFFFFF0
FFFFFFFFF0
FFFFFFFFF0
FFFFFFFFF0
FFFFFFFFF0
FFFFFFFFF0
FFFFFFFFF0
FFFFFFFFF0
FFFFFFFFF0
FFFFFFFFF0
FFFFFFFFF0
FFFFFFFFF0
FFFFFFFFF0
FFFFFFFFF0
FFFFFFFFF0
FFFFFFFFF0
FFFFFFFFF0
FFFFFFFFF0
FFFFFFFFF0
FFFFFFFFF0
FFFFFFFFF0
FFFFFFFFF0
FFFFFFFFF0
FFFFFFFFF0
FFFFFFFFF0
FFFFFFFFF0
FFFFFFFFF0
FFFFFFFFF0
FFFFFFFFF0
ENDCHAR
STARTCHAR 002F
ENCODING 47
SWIDTH 664 0
DWIDTH 113 0
BBX 110 141 0 0
BITMAP
000000000000000001FFFFFFFFFC
000000000000000003FFFFFFFFF8
000000000000000003FFFFFFFFF8
000000000000000007FFFFFFFFF0
000000000000000007FFFFFFFFF0
00000000000000000FFFFFFFFFE0
00000000000000000FFFFFFFFFE0
00000000000000001FFFFFFFFFC0
00000000000000001FFFFFFFFFC0
00000000000000003FFFFFFFFF80
00000000000000003FFFFFFFFF80
00000000000000007FFFFFFFFF00
00000000000000007FFFFFFFFF00
0000000000000000FFFFFFFFFE00
0000000000000000FFFFFFFFFE00
0000000000000001FFFFFFFFFC00
0000000000000001FFFFFFFFFC00
0000000000000003FFFFFFFFF800
0000000000000003FFFFFFFFF800
0000000000000007FFFFFFFFF000
0000000000000007FFFFFFFFF000
000000000000000FFFFFFFFFE000
000000000000000FFFFFFFFFE000
000000000000001FFFFFFFFFC000
000000000000001FFFFFFFFF8000
000000000000003FFFFFFFFF8000
000000000000003FFFFFFFFF0000
000000000000007FFFFFFFFF0000
000000000000007FFFFFFFFE0000
00000000000000FFFFFFFFFE0000
00000000000000FFFFFFFFFC0000
00000000000001FFFFFFFFFC0000
00000000000001FFFFFFFFF80000
00000000000003FFFFFFFFF80000
00000000000003FFFFFFFFF00000
00000000000007FFFFFFFFF00000
00000000000007FFFFFFFFE00000
0000000000000FFFFFFFFFE00000
0000000000000FFFFFFFFFC00000
0000000000001FFFFFFFFFC00000
0000000000001FFFFFFFFF800000
0000000000003FFFFFFFFF800000
0000000000003FFFFFFFFF000000
0000000000007FFFFFFFFF000000
0000000000007FFFFFFFFE000000
000000000000FFFFFFFFFE000000
000000000000FFFFFFFFFC000000
000000000001FFFFFFFFFC000000
000000000001FFFFFFFFF8000000
000000000003FFFFFFFFF8000000
000000000003FFFFFFFFF0000000
000000000007FFFFFFFFF0000000
00000000000FFFFFFFFFE0000000
00000000000FFFFFFFFFE0000000
00000000001FFFFFFFFFC0000000
00000000001FFFFFFFFFC0000000
00000000003FFFFFFFFF80000000
00000000003FFFFFFFFF80000000
00000000007FFFFFFFFF00000000
00000000007FFFFFFFFF00000000
0000000000FFFFFFFFFE00000000
0000000000FFFFFFFFFE00000000
0000000001FFFFFFFFFC00000000
0000000001FFFFFFFFFC00000000
0000000003FFFFFFFFF800000000
0000000003FFFFFFFFF800000000
0000000007FFFFFFFFF000000000
0000000007FFFFFFFFF000000000
000000000FFFFFFFFFE000000000
000000000FFFFFFFFFE000000000
000000001FFFFFFFFFC000000000
000000001FFFFFFFFFC000000000
000000003FFFFFFFFF8000000000
000000003FFFFFFFFF8000000000
000000007FFFFFFFFF0000000000
000000007FFFFFFFFF0000000000
00000000FFFFFFFFFE0000000000
00000000FFFFFFFFFE0000000000
00000001FFFFFFFFFC0000000000
00000001FFFFFFFFFC0000000000
00000003FFFFFFFFF80000000000
00000003FFFFFFFFF80000000000
00000007FFFFFFFFF00000000000
00000007FFFFFFFFF00000000000
0000000FFFFFFFFFE00000000000
0000000FFFFFFFFFE00000000000
0000001FFFFFFFFFC00000000000
0000001FFFFFFFFFC00000000000
0000003FFFFFFFFF800000000000
0000003FFFFFFFFF800000000000
0000007FFFFFFFFF000000000000
0000007FFFFFFFFF000000000000
000000FFFFFFFFFE000000000000
000000FFFFFFFFFE000000000000
000001FFFFFFFFFC000000000000
000001FFFFFFFFFC000000000000
000003FFFFFFFFF8000000000000
000003FFFFFFFFF8000000000000
000007FFFFFFFFF0000000000000
000007FFFFFFFFF0000000000000
00000FFFFFFFFFE0000000000000
00000FFFFFFFFFE0000000000000
00001FFFFFFFFFC0000000000000
00001FFFFFFFFFC0000000000000
00003FFFFFFFFF80000000000000
00003FFFFFFFFF80000000000000
00007FFFFFFFFF00000000000000
00007FFFFFFFFF00000000000000
0000FFFFFFFFFE00000000000000
0000FFFFFFFFFE00000000000000
0001FFFFFFFFFC00000000000000
0001FFFFFFFFFC00000000000000
0003FFFFFFFFF800000000000000
0003FFFFFFFFF800000000000000
0007FFFFFFFFF000000000000000
0007FFFFFFFFF000000000000000
000FFFFFFFFFE000000000000000
000FFFFFFFFFE000000000000000
001FFFFFFFFFC000000000000000
001FFFFFFFFFC000000000000000
003FFFFFFFFF8000000000000000
003FFFFFFFFF8000000000000000
007FFFFFFFFF0000000000000000
007FFFFFFFFF0000000000000000
00FFFFFFFFFE0000000000000000
00FFFFFFFFFE0000000000000000
01FFFFFFFFFC0000000000000000
01FFFFFFFFFC0000000000000000
03FFFFFFFFF80000000000000000
03FFFFFFFFF80000000000000000
07FFFFFFFFF00000000000000000
07FFFFFFFFF00000000000000000
0FFFFFFFFFE00000000000000000
0FFFFFFFFFE00000000000000000
1FFFFFFFFFC00000000000000000
1FFFFFFFFFC00000000000000000
3FFFFFFFFF800000000000000000
3FFFFFFFFF800000000000000000
7FFFFFFFFF000000000000000000
7FFFFFFFFF000000000000000000
FFFFFFFFFE000000000000000000
ENDCHAR
STARTCHAR 0030
ENCODING 48
SWIDTH 700 0
DWIDTH 119 0
BBX 108 141 0 0
BITMAP
000003FFFFFFFFFFFFFFFC000000
000007FFFFFFFFFFFFFFFE000000
00000FFFFFFFFFFFFFFFFF000000
00001FFFFFFFFFFFFFFFFF800000
00003FFFFFFFFFFFFFFFFFC00000
00007FFFFFFFFFFFFFFFFFE00000
0000FFFFFFFFFFFFFFFFFFF00000
0001FFFFFFFFFFFFFFFFFFF80000
0003FFFFFFFFFFFFFFFFFFFC0000
0007FFFFFFFFFFFFFFFFFFFE0000
000FFFFFFFFFFFFFFFFFFFFF0000
001FFFFFFFFFFFFFFFFFFFFF8000
003FFFFFFFFFFFFFFFFFFFFFC000
007FFFFFFFFFFFFFFFFFFFFFE000
00FFFFFFFFFFFFFFFFFFFFFFF000
01FFFFFFFFFFFFFFFFFFFFFFF800
03FFFFFFFFFFFFFFFFFFFFFFFC00
07FFFFFFFFFFFFFFFFFFFFFFFE00
0FFFFFFFFFFFFFFFFFFFFFFFFF00
1FFFFFFFFFFFFFFFFFFFFFFFFF80
3FFFFFFFFFFFFFFFFFFFFFFFFFC0
7FFFFFFFFFFFFFFFFFFFFFFFFFE0
FFFFFFFFFFFFFFFFFFFFFFFFFFF0
FFFFFFFFFFFFFFFFFFFFFFFFFFF0
FFFFFFFFFFFFFFFFFFFFFFFFFFF0
FFFFFFFFFFFFFFFFFFFFFFFFFFF0
FFFFFFFFFFFFFFFFFFFFFFFFFFF0
FFFFFFFFFFFFFFFFFFFFFFFFFFF0
FFFFFFFFFFFFFFFFFFFFFFFFFFF0
FFFFFFFFFFFFFFFFFFFFFFFFFFF0
FFFFFFFFFFFFFFFFFFFFFFFFFFF0
FFFFFFFFFFFFFFFFFFFFFFFFFFF0
FFFFFFFFFFE000007FFFFFFFFFF0
FFFFFFFFFFC000003FFFFFFFFFF0
FFFFFFFFFF8000001FFFFFFFFFF0
FFFFFFFFFF0000000FFFFFFFFFF0
FFFFFFFFFE00000007FFFFFFFFF0
FFFFFFFFFE00000007FFFFFFFFF0
FFFFFFFFFE00000007FFFFFFFFF0
FFFFFFFFFE00000007FFFFFFFFF0
FFFFFFFFFE00000007FFFFFFFFF0
FFFFFFFFFE00000007FFFFFFFFF0
FFFFFFFFFE00000007FFFFFFFFF0
FFFFFFFFFE00000007FFFFFFFFF0
FFFFFFFFFE00000007FFFFFFFFF0
FFFFFFFFFE00000007FFFFFFFFF0
FFFFFFFFFE00000007FFFFFFFFF0
FFFFFFFFFE00000007FFFFFFFFF0
FFFFFFFFFE00000007FFFFFFFFF0
FFFFFFFFFE00000007FFFFFFFFF0
FFFFFFFFFE00000007FFFFFFFFF0
FFFFFFFFFE00000007FFFFFFFFF0
FFFFFFFFFE00000007FFFFFFFFF0
FFFFFFFFFE00000007FFFFFFFFF0
FFFFFFFFFE00000007FFFFFFFFF0
FFFFFFFFFE00000007FFFFFFFFF0
FFFFFFFFFE00000007FFFFFFFFF0
FFFFFFFFFE00000007FFFFFFFFF0
FFFFFFFFFE00000007FFFFFFFFF0
FFFFFFFFFE00000007FFFFFFFFF0
FFFFFFFFFE00000007FFFFFFFFF0
FFFFFFFFFE00000007FFFFFFFFF0
FFFFFFFFFE00000007FFFFFFFFF0
FFFFFFFFFE00000007FFFFFFFFF0
FFFFFFFFFE00000007FFFFFFFFF0
FFFFFFFFFE00000007FFFFFFFFF0
FFFFFFFFFE00000007FFFFFFFFF0
FFFFFFFFFE00000007FFFFFFFFF0
FFFFFFFFFE00000007FFFFFFFFF0
FFFFFFFFFE00000007FFFFFFFFF0
FFFFFFFFFE00000007FFFFFFFFF0
FFFFFFFFFE00000007FFFFFFFFF0
FFFFFFFFFE00000007FFFFFFFFF0
FFFFFFFFFE00000007FFFFFFFFF0
FFFFFFFFFE00000007FFFFFFFFF0
FFFFFFFFFE00000007FFFFFFFFF0
FFFFFFFFFE00000007FFFFFFFFF0
FFFFFFFFFE00000007FFFFFFFFF0
FFFFFFFFFE00000007FFFFFFFFF0
FFFFFFFFFE00000007FFFFFFFFF0
FFFFFFFFFE00000007FFFFFFFFF0
FFFFFFFFFE00000007FFFFFFFFF0
FFFFFFFFFE00000007FFFFFFFFF0
FFFFFFFFFE00000007FFFFFFFFF0
FFFFFFFFFE00000007FFFFFFFFF0
FFFFFFFFFE00000007FFFFFFFFF0
FFFFFFFFFE00000007FFFFFFFFF0
FFFFFFFFFE00000007FFFFFFFFF0
FFFFFFFFFE00000007FFFFFFFFF0
FFFFFFFFFE00000007FFFFFFFFF0
FFFFFFFFFE00000007FFFFFFFFF0
FFFFFFFFFE00000007FFFFFFFFF0
FFFFFFFFFE00000007FFFFFFFFF0
FFFFFFFFFE00000007FFFFFFFFF0
FFFFFFFFFE00000007FFFFFFFFF0
FFFFFFFFFE00000007FFFFFFFFF0
FFFFFFFFFE00000007FFFFFFFFF0
FFFFFFFFFE00000007FFFFFFFFF0
FFFFFFFFFE00000007FFFFFFFFF0
FFFFFFFFFE00000007FFFFFFFFF0
FFFFFFFFFE00000007FFFFFFFFF0
FFFFFFFFFE00000007FFFFFFFFF0
FFFFFFFFFE00000007FFFFFFFFF0
FFFFFFFFFE00000007FFFFFFFFF0
FFFFFFFFFE00000007FFFFFFFFF0
FFFFFFFFFF0000000FFFFFFFFFF0
FFFFFFFFFF8000001FFFFFFFFFF0
FFFFFFFFFFC000003FFFFFFFFFF0
FFFFFFFFFFE000007FFFFFFFFFF0
FFFFFFFFFFFFFFFFFFFFFFFFFFF0
FFFFFFFFFFFFFFFFFFFFFFFFFFF0
FFFFFFFFFFFFFFFFFFFFFFFFFFF0
FFFFFFFFFFFFFFFFFFFFFFFFFFF0
FFFFFFFFFFFFFFFFFFFFFFFFFFF0
FFFFFFFFFFFFFFFFFFFFFFFFFFF0
FFFFFFFFFFFFFFFFFFFFFFFFFFF0
FFFFFFFFFFFFFFFFFFFFFFFFFFF0
FFFFFFFFFFFFFFFFFFFFFFFFFFF0
FFFFFFFFFFFFFFFFFFFFFFFFFFF0
7FFFFFFFFFFFFFFFFFFFFFFFFFE0
3FFFFFFFFFFFFFFFFFFFFFFFFFC0
1FFFFFFFFFFFFFFFFFFFFFFFFF80
0FFFFFFFFFFFFFFFFFFFFFFFFF00
07FFFFFFFFFFFFFFFFFFFFFFFE00
03FFFFFFFFFFFFFFFFFFFFFFFC00
01FFFFFFFFFFFFFFFFFFFFFFF800
00FFFFFFFFFFFFFFFFFFFFFFF000
007FFFFFFFFFFFFFFFFFFFFFE000
003FFFFFFFFFFFFFFFFFFFFFC000
001FFFFFFFFFFFFFFFFFFFFF8000
000FFFFFFFFFFFFFFFFFFFFF0000
0007FFFFFFFFFFFFFFFFFFFE0000
0003FFFFFFFFFFFFFFFFFFFC0000
0001FFFFFFFFFFFFFFFFFFF80000
0000FFFFFFFFFFFFFFFFFFF00000
00007FFFFFFFFFFFFFFFFFE00000
00003FFFFFFFFFFFFFFFFFC00000
00001FFFFFFFFFFFFFFFFF800000
00000FFFFFFFFFFFFFFFFF000000
000007FFFFFFFFFFFFFFFE000000
000003FFFFFFFFFFFFFFFC000000
ENDCHAR
STARTCHAR 0031
ENCODING 49
SWIDTH 464 0
DWIDTH 79 0
BBX 71 141 0 0
BITMAP
0000003FFFFFFF8000
0000007FFFFFFF8000
000000FFFFFFFF8000
000001FFFFFFFF8000
000003FFFFFFFF8000
000007FFFFFFFF8000
00000FFFFFFFFF8000
00001FFFFFFFFF8000
00003FFFFFFFFF8000
00007FFFFFFFFF8000
0000FFFFFFFFFF8000
0001FFFFFFFFFF8000
0003FFFFFFFFFF8000
0007FFFFFFFFFF8000
000FFFFFFFFFFF8000
001FFFFFFFFFFF8000
003FFFFFFFFFFF8000
007FFFFFFFFFFF8000
00FFFFFFFFFFFF8000
01FFFFFFFFFFFF8000
03FFFFFFFFFFFF8000
07FFFFFFFFFFFF8000
0FFFFFFFFFFFFF8000
1FFFFFFFFFFFFF8000
3FFFFFFFFFFFFF8000
7FFFFFFFFFFFFF8000
FFFFFFFFFFFFFF8000
FFFFFFFFFFFFFF8000
FFFFFFFFFFFFFF8000
FFFFFFFFFFFFFF8000
FFFFFFFFFFFFFF8000
FFFFFFFFFFFFFF8000
FFFFFFFFFFFFFF8000
FFFFFFFFFFFFFF8000
FFFFFFFFFFFFFF8000
FFFFFFFFFFFFFF8000
FFFFFFFFFFFFFF8000
FFFFFFFFFFFFFF8000
FFFFFFFFFFFFFF8000
FFFFFFFFFFFFFF8000
FFFFFFFFFFFFFF8000
FFFFFFFFFFFFFF8000
FFFFFFFFFFFFFF8000
FFFFFFFFFFFFFF8000
FFFFFFFFFFFFFF8000
FFFFFFFFFFFFFF8000
FFFFFFFFFFFFFF8000
FFFFFFFFFFFFFF8000
00003FFFFFFFFF8000
00003FFFFFFFFF8000
00003FFFFFFFFF8000
00003FFFFFFFFF8000
00003FFFFFFFFF8000
00003FFFFFFFFF8000
00003FFFFFFFFF8000
00003FFFFFFFFF8000
00003FFFFFFFFF8000
00003FFFFFFFFF8000
00003FFFFFFFFF8000
00003FFFFFFFFF8000
00003FFFFFFFFF8000
00003FFFFFFFFF8000
00003FFFFFFFFF8000
00003FFFFFFFFF8000
00003FFFFFFFFF8000
00003FFFFFFFFF8000
00003FFFFFFFFF8000
00003FFFFFFFFF8000
00003FFFFFFFFF8000
00003FFFFFFFFF8000
00003FFFFFFFFF8000
00003FFFFFFFFF8000
00003FFFFFFFFF8000
00003FFFFFFFFF8000
00003FFFFFFFFF8000
00003FFFFFFFFF8000
00003FFFFFFFFF8000
00003FFFFFFFFF8000
00003FFFFFFFFF8000
00003FFFFFFFFF8000
00003FFFFFFFFF8000
00003FFFFFFFFF8000
00003FFFFFFFFF8000
00003FFFFFFFFF8000
00003FFFFFFFFF8000
00003FFFFFFFFF8000
00003FFFFFFFFF8000
00003FFFFFFFFF8000
00003FFFFFFFFF8000
00003FFFFFFFFF8000
00003FFFFFFFFF8000
00003FFFFFFFFF8000
00003FFFFFFFFF8000
00003FFFFFFFFF8000
00003FFFFFFFFF8000
00003FFFFFFFFF8000
00003FFFFFFFFF8000
00003FFFFFFFFF8000
00003FFFFFFFFF8000
00003FFFFFFFFF8000
00003FFFFFFFFF8000
00003FFFFFFFFF8000
00003FFFFFFFFF8000
00003FFFFFFFFF8000
00003FFFFFFFFF8000
00003FFFFFFFFF8000
00003FFFFFFFFF8000
00003FFFFFFFFF8000
00003FFFFFFFFF8000
FFFFFFFFFFFFFFFFFE
FFFFFFFFFFFFFFFFFE
FFFFFFFFFFFFFFFFFE
FFFFFFFFFFFFFFFFFE
FFFFFFFFFFFFFFFFFE
FFFFFFFFFFFFFFFFFE
FFFFFFFFFFFFFFFFFE
FFFFFFFFFFFFFFFFFE
FFFFFFFFFFFFFFFFFE
FFFFFFFFFFFFFFFFFE
FFFFFFFFFFFFFFFFFE
FFFFFFFFFFFFFFFFFE
FFFFFFFFFFFFFFFFFE
FFFFFFFFFFFFFFFFFE
FFFFFFFFFFFFFFFFFE
FFFFFFFFFFFFFFFFFE
FFFFFFFFFFFFFFFFFE
FFFFFFFFFFFFFFFFFE
FFFFFFFFFFFFFFFFFE
FFFFFFFFFFFFFFFFFE
FFFFFFFFFFFFFFFFFE
FFFFFFFFFFFFFFFFFE
FFFFFFFFFFFFFFFFFE
FFFFFFFFFFFFFFFFFE
FFFFFFFFFFFFFFFFFE
FFFFFFFFFFFFFFFFFE
FFFFFFFFFFFFFFFFFE
FFFFFFFFFFFFFFFFFE
FFFFFFFFFFFFFFFFFE
FFFFFFFFFFFFFFFFFE
FFFFFFFFFFFFFFFFFE
FFFFFFFFFFFFFFFFFE
ENDCHAR
STARTCHAR 0032
ENCODING 50
SWIDTH 658 0
DWIDTH 112 0
BBX 102 142 0 0
BITMAP
000003FFFFFFFFFFFFFF000000
000007FFFFFFFFFFFFFF800000
00000FFFFFFFFFFFFFFFC00000
00001FFFFFFFFFFFFFFFE00000
00003FFFFFFFFFFFFFFFF00000
00007FFFFFFFFFFFFFFFF80000
0000FFFFFFFFFFFFFFFFFC0000
0001FFFFFFFFFFFFFFFFFE0000
0003FFFFFFFFFFFFFFFFFF0000
0007FFFFFFFFFFFFFFFFFF8000
000FFFFFFFFFFFFFFFFFFFC000
001FFFFFFFFFFFFFFFFFFFE000
003FFFFFFFFFFFFFFFFFFFF000
007FFFFFFFFFFFFFFFFFFFF800
00FFFFFFFFFFFFFFFFFFFFFC00
01FFFFFFFFFFFFFFFFFFFFFE00
03FFFFFFFFFFFFFFFFFFFFFF00
07FFFFFFFFFFFFFFFFFFFFFF80
0FFFFFFFFFFFFFFFFFFFFFFFC0
1FFFFFFFFFFFFFFFFFFFFFFFE0
3FFFFFFFFFFFFFFFFFFFFFFFF0
7FFFFFFFFFFFFFFFFFFFFFFFF8
FFFFFFFFFFFFFFFFFFFFFFFFFC
FFFFFFFFFFFFFFFFFFFFFFFFFC
FFFFFFFFFFFFFFFFFFFFFFFFFC
FFFFFFFFFFFFFFFFFFFFFFFFFC
FFFFFFFFFFFFFFFFFFFFFFFFFC
FFFFFFFFFFFFFFFFFFFFFFFFFC
FFFFFFFFFFFFFFFFFFFFFFFFFC
FFFFFFFFFFFFFFFFFFFFFFFFFC
FFFFFFFFFFFFFFFFFFFFFFFFFC
FFFFFFFFFFFFFFFFFFFFFFFFFC
FFFFFFFFFFE0001FFFFFFFFFFC
FFFFFFFFFFC0000FFFFFFFFFFC
FFFFFFFFFF800007FFFFFFFFFC
FFFFFFFFFF000003FFFFFFFFFC
FFFFFFFFFE000001FFFFFFFFFC
FFFFFFFFFE000001FFFFFFFFFC
FFFFFFFFFE000001FFFFFFFFFC
FFFFFFFFFE000001FFFFFFFFFC
FFFFFFFFFE000001FFFFFFFFFC
FFFFFFFFFE000001FFFFFFFFFC
FFFFFFFFFE000001FFFFFFFFFC
FFFFFFFFFE000001FFFFFFFFFC
FFFFFFFFFE000001FFFFFFFFFC
FFFFFFFFFE000001FFFFFFFFFC
FFFFFFFFFE000003FFFFFFFFFC
FFFFFFFFFE000007FFFFFFFFFC
FFFFFFFFFE00000FFFFFFFFFFC
FFFFFFFFFE00001FFFFFFFFFFC
FFFFFFFFFE00003FFFFFFFFFFC
000000000000007FFFFFFFFFFC
00000000000000FFFFFFFFFFFC
00000000000001FFFFFFFFFFFC
00000000000003FFFFFFFFFFFC
00000000000007FFFFFFFFFFFC
0000000000000FFFFFFFFFFFFC
0000000000001FFFFFFFFFFFFC
0000000000003FFFFFFFFFFFFC
0000000000007FFFFFFFFFFFFC
000000000000FFFFFFFFFFFFFC
000000000001FFFFFFFFFFFFF8
000000000003FFFFFFFFFFFFF0
000000000007FFFFFFFFFFFFE0
00000000000FFFFFFFFFFFFFC0
00000000001FFFFFFFFFFFFF80
00000000003FFFFFFFFFFFFF00
00000000007FFFFFFFFFFFFE00
0000000000FFFFFFFFFFFFFC00
0000000001FFFFFFFFFFFFF800
0000000003FFFFFFFFFFFFF000
0000000007FFFFFFFFFFFFE000
000000000FFFFFFFFFFFFFC000
000000001FFFFFFFFFFFFF8000
000000003FFFFFFFFFFFFF0000
000000007FFFFFFFFFFFFE0000
00000000FFFFFFFFFFFFFC0000
00000001FFFFFFFFFFFFF80000
00000003FFFFFFFFFFFFF00000
00000007FFFFFFFFFFFFE00000
0000000FFFFFFFFFFFFFC00000
0000001FFFFFFFFFFFFF800000
0000003FFFFFFFFFFFFF000000
0000007FFFFFFFFFFFFE000000
000000FFFFFFFFFFFFFC000000
000001FFFFFFFFFFFFF8000000
000003FFFFFFFFFFFFF0000000
000007FFFFFFFFFFFFE0000000
00000FFFFFFFFFFFFFC0000000
00001FFFFFFFFFFFFF80000000
00003FFFFFFFFFFFFF00000000
00007FFFFFFFFFFFFE00000000
0000FFFFFFFFFFFFFC00000000
0001FFFFFFFFFFFFF800000000
0003FFFFFFFFFFFFF000000000
0007FFFFFFFFFFFFE000000000
000FFFFFFFFFFFFFC000000000
001FFFFFFFFFFFFF8000000000
003FFFFFFFFFFFFF0000000000
007FFFFFFFFFFFFE0000000000
00FFFFFFFFFFFFFC0000000000
01FFFFFFFFFFFFF80000000000
03FFFFFFFFFFFFF00000000000
07FFFFFFFFFFFFE00000000000
0FFFFFFFFFFFFFC00000000000
1FFFFFFFFFFFFFFFFFFFFFFFFC
3FFFFFFFFFFFFFFFFFFFFFFFFC
7FFFFFFFFFFFFFFFFFFFFFFFFC
FFFFFFFFFFFFFFFFFFFFFFFFFC
FFFFFFFFFFFFFFFFFFFFFFFFFC
FFFFFFFFFFFFFFFFFFFFFFFFFC
FFFFFFFFFFFFFFFFFFFFFFFFFC
FFFFFFFFFFFFFFFFFFFFFFFFFC
FFFFFFFFFFFFFFFFFFFFFFFFFC
FFFFFFFFFFFFFFFFFFFFFFFFFC
FFFFFFFFFFFFFFFFFFFFFFFFFC
FFFFFFFFFFFFFFFFFFFFFFFFFC
FFFFFFFFFFFFFFFFFFFFFFFFFC
FFFFFFFFFFFFFFFFFFFFFFFFFC
FFFFFFFFFFFFFFFFFFFFFFFFFC
FFFFFFFFFFFFFFFFFFFFFFFFFC
FFFFFFFFFFFFFFFFFFFFFFFFFC
FFFFFFFFFFFFFFFFFFFFFFFFFC
FFFFFFFFFFFFFFFFFFFFFFFFFC
FFFFFFFFFFFFFFFFFFFFFFFFFC
FFFFFFFFFFFFFFFFFFFFFFFFFC
FFFFFFFFFFFFFFFFFFFFFFFFFC
FFFFFFFFFFFFFFFFFFFFFFFFFC
FFFFFFFFFFFFFFFFFFFFFFFFFC
FFFFFFFFFFFFFFFFFFFFFFFFFC
FFFFFFFFFFFFFFFFFFFFFFFFFC
FFFFFFFFFFFFFFFFFFFFFFFFFC
FFFFFFFFFFFFFFFFFFFFFFFFFC
FFFFFFFFFFFFFFFFFFFFFFFFFC
FFFFFFFFFFFFFFFFFFFFFFFFFC
FFFFFFFFFFFFFFFFFFFFFFFFFC
FFFFFFFFFFFFFFFFFFFFFFFFFC
FFFFFFFFFFFFFFFFFFFFFFFFFC
FFFFFFFFFFFFFFFFFFFFFFFFFC
FFFFFFFFFFFFFFFFFFFFFFFFFC
FFFFFFFFFFFFFFFFFFFFFFFFFC
FFFFFFFFFFFFFFFFFFFFFFFFFC
ENDCHAR
STARTCHAR 0033
ENCODING 51
SWIDTH 694 0
DWIDTH 118 0
BBX 108 141 0 1
BITMAP
000003FFFFFFFFFFFFFFFC000000
000007FFFFFFFFFFFFFFFE000000
00000FFFFFFFFFFFFFFFFF000000
00001FFFFFFFFFFFFFFFFF800000
00003FFFFFFFFFFFFFFFFFC00000
00007FFFFFFFFFFFFFFFFFE00000
0000FFFFFFFFFFFFFFFFFFF00000
0001FFFFFFFFFFFFFFFFFFF80000
0003FFFFFFFFFFFFFFFFFFFC0000
0007FFFFFFFFFFFFFFFFFFFE0000
000FFFFFFFFFFFFFFFFFFFFF0000
001FFFFFFFFFFFFFFFFFFFFF8000
003FFFFFFFFFFFFFFFFFFFFFC000
007FFFFFFFFFFFFFFFFFFFFFE000
00FFFFFFFFFFFFFFFFFFFFFFF000
01FFFFFFFFFFFFFFFFFFFFFFF800
03FFFFFFFFFFFFFFFFFFFFFFFC00
07FFFFFFFFFFFFFFFFFFFFFFFE00
0FFFFFFFFFFFFFFFFFFFFFFFFF00
1FFFFFFFFFFFFFFFFFFFFFFFFF80
3FFFFFFFFFFFFFFFFFFFFFFFFFC0
7FFFFFFFFFFFFFFFFFFFFFFFFFE0
FFFFFFFFFFFFFFFFFFFFFFFFFFF0
FFFFFFFFFFFFFFFFFFFFFFFFFFF0
FFFFFFFFFFFFFFFFFFFFFFFFFFF0
FFFFFFFFFFFFFFFFFFFFFFFFFFF0
FFFFFFFFFFFFFFFFFFFFFFFFFFF0
FFFFFFFFFFFFFFFFFFFFFFFFFFF0
FFFFFFFFFFFFFFFFFFFFFFFFFFF0
FFFFFFFFFFFFFFFFFFFFFFFFFFF0
FFFFFFFFFFFFFFFFFFFFFFFFFFF0
FFFFFFFFFFE00000FFFFFFFFFFF0
FFFFFFFFFFC000007FFFFFFFFFF0
FFFFFFFFFF8000003FFFFFFFFFF0
FFFFFFFFFF0000001FFFFFFFFFF0
FFFFFFFFFE0000000FFFFFFFFFF0
FFFFFFFFFE00000007FFFFFFFFF0
FFFFFFFFFE00000007FFFFFFFFF0
FFFFFFFFFE00000007FFFFFFFFF0
FFFFFFFFFE00000007FFFFFFFFF0
FFFFFFFFFE00000007FFFFFFFFF0
FFFFFFFFFE00000007FFFFFFFFF0
FFFFFFFFFE00000007FFFFFFFFF0
FFFFFFFFFE00000007FFFFFFFFF0
FFFFFFFFFE00000007FFFFFFFFF0
FFFFFFFFFE00000007FFFFFFFFF0
000000000000000007FFFFFFFFF0
000000000000000007FFFFFFFFF0
000000000000000007FFFFFFFFF0
000000000000000007FFFFFFFFF0
00000000000000000FFFFFFFFFF0
00000000000000001FFFFFFFFFF0
00000000000000003FFFFFFFFFF0
00000000000000007FFFFFFFFFF0
000000000001FFFFFFFFFFFFFFF0
000000000001FFFFFFFFFFFFFFF0
000000000001FFFFFFFFFFFFFFF0
000000000001FFFFFFFFFFFFFFF0
000000000001FFFFFFFFFFFFFFF0
000000000001FFFFFFFFFFFFFFF0
000000000001FFFFFFFFFFFFFFF0
000000000001FFFFFFFFFFFFFFF0
000000000001FFFFFFFFFFFFFFF0
000000000001FFFFFFFFFFFFFFF0
000000000001FFFFFFFFFFFFFFE0
000000000001FFFFFFFFFFFFFFC0
000000000001FFFFFFFFFFFFFF80
000000000001FFFFFFFFFFFFFF00
000000000001FFFFFFFFFFFFFE00
000000000001FFFFFFFFFFFFFC00
000000000001FFFFFFFFFFFFFC00
000000000001FFFFFFFFFFFFFE00
000000000001FFFFFFFFFFFFFF00
000000000001FFFFFFFFFFFFFF80
000000000001FFFFFFFFFFFFFFC0
000000000001FFFFFFFFFFFFFFE0
000000000001FFFFFFFFFFFFFFF0
000000000001FFFFFFFFFFFFFFF0
000000000001FFFFFFFFFFFFFFF0
000000000001FFFFFFFFFFFFFFF0
000000000001FFFFFFFFFFFFFFF0
000000000001FFFFFFFFFFFFFFF0
000000000001FFFFFFFFFFFFFFF0
000000000001FFFFFFFFFFFFFFF0
000000000001FFFFFFFFFFFFFFF0
000000000001FFFFFFFFFFFFFFF0
00000000000000007FFFFFFFFFF0
00000000000000003FFFFFFFFFF0
00000000000000001FFFFFFFFFF0
00000000000000000FFFFFFFFFF0
000000000000000007FFFFFFFFF0
000000000000000007FFFFFFFFF0
000000000000000007FFFFFFFFF0
000000000000000007FFFFFFFFF0
000000000000000007FFFFFFFFF0
000000000000000007FFFFFFFFF0
000000000000000007FFFFFFFFF0
FFFFFFFFFE00000007FFFFFFFFF0
FFFFFFFFFE00000007FFFFFFFFF0
FFFFFFFFFE00000007FFFFFFFFF0
FFFFFFFFFE00000007FFFFFFFFF0
FFFFFFFFFE00000007FFFFFFFFF0
FFFFFFFFFE00000007FFFFFFFFF0
FFFFFFFFFE00000007FFFFFFFFF0
FFFFFFFFFE00000007FFFFFFFFF0
FFFFFFFFFF0000000FFFFFFFFFF0
FFFFFFFFFF8000001FFFFFFFFFF0
FFFFFFFFFFC000003FFFFFFFFFF0
FFFFFFFFFFE000007FFFFFFFFFF0
FFFFFFFFFFFFFFFFFFFFFFFFFFF0
FFFFFFFFFFFFFFFFFFFFFFFFFFF0
FFFFFFFFFFFFFFFFFFFFFFFFFFF0
FFFFFFFFFFFFFFFFFFFFFFFFFFF0
FFFFFFFFFFFFFFFFFFFFFFFFFFF0
FFFFFFFFFFFFFFFFFFFFFFFFFFF0
FFFFFFFFFFFFFFFFFFFFFFFFFFF0
FFFFFFFFFFFFFFFFFFFFFFFFFFF0
FFFFFFFFFFFFFFFFFFFFFFFFFFF0
FFFFFFFFFFFFFFFFFFFFFFFFFFF0
7FFFFFFFFFFFFFFFFFFFFFFFFFE0
3FFFFFFFFFFFFFFFFFFFFFFFFFC0
1FFFFFFFFFFFFFFFFFFFFFFFFF80
0FFFFFFFFFFFFFFFFFFFFFFFFF00
07FFFFFFFFFFFFFFFFFFFFFFFE00
03FFFFFFFFFFFFFFFFFFFFFFFC00
01FFFFFFFFFFFFFFFFFFFFFFF800
00FFFFFFFFFFFFFFFFFFFFFFF000
007FFFFFFFFFFFFFFFFFFFFFE000
003FFFFFFFFFFFFFFFFFFFFFC000
001FFFFFFFFFFFFFFFFFFFFF8000
000FFFFFFFFFFFFFFFFFFFFF0000
0007FFFFFFFFFFFFFFFFFFFE0000
0003FFFFFFFFFFFFFFFFFFFC0000
0001FFFFFFFFFFFFFFFFFFF80000
0000FFFFFFFFFFFFFFFFFFF00000
00007FFFFFFFFFFFFFFFFFE00000
00003FFFFFFFFFFFFFFFFFC00000
00001FFFFFFFFFFFFFFFFF800000
00000FFFFFFFFFFFFFFFFF000000
000007FFFFFFFFFFFFFFFE000000
000003FFFFFFFFFFFFFFFC000000
ENDCHAR
STARTCHAR 0034
ENCODING 52
SWIDTH 676 0
DWIDTH 115 0
BBX 105 139 1 1
BITMAP
00000000000001FFFFFFFFC00000
00000000000003FFFFFFFFC00000
00000000000007FFFFFFFFC00000
0000000000000FFFFFFFFFC00000
0000000000001FFFFFFFFFC00000
0000000000003FFFFFFFFFC00000
0000000000003FFFFFFFFFC00000
0000000000007FFFFFFFFFC00000
000000000000FFFFFFFFFFC00000
000000000001FFFFFFFFFFC00000
000000000003FFFFFFFFFFC00000
000000000007FFFFFFFFFFC00000
00000000000FFFFFFFFFFFC00000
00000000001FFFFFFFFFFFC00000
00000000003FFFFFFFFFFFC00000
00000000007FFFFFFFFFFFC00000
0000000000FFFFFFFFFFFFC00000
0000000001FFFFFFFFFFFFC00000
0000000003FFFFFFFFFFFFC00000
0000000007FFFFFFFFFFFFC00000
000000000FFFFFFFFFFFFFC00000
000000001FFFFFFFFFFFFFC00000
000000003FFFFFFFFFFFFFC00000
000000007FFFFFFFFFFFFFC00000
00000000FFFFFFFFFFFFFFC00000
00000001FFFFFFFFFFFFFFC00000
00000003FFFFFFFFFFFFFFC00000
00000007FFFFFFFFFFFFFFC00000
0000000FFFFFFFFFFFFFFFC00000
0000001FFFFFFFFFFFFFFFC00000
0000003FFFFFFFFFFFFFFFC00000
0000007FFFFFFFFFFFFFFFC00000
000000FFFFFFFFFFFFFFFFC00000
000001FFFFFFFFFFFFFFFFC00000
000003FFFFFFFFFFFFFFFFC00000
000007FFFFFFFFFFFFFFFFC00000
00000FFFFFFFFFFFFFFFFFC00000
00001FFFFFFFFFFFFFFFFFC00000
00003FFFFFFFFFFFFFFFFFC00000
00007FFFFFFFFFFFFFFFFFC00000
0000FFFFFFFFFFFFFFFFFFC00000
0001FFFFFFFFFFFFFFFFFFC00000
0003FFFFFFFFFFFFFFFFFFC00000
0007FFFFFFFFFFFFFFFFFFC00000
000FFFFFFFFFFFFFFFFFFFC00000
001FFFFFFFFFEFFFFFFFFFC00000
003FFFFFFFFFCFFFFFFFFFC00000
007FFFFFFFFF8FFFFFFFFFC00000
00FFFFFFFFFF0FFFFFFFFFC00000
01FFFFFFFFFE0FFFFFFFFFC00000
03FFFFFFFFFC0FFFFFFFFFC00000
03FFFFFFFFF80FFFFFFFFFC00000
07FFFFFFFFF00FFFFFFFFFC00000
0FFFFFFFFFE00FFFFFFFFFC00000
1FFFFFFFFFC00FFFFFFFFFC00000
3FFFFFFFFF800FFFFFFFFFC00000
7FFFFFFFFF000FFFFFFFFFC00000
FFFFFFFFFE000FFFFFFFFFC00000
FFFFFFFFFC000FFFFFFFFFC00000
FFFFFFFFF8000FFFFFFFFFC00000
FFFFFFFFF0000FFFFFFFFFC00000
FFFFFFFFE0000FFFFFFFFFC00000
FFFFFFFFC0000FFFFFFFFFC00000
FFFFFFFF80000FFFFFFFFFC00000
FFFFFFFF00000FFFFFFFFFC00000
FFFFFFFE00000FFFFFFFFFC00000
FFFFFFFFFFFFFFFFFFFFFFFFFF80
FFFFFFFFFFFFFFFFFFFFFFFFFF80
FFFFFFFFFFFFFFFFFFFFFFFFFF80
FFFFFFFFFFFFFFFFFFFFFFFFFF80
FFFFFFFFFFFFFFFFFFFFFFFFFF80
FFFFFFFFFFFFFFFFFFFFFFFFFF80
FFFFFFFFFFFFFFFFFFFFFFFFFF80
FFFFFFFFFFFFFFFFFFFFFFFFFF80
FFFFFFFFFFFFFFFFFFFFFFFFFF80
FFFFFFFFFFFFFFFFFFFFFFFFFF80
FFFFFFFFFFFFFFFFFFFFFFFFFF80
FFFFFFFFFFFFFFFFFFFFFFFFFF80
FFFFFFFFFFFFFFFFFFFFFFFFFF80
FFFFFFFFFFFFFFFFFFFFFFFFFF80
FFFFFFFFFFFFFFFFFFFFFFFFFF80
FFFFFFFFFFFFFFFFFFFFFFFFFF80
FFFFFFFFFFFFFFFFFFFFFFFFFF80
FFFFFFFFFFFFFFFFFFFFFFFFFF80
FFFFFFFFFFFFFFFFFFFFFFFFFF80
FFFFFFFFFFFFFFFFFFFFFFFFFF80
FFFFFFFFFFFFFFFFFFFFFFFFFF80
FFFFFFFFFFFFFFFFFFFFFFFFFF80
FFFFFFFFFFFFFFFFFFFFFFFFFF80
FFFFFFFFFFFFFFFFFFFFFFFFFF80
FFFFFFFFFFFFFFFFFFFFFFFFFF80
FFFFFFFFFFFFFFFFFFFFFFFFFF80
FFFFFFFFFFFFFFFFFFFFFFFFFF80
FFFFFFFFFFFFFFFFFFFFFFFFFF80
FFFFFFFFFFFFFFFFFFFFFFFFFF80
FFFFFFFFFFFFFFFFFFFFFFFFFF80
0000000000000FFFFFFFFFC00000
0000000000000FFFFFFFFFC00000
0000000000000FFFFFFFFFC00000
0000000000000FFFFFFFFFC00000
0000000000000FFFFFFFFFC00000
0000000000000FFFFFFFFFC00000
0000000000000FFFFFFFFFC00000
0000000000000FFFFFFFFFC00000
0000000000000FFFFFFFFFC00000
0000000000000FFFFFFFFFC00000
0000000000000FFFFFFFFFC00000
0000000000000FFFFFFFFFC00000
0000000000000FFFFFFFFFC00000
0000000000000FFFFFFFFFC00000
000000000007FFFFFFFFFFFFE000
000000000007FFFFFFFFFFFFE000
000000000007FFFFFFFFFFFFE000
000000000007FFFFFFFFFFFFE000
000000000007FFFFFFFFFFFFE000
000000000007FFFFFFFFFFFFE000
000000000007FFFFFFFFFFFFE000
000000000007FFFFFFFFFFFFE000
000000000007FFFFFFFFFFFFE000
000000000007FFFFFFFFFFFFE000
000000000007FFFFFFFFFFFFE000
000000000007FFFFFFFFFFFFE000
000000000007FFFFFFFFFFFFE000
000000000007FFFFFFFFFFFFE000
000000000007FFFFFFFFFFFFE000
000000000007FFFFFFFFFFFFE000
000000000007FFFFFFFFFFFFE000
000000000007FFFFFFFFFFFFE000
000000000007FFFFFFFFFFFFE000
000000000007FFFFFFFFFFFFE000
000000000007FFFFFFFFFFFFE000
000000000007FFFFFFFFFFFFE000
000000000007FFFFFFFFFFFFE000
000000000007FFFFFFFFFFFFE000
000000000007FFFFFFFFFFFFE000
000000000007FFFFFFFFFFFFE000
000000000007FFFFFFFFFFFFE000
000000000007FFFFFFFFFFFFE000
000000000007FFFFFFFFFFFFE000
ENDCHAR
STARTCHAR 0035
ENCODING 53
SWIDTH 694 0
DWIDTH 118 0
BBX 108 142 0 0
BITMAP
FFFFFFFFFFFFFFFFFFFFFFFFFFF0
FFFFFFFFFFFFFFFFFFFFFFFFFFF0
FFFFFFFFFFFFFFFFFFFFFFFFFFF0
FFFFFFFFFFFFFFFFFFFFFFFFFFF0
FFFFFFFFFFFFFFFFFFFFFFFFFFF0
FFFFFFFFFFFFFFFFFFFFFFFFFFF0
FFFFFFFFFFFFFFFFFFFFFFFFFFF0
FFFFFFFFFFFFFFFFFFFFFFFFFFF0
FFFFFFFFFFFFFFFFFFFFFFFFFFF0
FFFFFFFFFFFFFFFFFFFFFFFFFFF0
FFFFFFFFFFFFFFFFFFFFFFFFFFF0
FFFFFFFFFFFFFFFFFFFFFFFFFFF0
FFFFFFFFFFFFFFFFFFFFFFFFFFF0
FFFFFFFFFFFFFFFFFFFFFFFFFFF0
FFFFFFFFFFFFFFFFFFFFFFFFFFF0
FFFFFFFFFFFFFFFFFFFFFFFFFFF0
FFFFFFFFFFFFFFFFFFFFFFFFFFF0
FFFFFFFFFFFFFFFFFFFFFFFFFFF0
FFFFFFFFFFFFFFFFFFFFFFFFFFF0
FFFFFFFFFFFFFFFFFFFFFFFFFFF0
FFFFFFFFFFFFFFFFFFFFFFFFFFF0
FFFFFFFFFFFFFFFFFFFFFFFFFFF0
FFFFFFFFFFFFFFFFFFFFFFFFFFF0
FFFFFFFFFFFFFFFFFFFFFFFFFFF0
FFFFFFFFFFFFFFFFFFFFFFFFFFF0
FFFFFFFFFFFFFFFFFFFFFFFFFFF0
FFFFFFFFFFFFFFFFFFFFFFFFFFF0
FFFFFFFFFFFFFFFFFFFFFFFFFFF0
FFFFFFFFFFFFFFFFFFFFFFFFFFF0
FFFFFFFFFFFFFFFFFFFFFFFFFFF0
FFFFFFFFFFFFFFFFFFFFFFFFFFF0
FFFFFFFFFFFFFFFFFFFFFFFFFFF0
FFFFFFFFFE000000000000000000
FFFFFFFFFE000000000000000000
FFFFFFFFFE000000000000000000
FFFFFFFFFE000000000000000000
FFFFFFFFFE000000000000000000
FFFFFFFFFE000000000000000000
FFFFFFFFFE000000000000000000
FFFFFFFFFE000000000000000000
FFFFFFFFFE000000000000000000
FFFFFFFFFF000000000000000000
FFFFFFFFFF800000000000000000
FFFFFFFFFFC00000000000000000
FFFFFFFFFFF00000000000000000
FFFFFFFFFFFFFFFFFFFFFE000000
FFFFFFFFFFFFFFFFFFFFFF000000
FFFFFFFFFFFFFFFFFFFFFF800000
FFFFFFFFFFFFFFFFFFFFFFC00000
FFFFFFFFFFFFFFFFFFFFFFE00000
FFFFFFFFFFFFFFFFFFFFFFF00000
FFFFFFFFFFFFFFFFFFFFFFF80000
FFFFFFFFFFFFFFFFFFFFFFFC0000
FFFFFFFFFFFFFFFFFFFFFFFE0000
7FFFFFFFFFFFFFFFFFFFFFFF0000
3FFFFFFFFFFFFFFFFFFFFFFF8000
1FFFFFFFFFFFFFFFFFFFFFFFC000
0FFFFFFFFFFFFFFFFFFFFFFFE000
07FFFFFFFFFFFFFFFFFFFFFFF000
03FFFFFFFFFFFFFFFFFFFFFFF800
01FFFFFFFFFFFFFFFFFFFFFFFC00
00FFFFFFFFFFFFFFFFFFFFFFFE00
007FFFFFFFFFFFFFFFFFFFFFFF00
003FFFFFFFFFFFFFFFFFFFFFFF80
001FFFFFFFFFFFFFFFFFFFFFFFC0
000FFFFFFFFFFFFFFFFFFFFFFFE0
0007FFFFFFFFFFFFFFFFFFFFFFF0
0003FFFFFFFFFFFFFFFFFFFFFFF0
0001FFFFFFFFFFFFFFFFFFFFFFF0
0000FFFFFFFFFFFFFFFFFFFFFFF0
00007FFFFFFFFFFFFFFFFFFFFFF0
00003FFFFFFFFFFFFFFFFFFFFFF0
00001FFFFFFFFFFFFFFFFFFFFFF0
00000FFFFFFFFFFFFFFFFFFFFFF0
000007FFFFFFFFFFFFFFFFFFFFF0
000003FFFFFFFFFFFFFFFFFFFFF0
0000000000000000FFFFFFFFFFF0
00000000000000007FFFFFFFFFF0
00000000000000003FFFFFFFFFF0
00000000000000001FFFFFFFFFF0
00000000000000000FFFFFFFFFF0
000000000000000007FFFFFFFFF0
000000000000000007FFFFFFFFF0
000000000000000007FFFFFFFFF0
000000000000000007FFFFFFFFF0
000000000000000007FFFFFFFFF0
000000000000000007FFFFFFFFF0
000000000000000007FFFFFFFFF0
000000000000000007FFFFFFFFF0
000000000000000007FFFFFFFFF0
000000000000000007FFFFFFFFF0
000000000000000007FFFFFFFFF0
000000000000000007FFFFFFFFF0
000000000000000007FFFFFFFFF0
FFFFFFFFFE00000007FFFFFFFFF0
FFFFFFFFFE00000007FFFFFFFFF0
FFFFFFFFFE00000007FFFFFFFFF0
FFFFFFFFFE00000007FFFFFFFFF0
FFFFFFFFFE00000007FFFFFFFFF0
FFFFFFFFFE00000007FFFFFFFFF0
FFFFFFFFFE00000007FFFFFFFFF0
FFFFFFFFFE00000007FFFFFFFFF0
FFFFFFFFFE00000007FFFFFFFFF0
FFFFFFFFFE00000007FFFFFFFFF0
FFFFFFFFFE00000007FFFFFFFFF0
FFFFFFFFFE00000007FFFFFFFFF0
FFFFFFFFFF0000000FFFFFFFFFF0
FFFFFFFFFF8000001FFFFFFFFFF0
FFFFFFFFFFC000003FFFFFFFFFF0
FFFFFFFFFFE000007FFFFFFFFFF0
FFFFFFFFFFFFFFFFFFFFFFFFFFF0
FFFFFFFFFFFFFFFFFFFFFFFFFFF0
FFFFFFFFFFFFFFFFFFFFFFFFFFF0
FFFFFFFFFFFFFFFFFFFFFFFFFFF0
FFFFFFFFFFFFFFFFFFFFFFFFFFF0
FFFFFFFFFFFFFFFFFFFFFFFFFFF0
FFFFFFFFFFFFFFFFFFFFFFFFFFF0
FFFFFFFFFFFFFFFFFFFFFFFFFFF0
FFFFFFFFFFFFFFFFFFFFFFFFFFF0
FFFFFFFFFFFFFFFFFFFFFFFFFFF0
7FFFFFFFFFFFFFFFFFFFFFFFFFE0
3FFFFFFFFFFFFFFFFFFFFFFFFFC0
1FFFFFFFFFFFFFFFFFFFFFFFFF80
0FFFFFFFFFFFFFFFFFFFFFFFFF00
07FFFFFFFFFFFFFFFFFFFFFFFE00
03FFFFFFFFFFFFFFFFFFFFFFFC00
01FFFFFFFFFFFFFFFFFFFFFFF800
00FFFFFFFFFFFFFFFFFFFFFFF000
007FFFFFFFFFFFFFFFFFFFFFE000
003FFFFFFFFFFFFFFFFFFFFFC000
001FFFFFFFFFFFFFFFFFFFFF8000
000FFFFFFFFFFFFFFFFFFFFF0000
0007FFFFFFFFFFFFFFFFFFFE0000
0003FFFFFFFFFFFFFFFFFFFC0000
0001FFFFFFFFFFFFFFFFFFF80000
0000FFFFFFFFFFFFFFFFFFF00000
00007FFFFFFFFFFFFFFFFFE00000
00003FFFFFFFFFFFFFFFFFC00000
00001FFFFFFFFFFFFFFFFF800000
00000FFFFFFFFFFFFFFFFF000000
000007FFFFFFFFFFFFFFFE000000
000003FFFFFFFFFFFFFFFC000000
ENDCHAR
STARTCHAR 0036
ENCODING 54
SWIDTH 694 0
DWIDTH 118 0
BBX 108 142 0 0
BITMAP
000003FFFFFFFFFFFFFFF8000000
000007FFFFFFFFFFFFFFFC000000
00000FFFFFFFFFFFFFFFFE000000
00001FFFFFFFFFFFFFFFFF000000
00003FFFFFFFFFFFFFFFFF800000
00007FFFFFFFFFFFFFFFFFC00000
0000FFFFFFFFFFFFFFFFFFE00000
0001FFFFFFFFFFFFFFFFFFF00000
0003FFFFFFFFFFFFFFFFFFF80000
0007FFFFFFFFFFFFFFFFFFFC0000
000FFFFFFFFFFFFFFFFFFFFE0000
001FFFFFFFFFFFFFFFFFFFFF0000
003FFFFFFFFFFFFFFFFFFFFF8000
007FFFFFFFFFFFFFFFFFFFFFC000
00FFFFFFFFFFFFFFFFFFFFFFE000
01FFFFFFFFFFFFFFFFFFFFFFF000
03FFFFFFFFFFFFFFFFFFFFFFF800
07FFFFFFFFFFFFFFFFFFFFFFFC00
0FFFFFFFFFFFFFFFFFFFFFFFFE00
1FFFFFFFFFFFFFFFFFFFFFFFFF00
3FFFFFFFFFFFFFFFFFFFFFFFFF80
7FFFFFFFFFFFFFFFFFFFFFFFFFC0
FFFFFFFFFFFFFFFFFFFFFFFFFFE0
FFFFFFFFFFFFFFFFFFFFFFFFFFF0
FFFFFFFFFFFFFFFFFFFFFFFFFFF0
FFFFFFFFFFFFFFFFFFFFFFFFFFF0
FFFFFFFFFFFFFFFFFFFFFFFFFFF0
FFFFFFFFFFFFFFFFFFFFFFFFFFF0
FFFFFFFFFFFFFFFFFFFFFFFFFFF0
FFFFFFFFFFFFFFFFFFFFFFFFFFF0
FFFFFFFFFFFFFFFFFFFFFFFFFFF0
FFFFFFFFFFFFFFFFFFFFFFFFFFF0
FFFFFFFFFFE000007FFFFFFFFFF0
FFFFFFFFFFC000003FFFFFFFFFF0
FFFFFFFFFF8000001FFFFFFFFFF0
FFFFFFFFFF0000000FFFFFFFFFF0
FFFFFFFFFE00000007FFFFFFFFF0
FFFFFFFFFE00000007FFFFFFFFF0
FFFFFFFFFE00000007FFFFFFFFF0
FFFFFFFFFE00000007FFFFFFFFF0
FFFFFFFFFE00000007FFFFFFFFF0
FFFFFFFFFE00000007FFFFFFFFF0
FFFFFFFFFE00000007FFFFFFFFF0
FFFFFFFFFE00000007FFFFFFFFF0
FFFFFFFFFE00000007FFFFFFFFF0
FFFFFFFFFE00000007FFFFFFFFF0
FFFFFFFFFE000000000000000000
FFFFFFFFFE000000000000000000
FFFFFFFFFE000000000000000000
FFFFFFFFFE000000000000000000
FFFFFFFFFE000000000000000000
FFFFFFFFFE000000000000000000
FFFFFFFFFE000000000000000000
FFFFFFFFFE000000000000000000
FFFFFFFFFE000000000000000000
FFFFFFFFFE000000000000000000
FFFFFFFFFE000000000000000000
FFFFFFFFFFFFFFFFFFFFFC000000
FFFFFFFFFFFFFFFFFFFFFE000000
FFFFFFFFFFFFFFFFFFFFFF000000
FFFFFFFFFFFFFFFFFFFFFF800000
FFFFFFFFFFFFFFFFFFFFFFC00000
FFFFFFFFFFFFFFFFFFFFFFE00000
FFFFFFFFFFFFFFFFFFFFFFF00000
FFFFFFFFFFFFFFFFFFFFFFF80000
FFFFFFFFFFFFFFFFFFFFFFFC0000
FFFFFFFFFFFFFFFFFFFFFFFE0000
FFFFFFFFFFFFFFFFFFFFFFFF0000
FFFFFFFFFFFFFFFFFFFFFFFF8000
FFFFFFFFFFFFFFFFFFFFFFFFC000
FFFFFFFFFFFFFFFFFFFFFFFFE000
FFFFFFFFFFFFFFFFFFFFFFFFF000
FFFFFFFFFFFFFFFFFFFFFFFFF000
FFFFFFFFFFFFFFFFFFFFFFFFF800
FFFFFFFFFFFFFFFFFFFFFFFFFC00
FFFFFFFFFFFFFFFFFFFFFFFFFE00
FFFFFFFFFFFFFFFFFFFFFFFFFF00
FFFFFFFFFFFFFFFFFFFFFFFFFF80
FFFFFFFFFFFFFFFFFFFFFFFFFFC0
FFFFFFFFFFFFFFFFFFFFFFFFFFE0
FFFFFFFFFFFFFFFFFFFFFFFFFFF0
FFFFFFFFFFFFFFFFFFFFFFFFFFF0
FFFFFFFFFFFFFFFFFFFFFFFFFFF0
FFFFFFFFFFFFFFFFFFFFFFFFFFF0
FFFFFFFFFFFFFFFFFFFFFFFFFFF0
FFFFFFFFFFFFFFFFFFFFFFFFFFF0
FFFFFFFFFFFFFFFFFFFFFFFFFFF0
FFFFFFFFFFFFFFFFFFFFFFFFFFF0
FFFFFFFFFFFFFFFFFFFFFFFFFFF0
FFFFFFFFFFE000007FFFFFFFFFF0
FFFFFFFFFFC000003FFFFFFFFFF0
FFFFFFFFFF8000001FFFFFFFFFF0
FFFFFFFFFF0000000FFFFFFFFFF0
FFFFFFFFFE00000007FFFFFFFFF0
FFFFFFFFFE00000007FFFFFFFFF0
FFFFFFFFFE00000007FFFFFFFFF0
FFFFFFFFFE00000007FFFFFFFFF0
FFFFFFFFFE00000007FFFFFFFFF0
FFFFFFFFFE00000007FFFFFFFFF0
FFFFFFFFFE00000007FFFFFFFFF0
FFFFFFFFFE00000007FFFFFFFFF0
FFFFFFFFFE00000007FFFFFFFFF0
FFFFFFFFFE00000007FFFFFFFFF0
FFFFFFFFFE00000007FFFFFFFFF0
FFFFFFFFFE00000007FFFFFFFFF0
FFFFFFFFFE00000007FFFFFFFFF0
FFFFFFFFFF0000000FFFFFFFFFF0
FFFFFFFFFF8000001FFFFFFFFFF0
FFFFFFFFFFC000003FFFFFFFFFF0
FFFFFFFFFFE000007FFFFFFFFFF0
FFFFFFFFFFFFFFFFFFFFFFFFFFF0
FFFFFFFFFFFFFFFFFFFFFFFFFFF0
FFFFFFFFFFFFFFFFFFFFFFFFFFF0
FFFFFFFFFFFFFFFFFFFFFFFFFFF0
FFFFFFFFFFFFFFFFFFFFFFFFFFF0
FFFFFFFFFFFFFFFFFFFFFFFFFFF0
FFFFFFFFFFFFFFFFFFFFFFFFFFF0
FFFFFFFFFFFFFFFFFFFFFFFFFFF0
FFFFFFFFFFFFFFFFFFFFFFFFFFF0
FFFFFFFFFFFFFFFFFFFFFFFFFFF0
7FFFFFFFFFFFFFFFFFFFFFFFFFE0
3FFFFFFFFFFFFFFFFFFFFFFFFFC0
1FFFFFFFFFFFFFFFFFFFFFFFFF80
0FFFFFFFFFFFFFFFFFFFFFFFFF00
07FFFFFFFFFFFFFFFFFFFFFFFE00
03FFFFFFFFFFFFFFFFFFFFFFFC00
01FFFFFFFFFFFFFFFFFFFFFFF800
00FFFFFFFFFFFFFFFFFFFFFFF000
007FFFFFFFFFFFFFFFFFFFFFE000
003FFFFFFFFFFFFFFFFFFFFFC000
001FFFFFFFFFFFFFFFFFFFFF8000
000FFFFFFFFFFFFFFFFFFFFF0000
0007FFFFFFFFFFFFFFFFFFFE0000
0003FFFFFFFFFFFFFFFFFFFC0000
0001FFFFFFFFFFFFFFFFFFF80000
0000FFFFFFFFFFFFFFFFFFF00000
00007FFFFFFFFFFFFFFFFFE00000
00003FFFFFFFFFFFFFFFFFC00000
00001FFFFFFFFFFFFFFFFF800000
00000FFFFFFFFFFFFFFFFF000000
000007FFFFFFFFFFFFFFFE000000
000003FFFFFFFFFFFFFFFC000000
ENDCHAR
STARTCHAR 0037
ENCODING 55
SWIDTH 664 0
DWIDTH 113 0
BBX 105 142 0 0
BITMAP
FFFFFFFFFFFFFFFFFFFFFFFFFF80
FFFFFFFFFFFFFFFFFFFFFFFFFF80
FFFFFFFFFFFFFFFFFFFFFFFFFF80
FFFFFFFFFFFFFFFFFFFFFFFFFF80
FFFFFFFFFFFFFFFFFFFFFFFFFF80
FFFFFFFFFFFFFFFFFFFFFFFFFF80
FFFFFFFFFFFFFFFFFFFFFFFFFF80
FFFFFFFFFFFFFFFFFFFFFFFFFF80
FFFFFFFFFFFFFFFFFFFFFFFFFF80
FFFFFFFFFFFFFFFFFFFFFFFFFF80
FFFFFFFFFFFFFFFFFFFFFFFFFF80
FFFFFFFFFFFFFFFFFFFFFFFFFF80
FFFFFFFFFFFFFFFFFFFFFFFFFF80
FFFFFFFFFFFFFFFFFFFFFFFFFF80
FFFFFFFFFFFFFFFFFFFFFFFFFF80
FFFFFFFFFFFFFFFFFFFFFFFFFF80
FFFFFFFFFFFFFFFFFFFFFFFFFF80
FFFFFFFFFFFFFFFFFFFFFFFFFF80
FFFFFFFFFFFFFFFFFFFFFFFFFF80
FFFFFFFFFFFFFFFFFFFFFFFFFF80
FFFFFFFFFFFFFFFFFFFFFFFFFF80
FFFFFFFFFFFFFFFFFFFFFFFFFF80
FFFFFFFFFFFFFFFFFFFFFFFFFF80
FFFFFFFFFFFFFFFFFFFFFFFFFF80
FFFFFFFFFFFFFFFFFFFFFFFFFF80
FFFFFFFFFFFFFFFFFFFFFFFFFF80
FFFFFFFFFFFFFFFFFFFFFFFFFF80
FFFFFFFFFFFFFFFFFFFFFFFFFF80
FFFFFFFFFFFFFFFFFFFFFFFFFF80
FFFFFFFFFFFFFFFFFFFFFFFFFF00
FFFFFFFFFFFFFFFFFFFFFFFFFF00
FFFFFFFFFFFFFFFFFFFFFFFFFF00
FFFFFFFF00000003FFFFFFFFFE00
FFFFFFFF00000003FFFFFFFFFE00
FFFFFFFF00000003FFFFFFFFFC00
FFFFFFFF00000007FFFFFFFFFC00
FFFFFFFF00000007FFFFFFFFFC00
FFFFFFFF00000007FFFFFFFFF800
FFFFFFFF0000000FFFFFFFFFF800
FFFFFFFF0000000FFFFFFFFFF800
FFFFFFFF0000001FFFFFFFFFF000
000000000000001FFFFFFFFFF000
000000000000001FFFFFFFFFE000
000000000000003FFFFFFFFFE000
000000000000003FFFFFFFFFE000
000000000000003FFFFFFFFFC000
000000000000007FFFFFFFFFC000
000000000000007FFFFFFFFFC000
00000000000000FFFFFFFFFF8000
00000000000000FFFFFFFFFF8000
00000000000000FFFFFFFFFF8000
00000000000001FFFFFFFFFF0000
00000000000001FFFFFFFFFF0000
00000000000001FFFFFFFFFE0000
00000000000003FFFFFFFFFE0000
00000000000003FFFFFFFFFE0000
00000000000003FFFFFFFFFC0000
00000000000007FFFFFFFFFC0000
00000000000007FFFFFFFFFC0000
0000000000000FFFFFFFFFF80000
0000000000000FFFFFFFFFF80000
0000000000000FFFFFFFFFF00000
0000000000001FFFFFFFFFF00000
0000000000001FFFFFFFFFF00000
0000000000001FFFFFFFFFE00000
0000000000003FFFFFFFFFE00000
0000000000003FFFFFFFFFE00000
0000000000007FFFFFFFFFC00000
0000000000007FFFFFFFFFC00000
0000000000007FFFFFFFFF800000
000000000000FFFFFFFFFF800000
000000000000FFFFFFFFFF800000
000000000000FFFFFFFFFF000000
000000000001FFFFFFFFFF000000
000000000001FFFFFFFFFF000000
000000000003FFFFFFFFFE000000
000000000003FFFFFFFFFE000000
000000000003FFFFFFFFFE000000
000000000007FFFFFFFFFC000000
000000000007FFFFFFFFFC000000
000000000007FFFFFFFFF8000000
00000000000FFFFFFFFFF8000000
00000000000FFFFFFFFFF8000000
00000000001FFFFFFFFFF0000000
00000000001FFFFFFFFFF0000000
00000000001FFFFFFFFFF0000000
00000000003FFFFFFFFFE0000000
00000000003FFFFFFFFFE0000000
00000000003FFFFFFFFFC0000000
00000000007FFFFFFFFFC0000000
00000000007FFFFFFFFFC0000000
00000000007FFFFFFFFF80000000
0000000000FFFFFFFFFF80000000
0000000000FFFFFFFFFF80000000
0000000001FFFFFFFFFF00000000
0000000001FFFFFFFFFF00000000
0000000001FFFFFFFFFE00000000
0000000003FFFFFFFFFE00000000
0000000003FFFFFFFFFE00000000
0000000003FFFFFFFFFC00000000
0000000007FFFFFFFFFC00000000
0000000007FFFFFFFFFC00000000
000000000FFFFFFFFFF800000000
000000000FFFFFFFFFF800000000
000000000FFFFFFFFFF800000000
000000001FFFFFFFFFF000000000
000000001FFFFFFFFFF000000000
000000001FFFFFFFFFE000000000
000000003FFFFFFFFFE000000000
000000003FFFFFFFFFE000000000
000000007FFFFFFFFFC000000000
000000007FFFFFFFFFC000000000
000000007FFFFFFFFFC000000000
00000000FFFFFFFFFF8000000000
00000000FFFFFFFFFF8000000000
00000000FFFFFFFFFF0000000000
00000001FFFFFFFFFF0000000000
00000001FFFFFFFFFF0000000000
00000001FFFFFFFFFE0000000000
00000003FFFFFFFFFE0000000000
00000003FFFFFFFFFE0000000000
00000007FFFFFFFFFC0000000000
00000007FFFFFFFFFC0000000000
00000007FFFFFFFFF80000000000
0000000FFFFFFFFFF80000000000
0000000FFFFFFFFFF80000000000
0000000FFFFFFFFFF00000000000
0000001FFFFFFFFFF00000000000
0000001FFFFFFFFFF00000000000
0000003FFFFFFFFFE00000000000
0000003FFFFFFFFFE00000000000
0000003FFFFFFFFFC00000000000
0000007FFFFFFFFFC00000000000
0000007FFFFFFFFFC00000000000
0000007FFFFFFFFF800000000000
000000FFFFFFFFFF800000000000
000000FFFFFFFFFF800000000000
000001FFFFFFFFFF000000000000
000001FFFFFFFFFF000000000000
000001FFFFFFFFFF000000000000
000003FFFFFFFFFE000000000000
000003FFFFFFFFFE000000000000
ENDCHAR
STARTCHAR 0038
ENCODING 56
SWIDTH 705 0
DWIDTH 120 0
BBX 107 142 3 0
BITMAP
000003FFFFFFFFFFFFFFF8000000
000007FFFFFFFFFFFFFFFC000000
00000FFFFFFFFFFFFFFFFE000000
00001FFFFFFFFFFFFFFFFF000000
00003FFFFFFFFFFFFFFFFF800000
00007FFFFFFFFFFFFFFFFFC00000
0000FFFFFFFFFFFFFFFFFFE00000
0001FFFFFFFFFFFFFFFFFFF00000
0003FFFFFFFFFFFFFFFFFFF80000
0007FFFFFFFFFFFFFFFFFFFC0000
000FFFFFFFFFFFFFFFFFFFFE0000
001FFFFFFFFFFFFFFFFFFFFF0000
003FFFFFFFFFFFFFFFFFFFFF8000
007FFFFFFFFFFFFFFFFFFFFFC000
00FFFFFFFFFFFFFFFFFFFFFFE000
01FFFFFFFFFFFFFFFFFFFFFFF000
03FFFFFFFFFFFFFFFFFFFFFFF800
07FFFFFFFFFFFFFFFFFFFFFFFC00
0FFFFFFFFFFFFFFFFFFFFFFFFE00
1FFFFFFFFFFFFFFFFFFFFFFFFF00
3FFFFFFFFFFFFFFFFFFFFFFFFF80
7FFFFFFFFFFFFFFFFFFFFFFFFFC0
FFFFFFFFFFFFFFFFFFFFFFFFFFE0
FFFFFFFFFFFFFFFFFFFFFFFFFFE0
FFFFFFFFFFFFFFFFFFFFFFFFFFE0
FFFFFFFFFFFFFFFFFFFFFFFFFFE0
FFFFFFFFFFFFFFFFFFFFFFFFFFE0
FFFFFFFFFFFFFFFFFFFFFFFFFFE0
FFFFFFFFFFFFFFFFFFFFFFFFFFE0
FFFFFFFFFFFFFFFFFFFFFFFFFFE0
FFFFFFFFFFFFFFFFFFFFFFFFFFE0
FFFFFFFFFFFFFFFFFFFFFFFFFFE0
FFFFFFFFFFF80001FFFFFFFFFFE0
FFFFFFFFFFF00000FFFFFFFFFFE0
FFFFFFFFFFE000007FFFFFFFFFE0
FFFFFFFFFFC000003FFFFFFFFFE0
FFFFFFFFFF8000001FFFFFFFFFE0
FFFFFFFFFF8000001FFFFFFFFFE0
FFFFFFFFFF8000001FFFFFFFFFE0
FFFFFFFFFF8000001FFFFFFFFFE0
FFFFFFFFFF8000001FFFFFFFFFE0
FFFFFFFFFF8000001FFFFFFFFFE0
FFFFFFFFFF8000001FFFFFFFFFE0
FFFFFFFFFF8000001FFFFFFFFFE0
FFFFFFFFFF8000001FFFFFFFFFE0
FFFFFFFFFF8000001FFFFFFFFFE0
FFFFFFFFFF8000001FFFFFFFFFE0
FFFFFFFFFF8000001FFFFFFFFFE0
FFFFFFFFFF8000001FFFFFFFFFE0
FFFFFFFFFF8000001FFFFFFFFFE0
FFFFFFFFFF8000001FFFFFFFFFE0
FFFFFFFFFFC000003FFFFFFFFFE0
FFFFFFFFFFE000007FFFFFFFFFE0
FFFFFFFFFFF00000FFFFFFFFFFE0
FFFFFFFFFFF80001FFFFFFFFFFE0
FFFFFFFFFFFFFFFFFFFFFFFFFFE0
FFFFFFFFFFFFFFFFFFFFFFFFFFE0
FFFFFFFFFFFFFFFFFFFFFFFFFFE0
FFFFFFFFFFFFFFFFFFFFFFFFFFE0
FFFFFFFFFFFFFFFFFFFFFFFFFFE0
FFFFFFFFFFFFFFFFFFFFFFFFFFE0
FFFFFFFFFFFFFFFFFFFFFFFFFFE0
FFFFFFFFFFFFFFFFFFFFFFFFFFE0
7FFFFFFFFFFFFFFFFFFFFFFFFFC0
3FFFFFFFFFFFFFFFFFFFFFFFFF80
1FFFFFFFFFFFFFFFFFFFFFFFFF00
0FFFFFFFFFFFFFFFFFFFFFFFFE00
07FFFFFFFFFFFFFFFFFFFFFFFC00
03FFFFFFFFFFFFFFFFFFFFFFF800
01FFFFFFFFFFFFFFFFFFFFFFF000
00FFFFFFFFFFFFFFFFFFFFFFE000
00FFFFFFFFFFFFFFFFFFFFFFE000
01FFFFFFFFFFFFFFFFFFFFFFF000
03FFFFFFFFFFFFFFFFFFFFFFF800
07FFFFFFFFFFFFFFFFFFFFFFFC00
0FFFFFFFFFFFFFFFFFFFFFFFFE00
1FFFFFFFFFFFFFFFFFFFFFFFFF00
3FFFFFFFFFFFFFFFFFFFFFFFFF80
3FFFFFFFFFFFFFFFFFFFFFFFFFC0
7FFFFFFFFFFFFFFFFFFFFFFFFFE0
FFFFFFFFFFFFFFFFFFFFFFFFFFE0
FFFFFFFFFFFFFFFFFFFFFFFFFFE0
FFFFFFFFFFFFFFFFFFFFFFFFFFE0
FFFFFFFFFFFFFFFFFFFFFFFFFFE0
FFFFFFFFFFFFFFFFFFFFFFFFFFE0
FFFFFFFFFFFFFFFFFFFFFFFFFFE0
FFFFFFFFFFFFFFFFFFFFFFFFFFE0
FFFFFFFFFFF80001FFFFFFFFFFE0
FFFFFFFFFFF00000FFFFFFFFFFE0
FFFFFFFFFFE000007FFFFFFFFFE0
FFFFFFFFFFC000003FFFFFFFFFE0
FFFFFFFFFF8000001FFFFFFFFFE0
FFFFFFFFFF8000001FFFFFFFFFE0
FFFFFFFFFF8000001FFFFFFFFFE0
FFFFFFFFFF8000001FFFFFFFFFE0
FFFFFFFFFF8000001FFFFFFFFFE0
FFFFFFFFFF8000001FFFFFFFFFE0
FFFFFFFFFF8000001FFFFFFFFFE0
FFFFFFFFFF8000001FFFFFFFFFE0
FFFFFFFFFF8000001FFFFFFFFFE0
FFFFFFFFFF8000001FFFFFFFFFE0
FFFFFFFFFF8000001FFFFFFFFFE0
FFFFFFFFFF8000001FFFFFFFFFE0
FFFFFFFFFF8000001FFFFFFFFFE0
FFFFFFFFFF8000001FFFFFFFFFE0
FFFFFFFFFF8000001FFFFFFFFFE0
FFFFFFFFFFC000003FFFFFFFFFE0
FFFFFFFFFFE000007FFFFFFFFFE0
FFFFFFFFFFF00000FFFFFFFFFFE0
FFFFFFFFFFF80001FFFFFFFFFFE0
FFFFFFFFFFFFFFFFFFFFFFFFFFE0
FFFFFFFFFFFFFFFFFFFFFFFFFFE0
FFFFFFFFFFFFFFFFFFFFFFFFFFE0
FFFFFFFFFFFFFFFFFFFFFFFFFFE0
FFFFFFFFFFFFFFFFFFFFFFFFFFE0
FFFFFFFFFFFFFFFFFFFFFFFFFFE0
FFFFFFFFFFFFFFFFFFFFFFFFFFE0
FFFFFFFFFFFFFFFFFFFFFFFFFFE0
FFFFFFFFFFFFFFFFFFFFFFFFFFE0
FFFFFFFFFFFFFFFFFFFFFFFFFFE0
7FFFFFFFFFFFFFFFFFFFFFFFFFC0
3FFFFFFFFFFFFFFFFFFFFFFFFF80
1FFFFFFFFFFFFFFFFFFFFFFFFF00
0FFFFFFFFFFFFFFFFFFFFFFFFE00
07FFFFFFFFFFFFFFFFFFFFFFFC00
03FFFFFFFFFFFFFFFFFFFFFFF800
01FFFFFFFFFFFFFFFFFFFFFFF000
00FFFFFFFFFFFFFFFFFFFFFFE000
007FFFFFFFFFFFFFFFFFFFFFC000
003FFFFFFFFFFFFFFFFFFFFF8000
001FFFFFFFFFFFFFFFFFFFFF0000
000FFFFFFFFFFFFFFFFFFFFE0000
0007FFFFFFFFFFFFFFFFFFFC0000
0003FFFFFFFFFFFFFFFFFFF80000
0001FFFFFFFFFFFFFFFFFFF00000
0000FFFFFFFFFFFFFFFFFFE00000
00007FFFFFFFFFFFFFFFFFC00000
00003FFFFFFFFFFFFFFFFF800000
00001FFFFFFFFFFFFFFFFF000000
00000FFFFFFFFFFFFFFFFE000000
000007FFFFFFFFFFFFFFFC000000
000003FFFFFFFFFFFFFFF8000000
ENDCHAR
STARTCHAR 0039
ENCODING 57
SWIDTH 711 0
DWIDTH 121 0
BBX 111 142 0 0
BITMAP
000003FFFFFFFFFFFFFFFF000000
000007FFFFFFFFFFFFFFFF800000
00000FFFFFFFFFFFFFFFFFE00000
00001FFFFFFFFFFFFFFFFFF00000
00003FFFFFFFFFFFFFFFFFF80000
00007FFFFFFFFFFFFFFFFFFC0000
0000FFFFFFFFFFFFFFFFFFFE0000
0001FFFFFFFFFFFFFFFFFFFF0000
0003FFFFFFFFFFFFFFFFFFFF8000
0007FFFFFFFFFFFFFFFFFFFFC000
000FFFFFFFFFFFFFFFFFFFFFE000
001FFFFFFFFFFFFFFFFFFFFFF000
003FFFFFFFFFFFFFFFFFFFFFF800
007FFFFFFFFFFFFFFFFFFFFFFC00
00FFFFFFFFFFFFFFFFFFFFFFFE00
01FFFFFFFFFFFFFFFFFFFFFFFF00
03FFFFFFFFFFFFFFFFFFFFFFFF80
07FFFFFFFFFFFFFFFFFFFFFFFFC0
0FFFFFFFFFFFFFFFFFFFFFFFFFE0
1FFFFFFFFFFFFFFFFFFFFFFFFFF0
3FFFFFFFFFFFFFFFFFFFFFFFFFF8
7FFFFFFFFFFFFFFFFFFFFFFFFFFC
FFFFFFFFFFFFFFFFFFFFFFFFFFFE
FFFFFFFFFFFFFFFFFFFFFFFFFFFE
FFFFFFFFFFFFFFFFFFFFFFFFFFFE
FFFFFFFFFFFFFFFFFFFFFFFFFFFE
FFFFFFFFFFFFFFFFFFFFFFFFFFFE
FFFFFFFFFFFFFFFFFFFFFFFFFFFE
FFFFFFFFFFFFFFFFFFFFFFFFFFFE
FFFFFFFFFFFFFFFFFFFFFFFFFFFE
FFFFFFFFFFFFFFFFFFFFFFFFFFFE
FFFFFFFFFFFFFFFFFFFFFFFFFFFE
FFFFFFFFFFE000000FFFFFFFFFFE
FFFFFFFFFFC0000007FFFFFFFFFE
FFFFFFFFFF80000003FFFFFFFFFE
FFFFFFFFFF00000001FFFFFFFFFE
FFFFFFFFFE00000000FFFFFFFFFE
FFFFFFFFFE00000000FFFFFFFFFE
FFFFFFFFFE00000000FFFFFFFFFE
FFFFFFFFFE00000000FFFFFFFFFE
FFFFFFFFFE00000000FFFFFFFFFE
FFFFFFFFFE00000000FFFFFFFFFE
FFFFFFFFFE00000000FFFFFFFFFE
FFFFFFFFFE00000000FFFFFFFFFE
FFFFFFFFFE00000000FFFFFFFFFE
FFFFFFFFFE00000000FFFFFFFFFE
FFFFFFFFFE00000000FFFFFFFFFE
FFFFFFFFFE00000000FFFFFFFFFE
FFFFFFFFFE00000000FFFFFFFFFE
FFFFFFFFFF00000001FFFFFFFFFE
FFFFFFFFFF80000003FFFFFFFFFE
FFFFFFFFFFC0000007FFFFFFFFFE
FFFFFFFFFFE000000FFFFFFFFFFE
FFFFFFFFFFFFFFFFFFFFFFFFFFFE
FFFFFFFFFFFFFFFFFFFFFFFFFFFE
FFFFFFFFFFFFFFFFFFFFFFFFFFFE
FFFFFFFFFFFFFFFFFFFFFFFFFFFE
FFFFFFFFFFFFFFFFFFFFFFFFFFFE
FFFFFFFFFFFFFFFFFFFFFFFFFFFE
FFFFFFFFFFFFFFFFFFFFFFFFFFFE
FFFFFFFFFFFFFFFFFFFFFFFFFFFE
FFFFFFFFFFFFFFFFFFFFFFFFFFFE
FFFFFFFFFFFFFFFFFFFFFFFFFFFE
7FFFFFFFFFFFFFFFFFFFFFFFFFFE
3FFFFFFFFFFFFFFFFFFFFFFFFFFE
1FFFFFFFFFFFFFFFFFFFFFFFFFFE
0FFFFFFFFFFFFFFFFFFFFFFFFFFE
07FFFFFFFFFFFFFFFFFFFFFFFFFE
03FFFFFFFFFFFFFFFFFFFFFFFFFE
01FFFFFFFFFFFFFFFFFFFFFFFFFE
00FFFFFFFFFFFFFFFFFFFFFFFFFE
007FFFFFFFFFFFFFFFFFFFFFFFFE
003FFFFFFFFFFFFFFFFFFFFFFFFE
001FFFFFFFFFFFFFFFFFFFFFFFFE
000FFFFFFFFFFFFFFFFFFFFFFFFE
0007FFFFFFFFFFFFFFFFFFFFFFFE
0003FFFFFFFFFFFFFFFFFFFFFFFE
0001FFFFFFFFFFFFFFFFFFFFFFFE
0000FFFFFFFFFFFFFFFFFFFFFFFE
00007FFFFFFFFFFFFFFFFFFFFFFE
00003FFFFFFFFFFFFFFFFFFFFFFE
00001FFFFFFFFFFFFFFFFFFFFFFE
00000FFFFFFFFFFFFFFFFFFFFFFE
000007FFFFFFFFFFFFFFFFFFFFFE
000003FFFFFFFFFFFFFFFFFFFFFE
000000000000000000FFFFFFFFFE
000000000000000000FFFFFFFFFE
000000000000000000FFFFFFFFFE
000000000000000000FFFFFFFFFE
000000000000000000FFFFFFFFFE
000000000000000000FFFFFFFFFE
000000000000000000FFFFFFFFFE
000000000000000000FFFFFFFFFE
000000000000000000FFFFFFFFFE
000000000000000000FFFFFFFFFE
000000000000000000FFFFFFFFFE
FFFFFFFFFE00000000FFFFFFFFFE
FFFFFFFFFE00000000FFFFFFFFFE
FFFFFFFFFE00000000FFFFFFFFFE
FFFFFFFFFE00000000FFFFFFFFFE
FFFFFFFFFE00000000FFFFFFFFFE
FFFFFFFFFE00000000FFFFFFFFFE
FFFFFFFFFE00000000FFFFFFFFFE
FFFFFFFFFE00000000FFFFFFFFFE
FFFFFFFFFE00000000FFFFFFFFFE
FFFFFFFFFE00000000FFFFFFFFFE
FFFFFFFFFF00000001FFFFFFFFFE
FFFFFFFFFF80000003FFFFFFFFFE
FFFFFFFFFFC0000007FFFFFFFFFE
FFFFFFFFFFE000000FFFFFFFFFFE
FFFFFFFFFFFFFFFFFFFFFFFFFFFE
FFFFFFFFFFFFFFFFFFFFFFFFFFFE
FFFFFFFFFFFFFFFFFFFFFFFFFFFE
FFFFFFFFFFFFFFFFFFFFFFFFFFFE
FFFFFFFFFFFFFFFFFFFFFFFFFFFE
FFFFFFFFFFFFFFFFFFFFFFFFFFFE
FFFFFFFFFFFFFFFFFFFFFFFFFFFE
FFFFFFFFFFFFFFFFFFFFFFFFFFFE
FFFFFFFFFFFFFFFFFFFFFFFFFFFE
FFFFFFFFFFFFFFFFFFFFFFFFFFFE
7FFFFFFFFFFFFFFFFFFFFFFFFFFC
3FFFFFFFFFFFFFFFFFFFFFFFFFF8
1FFFFFFFFFFFFFFFFFFFFFFFFFF0
0FFFFFFFFFFFFFFFFFFFFFFFFFE0
07FFFFFFFFFFFFFFFFFFFFFFFFC0
03FFFFFFFFFFFFFFFFFFFFFFFF80
01FFFFFFFFFFFFFFFFFFFFFFFF00
00FFFFFFFFFFFFFFFFFFFFFFFE00
007FFFFFFFFFFFFFFFFFFFFFFC00
003FFFFFFFFFFFFFFFFFFFFFF800
001FFFFFFFFFFFFFFFFFFFFFF000
000FFFFFFFFFFFFFFFFFFFFFE000
0007FFFFFFFFFFFFFFFFFFFFC000
0003FFFFFFFFFFFFFFFFFFFF8000
0001FFFFFFFFFFFFFFFFFFFF0000
0000FFFFFFFFFFFFFFFFFFFE0000
00007FFFFFFFFFFFFFFFFFFC0000
00003FFFFFFFFFFFFFFFFFF80000
00001FFFFFFFFFFFFFFFFFF00000
00000FFFFFFFFFFFFFFFFFE00000
000007FFFFFFFFFFFFFFFFC00000
000003FFFFFFFFFFFFFFFF800000
ENDCHAR
STARTCHAR 003A
ENCODING 58
SWIDTH 288 0
DWIDTH 49 0
BBX 39 114 0 0
BITMAP
FFFFFFFFFE
FFFFFFFFFE
FFFFFFFFFE
FFFFFFFFFE
FFFFFFFFFE
FFFFFFFFFE
FFFFFFFFFE
FFFFFFFFFE
FFFFFFFFFE
FFFFFFFFFE
FFFFFFFFFE
FFFFFFFFFE
FFFFFFFFFE
FFFFFFFFFE
FFFFFFFFFE
FFFFFFFFFE
FFFFFFFFFE
FFFFFFFFFE
FFFFFFFFFE
FFFFFFFFFE
FFFFFFFFFE
FFFFFFFFFE
FFFFFFFFFE
FFFFFFFFFE
FFFFFFFFFE
FFFFFFFFFE
FFFFFFFFFE
FFFFFFFFFE
FFFFFFFFFE
FFFFFFFFFE
FFFFFFFFFE
FFFFFFFFFE
0000000000
0000000000
0000000000
0000000000
0000000000
0000000000
0000000000
0000000000
0000000000
0000000000
0000000000
0000000000
0000000000
0000000000
0000000000
0000000000
0000000000
0000000000
0000000000
0000000000
0000000000
0000000000
0000000000
0000000000
0000000000
0000000000
0000000000
0000000000
0000000000
0000000000
0000000000
0000000000
0000000000
0000000000
0000000000
0000000000
0000000000
0000000000
0000000000
0000000000
0000000000
0000000000
0000000000
0000000000
0000000000
0000000000
0000000000
0000000000
0000000000
0000000000
FFFFFFFFFE
FFFFFFFFFE
FFFFFFFFFE
FFFFFFFFFE
FFFFFFFFFE
FFFFFFFFFE
FFFFFFFFFE
FFFFFFFFFE
FFFFFFFFFE
FFFFFFFFFE
FFFFFFFFFE
FFFFFFFFFE
FFFFFFFFFE
FFFFFFFFFE
FFFFFFFFFE
FFFFFFFFFE
FFFFFFFFFE
FFFFFFFFFE
FFFFFFFFFE
FFFFFFFFFE
FFFFFFFFFE
FFFFFFFFFE
FFFFFFFFFE
FFFFFFFFFE
FFFFFFFFFE
FFFFFFFFFE
FFFFFFFFFE
FFFFFFFFFE
FFFFFFFFFE
FFFFFFFFFE
FFFFFFFFFE
FFFFFFFFFE
ENDCHAR
STARTCHAR 003B
ENCODING 59
SWIDTH 288 0
DWIDTH 49 0
BBX 39 140 0 -26
BITMAP
FFFFFFFFFE
FFFFFFFFFE
FFFFFFFFFE
FFFFFFFFFE
FFFFFFFFFE
FFFFFFFFFE
FFFFFFFFFE
FFFFFFFFFE
FFFFFFFFFE
FFFFFFFFFE
FFFFFFFFFE
FFFFFFFFFE
FFFFFFFFFE
FFFFFFFFFE
FFFFFFFFFE
FFFFFFFFFE
FFFFFFFFFE
FFFFFFFFFE
FFFFFFFFFE
FFFFFFFFFE
FFFFFFFFFE
FFFFFFFFFE
FFFFFFFFFE
FFFFFFFFFE
FFFFFFFFFE
FFFFFFFFFE
FFFFFFFFFE
FFFFFFFFFE
FFFFFFFFFE
FFFFFFFFFE
FFFFFFFFFE
FFFFFFFFFE
0000000000
0000000000
0000000000
0000000000
0000000000
0000000000
0000000000
0000000000
0000000000
0000000000
0000000000
0000000000
0000000000
0000000000
0000000000
0000000000
0000000000
0000000000
0000000000
0000000000
0000000000
0000000000
0000000000
0000000000
0000000000
0000000000
0000000000
0000000000
0000000000
0000000000
0000000000
0000000000
0000000000
0000000000
0000000000
0000000000
0000000000
0000000000
0000000000
0000000000
0000000000
0000000000
0000000000
0000000000
0000000000
0000000000
0000000000
0000000000
0000000000
0000000000
FFFFFFFFFE
FFFFFFFFFE
FFFFFFFFFE
FFFFFFFFFE
FFFFFFFFFE
FFFFFFFFFE
FFFFFFFFFE
FFFFFFFFFE
FFFFFFFFFE
FFFFFFFFFE
FFFFFFFFFE
FFFFFFFFFE
FFFFFFFFFE
FFFFFFFFFE
FFFFFFFFFE
FFFFFFFFFE
FFFFFFFFFE
FFFFFFFFFE
FFFFFFFFFE
FFFFFFFFFE
FFFFFFFFFE
FFFFFFFFFE
FFFFFFFFFE
FFFFFFFFFE
FFFFFFFFFE
FFFFFFFFFE
FFFFFFFFFE
FFFFFFFFFE
FFFFFFFFFE
FFFFFFFFFE
FFFFFFFFFE
FFFFFFFFFE
0007FFFFFE
0007FFFFFC
0007FFFFF8
0007FFFFF0
0007FFFFE0
0007FFFFC0
0007FFFF80
0007FFFF00
0007FFFE00
0007FFFC00
0007FFF800
0007FFF000
0007FFE000
0007FFC000
0007FF8000
0007FF0000
0007FE0000
0007FC0000
0007F80000
0007F00000
0007E00000
0007C00000
0007800000
0007000000
0006000000
0004000000
ENDCHAR
STARTCHAR 003F
ENCODING 63
SWIDTH 635 0
DWIDTH 108 0
BBX 98 142 0 0
BITMAP
000003FFFFFFFFFFFFF0000000
000007FFFFFFFFFFFFF8000000
00000FFFFFFFFFFFFFFC000000
00001FFFFFFFFFFFFFFE000000
00003FFFFFFFFFFFFFFF000000
00007FFFFFFFFFFFFFFF800000
0000FFFFFFFFFFFFFFFFC00000
0001FFFFFFFFFFFFFFFFE00000
0003FFFFFFFFFFFFFFFFF00000
0007FFFFFFFFFFFFFFFFF80000
000FFFFFFFFFFFFFFFFFFC0000
001FFFFFFFFFFFFFFFFFFE0000
003FFFFFFFFFFFFFFFFFFF0000
007FFFFFFFFFFFFFFFFFFF8000
00FFFFFFFFFFFFFFFFFFFFC000
01FFFFFFFFFFFFFFFFFFFFE000
03FFFFFFFFFFFFFFFFFFFFF000
07FFFFFFFFFFFFFFFFFFFFF800
0FFFFFFFFFFFFFFFFFFFFFFC00
1FFFFFFFFFFFFFFFFFFFFFFE00
3FFFFFFFFFFFFFFFFFFFFFFF00
7FFFFFFFFFFFFFFFFFFFFFFF80
FFFFFFFFFFFFFFFFFFFFFFFFC0
FFFFFFFFFFFFFFFFFFFFFFFFC0
FFFFFFFFFFFFFFFFFFFFFFFFC0
FFFFFFFFFFFFFFFFFFFFFFFFC0
FFFFFFFFFFFFFFFFFFFFFFFFC0
FFFFFFFFFFFFFFFFFFFFFFFFC0
FFFFFFFFFFFFFFFFFFFFFFFFC0
FFFFFFFFFFFFFFFFFFFFFFFFC0
FFFFFFFFFFFFFFFFFFFFFFFFC0
FFFFFFFFFFFFFFFFFFFFFFFFC0
FFFFFFFFFFFFFFFFFFFFFFFFC0
FFFFFFFFFFFFFFFFFFFFFFFFC0
FFFFFFFFFFFFFFFFFFFFFFFFC0
FFFFFFFFFFE001FFFFFFFFFFC0
FFFFFFFFFFC000FFFFFFFFFFC0
FFFFFFFFFF80007FFFFFFFFFC0
FFFFFFFFFF00003FFFFFFFFFC0
FFFFFFFFFE00001FFFFFFFFFC0
FFFFFFFFFE00001FFFFFFFFFC0
FFFFFFFFFE00001FFFFFFFFFC0
FFFFFFFFFE00001FFFFFFFFFC0
FFFFFFFFFE00001FFFFFFFFFC0
FFFFFFFFFE00001FFFFFFFFFC0
FFFFFFFFFE00001FFFFFFFFFC0
FFFFFFFFFE00001FFFFFFFFFC0
FFFFFFFFFE00001FFFFFFFFFC0
FFFFFFFFFE00003FFFFFFFFFC0
FFFFFFFFFE00007FFFFFFFFFC0
FFFFFFFFFE0000FFFFFFFFFFC0
00000000000001FFFFFFFFFFC0
00000000000003FFFFFFFFFFC0
00000000000007FFFFFFFFFFC0
0000000000000FFFFFFFFFFFC0
0000000000001FFFFFFFFFFFC0
0000000000003FFFFFFFFFFFC0
0000000000007FFFFFFFFFFFC0
000000000000FFFFFFFFFFFFC0
000000000001FFFFFFFFFFFFC0
000000000003FFFFFFFFFFFFC0
000000000007FFFFFFFFFFFF80
00000000000FFFFFFFFFFFFF00
00000000001FFFFFFFFFFFFE00
00000000003FFFFFFFFFFFFC00
00000000007FFFFFFFFFFFF800
0000000000FFFFFFFFFFFFF000
0000000001FFFFFFFFFFFFE000
0000000003FFFFFFFFFFFFC000
0000000007FFFFFFFFFFFF8000
000000000FFFFFFFFFFFFF0000
000000001FFFFFFFFFFFFE0000
000000003FFFFFFFFFFFFC0000
000000007FFFFFFFFFFFF80000
00000000FFFFFFFFFFFFF00000
00000001FFFFFFFFFFFFE00000
00000003FFFFFFFFFFFFC00000
00000007FFFFFFFFFFFF800000
0000000FFFFFFFFFFFFF000000
0000000FFFFFFFFFFFFE000000
0000000FFFFFFFFFFFFC000000
0000000FFFFFFFFFFFF8000000
0000000FFFFFFFFFFFF0000000
0000000FFFFFFFFFFFE0000000
0000000FFFFFFFFFFFC0000000
0000000FFFFFFFFFFF80000000
0000000FFFFFFFFFFF00000000
0000000FFFFFFFFFFE00000000
0000000FFFFFFFFFFC00000000
0000000FFFFFFFFFFC00000000
0000000FFFFFFFFFFC00000000
0000000FFFFFFFFFFC00000000
0000000FFFFFFFFFFC00000000
0000000FFFFFFFFFFC00000000
0000000FFFFFFFFFFC00000000
0000000FFFFFFFFFFC00000000
0000000FFFFFFFFFFC00000000
0000000FFFFFFFFFFC00000000
0000000FFFFFFFFFFC00000000
0000000FFFFFFFFFFC00000000
0000000FFFFFFFFFFC00000000
0000000FFFFFFFFFFC00000000
0000000FFFFFFFFFFC00000000
00000000000000000000000000
00000000000000000000000000
00000000000000000000000000
00000000000000000000000000
00000000000000000000000000
00000000000000000000000000
00000000000000000000000000
0000000FFFFFFFFFFC00000000
0000000FFFFFFFFFFC00000000
0000000FFFFFFFFFFC00000000
0000000FFFFFFFFFFC00000000
0000000FFFFFFFFFFC00000000
0000000FFFFFFFFFFC00000000
0000000FFFFFFFFFFC00000000
0000000FFFFFFFFFFC00000000
0000000FFFFFFFFFFC00000000
0000000FFFFFFFFFFC00000000
0000000FFFFFFFFFFC00000000
0000000FFFFFFFFFFC00000000
0000000FFFFFFFFFFC00000000
0000000FFFFFFFFFFC00000000
0000000FFFFFFFFFFC00000000
0000000FFFFFFFFFFC00000000
0000000FFFFFFFFFFC00000000
0000000FFFFFFFFFFC00000000
0000000FFFFFFFFFFC00000000
0000000FFFFFFFFFFC00000000
0000000FFFFFFFFFFC00000000
0000000FFFFFFFFFFC00000000
0000000FFFFFFFFFFC00000000
0000000FFFFFFFFFFC00000000
0000000FFFFFFFFFFC00000000
0000000FFFFFFFFFFC00000000
0000000FFFFFFFFFFC00000000
0000000FFFFFFFFFFC00000000
0000000FFFFFFFFFFC00000000
0000000FFFFFFFFFFC00000000
0000000FFFFFFFFFFC00000000
0000000FFFFFFFFFFC00000000
ENDCHAR
STARTCHAR 0041
ENCODING 65
SWIDTH 876 0
DWIDTH 149 0
BBX 141 141 0 1
BITMAP
000000007FFFFFFFFFFFFFFFFFF800000000
000000007FFFFFFFFFFFFFFFFFF800000000
000000007FFFFFFFFFFFFFFFFFF800000000
000000007FFFFFFFFFFFFFFFFFF800000000
000000007FFFFFFFFFFFFFFFFFF800000000
000000007FFFFFFFFFFFFFFFFFF800000000
000000007FFFFFFFFFFFFFFFFFF800000000
000000007FFFFFFFFFFFFFFFFFF800000000
000000007FFFFFFFFFFFFFFFFFF800000000
000000007FFFFFFFFFFFFFFFFFF800000000
000000007FFFFFFFFFFFFFFFFFF800000000
000000007FFFFFFFFFFFFFFFFFF800000000
000000007FFFFFFFFFFFFFFFFFF800000000
000000007FFFFFFFFFFFFFFFFFF800000000
000000007FFFFFFFFFFFFFFFFFF800000000
000000007FFFFFFFFFFFFFFFFFF800000000
000000007FFFFFFFFFFFFFFFFFF800000000
000000007FFFFFFFFFFFFFFFFFF800000000
000000007FFFFFFFFFFFFFFFFFF800000000
000000007FFFFFFFFFFFFFFFFFF800000000
000000007FFFFFFFFFFFFFFFFFF800000000
000000007FFFFFFFFFFFFFFFFFF800000000
000000007FFFFFFFFFFFFFFFFFF800000000
000000007FFFFFFFFFFFFFFFFFF800000000
000000007FFFFFFFFFFFFFFFFFF800000000
000000007FFFFFFFFFFFFFFFFFF800000000
000000007FFFFFFFFFFFFFFFFFF800000000
000000007FFFFFFFFFFFFFFFFFF800000000
000000007FFFFFFFFFFFFFFFFFF800000000
000000007FFFFFFFFFFFFFFFFFF800000000
000000007FFFFFFFFFFFFFFFFFF800000000
000000007FFFFFFFFFFFFFFFFFF800000000
0000000001FFFFFFFFFFFFFFFC0000000000
0000000001FFFFFFFFFFFFFFFC0000000000
0000000003FFFFFFFFFFFFFFFE0000000000
0000000003FFFFFFFFFFFFFFFE0000000000
0000000007FFFFFFFFFFFFFFFE0000000000
0000000007FFFFFFFFFFFFFFFF0000000000
0000000007FFFFFFFFFFFFFFFF0000000000
000000000FFFFFFFFFFFFFFFFF8000000000
000000000FFFFFFFFFFFFFFFFF8000000000
000000001FFFFFFFFFFFFFFFFF8000000000
000000001FFFFFFFFFFFFFFFFFC000000000
000000001FFFFFFFFFFFFFFFFFC000000000
000000003FFFFFFFFFFFFFFFFFE000000000
000000003FFFFFFFFFFFFFFFFFE000000000
000000007FFFFFFFFFFFFFFFFFE000000000
000000007FFFFFFFFFFFFFFFFFF000000000
000000007FFFFFFFFFFFFFFFFFF000000000
00000000FFFFFFFFFFFFFFFFFFF800000000
00000000FFFFFFFFFFFFFFFFFFF800000000
00000001FFFFFFFFFFFFFFFFFFF800000000
00000001FFFFFFFFFFFFFFFFFFFC00000000
00000001FFFFFFFFFFFFFFFFFFFC00000000
00000003FFFFFFFFFDFFFFFFFFFE00000000
00000003FFFFFFFFFDFFFFFFFFFE00000000
00000007FFFFFFFFF9FFFFFFFFFE00000000
00000007FFFFFFFFF8FFFFFFFFFF00000000
00000007FFFFFFFFF0FFFFFFFFFF00000000
0000000FFFFFFFFFF07FFFFFFFFF80000000
0000000FFFFFFFFFF07FFFFFFFFF80000000
0000001FFFFFFFFFE07FFFFFFFFF80000000
0000001FFFFFFFFFE03FFFFFFFFFC0000000
0000001FFFFFFFFFC03FFFFFFFFFC0000000
0000003FFFFFFFFFC01FFFFFFFFFE0000000
0000003FFFFFFFFFC01FFFFFFFFFE0000000
0000007FFFFFFFFF801FFFFFFFFFE0000000
0000007FFFFFFFFF800FFFFFFFFFF0000000
0000007FFFFFFFFF000FFFFFFFFFF0000000
000000FFFFFFFFFF0007FFFFFFFFF8000000
000000FFFFFFFFFF0007FFFFFFFFF8000000
000001FFFFFFFFFE0003FFFFFFFFFC000000
000001FFFFFFFFFE0003FFFFFFFFFC000000
000001FFFFFFFFFC0003FFFFFFFFFC000000
000003FFFFFFFFFC0001FFFFFFFFFE000000
000003FFFFFFFFFC0001FFFFFFFFFE000000
000007FFFFFFFFFFFFFFFFFFFFFFFF000000
000007FFFFFFFFFFFFFFFFFFFFFFFF000000
000007FFFFFFFFFFFFFFFFFFFFFFFF000000
00000FFFFFFFFFFFFFFFFFFFFFFFFF800000
00000FFFFFFFFFFFFFFFFFFFFFFFFF800000
00001FFFFFFFFFFFFFFFFFFFFFFFFFC00000
00001FFFFFFFFFFFFFFFFFFFFFFFFFC00000
00001FFFFFFFFFFFFFFFFFFFFFFFFFC00000
00003FFFFFFFFFFFFFFFFFFFFFFFFFE00000
00003FFFFFFFFFFFFFFFFFFFFFFFFFE00000
00007FFFFFFFFFFFFFFFFFFFFFFFFFF00000
00007FFFFFFFFFFFFFFFFFFFFFFFFFF00000
00007FFFFFFFFFFFFFFFFFFFFFFFFFF00000
0000FFFFFFFFFFFFFFFFFFFFFFFFFFF80000
0000FFFFFFFFFFFFFFFFFFFFFFFFFFF80000
0001FFFFFFFFFFFFFFFFFFFFFFFFFFFC0000
0001FFFFFFFFFFFFFFFFFFFFFFFFFFFC0000
0001FFFFFFFFFFFFFFFFFFFFFFFFFFFC0000
0003FFFFFFFFFFFFFFFFFFFFFFFFFFFE0000
0003FFFFFFFFFFFFFFFFFFFFFFFFFFFE0000
0007FFFFFFFFFFFFFFFFFFFFFFFFFFFF0000
0007FFFFFFFFFFFFFFFFFFFFFFFFFFFF0000
0007FFFFFFFFFFFFFFFFFFFFFFFFFFFF0000
000FFFFFFFFFFFFFFFFFFFFFFFFFFFFF8000
000FFFFFFFFFFFFFFFFFFFFFFFFFFFFF8000
001FFFFFFFFFFFFFFFFFFFFFFFFFFFFFC000
001FFFFFFFFFFFFFFFFFFFFFFFFFFFFFC000
001FFFFFFFFFFC000000007FFFFFFFFFC000
003FFFFFFFFFFC000000003FFFFFFFFFE000
003FFFFFFFFFFC000000003FFFFFFFFFE000
007FFFFFFFFFFC000000003FFFFFFFFFF000
007FFFFFFFFFFC000000001FFFFFFFFFF000
007FFFFFFFFFFC000000001FFFFFFFFFF000
FFFFFFFFFFFFFC00000001FFFFFFFFFFFFF8
FFFFFFFFFFFFFC00000001FFFFFFFFFFFFF8
FFFFFFFFFFFFFC00000001FFFFFFFFFFFFF8
FFFFFFFFFFFFFC00000001FFFFFFFFFFFFF8
FFFFFFFFFFFFFC00000001FFFFFFFFFFFFF8
FFFFFFFFFFFFFC00000001FFFFFFFFFFFFF8
FFFFFFFFFFFFFC00000001FFFFFFFFFFFFF8
FFFFFFFFFFFFFC00000001FFFFFFFFFFFFF8
FFFFFFFFFFFFFC00000001FFFFFFFFFFFFF8
FFFFFFFFFFFFFC00000001FFFFFFFFFFFFF8
FFFFFFFFFFFFFC00000001FFFFFFFFFFFFF8
FFFFFFFFFFFFFC00000001FFFFFFFFFFFFF8
FFFFFFFFFFFFFC00000001FFFFFFFFFFFFF8
FFFFFFFFFFFFFC00000001FFFFFFFFFFFFF8
FFFFFFFFFFFFFC00000001FFFFFFFFFFFFF8
FFFFFFFFFFFFFC00000001FFFFFFFFFFFFF8
FFFFFFFFFFFFFC00000001FFFFFFFFFFFFF8
FFFFFFFFFFFFFC00000001FFFFFFFFFFFFF8
FFFFFFFFFFFFFC00000001FFFFFFFFFFFFF8
FFFFFFFFFFFFFC00000001FFFFFFFFFFFFF8
FFFFFFFFFFFFFC00000001FFFFFFFFFFFFF8
FFFFFFFFFFFFFC00000001FFFFFFFFFFFFF8
FFFFFFFFFFFFFC00000001FFFFFFFFFFFFF8
FFFFFFFFFFFFFC00000001FFFFFFFFFFFFF8
FFFFFFFFFFFFFC00000001FFFFFFFFFFFFF8
FFFFFFFFFFFFFC00000001FFFFFFFFFFFFF8
FFFFFFFFFFFFFC00000001FFFFFFFFFFFFF8
FFFFFFFFFFFFFC00000001FFFFFFFFFFFFF8
FFFFFFFFFFFFFC00000001FFFFFFFFFFFFF8
FFFFFFFFFFFFFC00000001FFFFFFFFFFFFF8
FFFFFFFFFFFFFC00000001FFFFFFFFFFFFF8
FFFFFFFFFFFFFC00000001FFFFFFFFFFFFF8
ENDCHAR
STARTCHAR 0042
ENCODING 66
SWIDTH 705 0
DWIDTH 120 0
BBX 111 142 0 0
BITMAP
FFFFFFFFFFFFFFFFFFFFFF800000
FFFFFFFFFFFFFFFFFFFFFFC00000
FFFFFFFFFFFFFFFFFFFFFFE00000
FFFFFFFFFFFFFFFFFFFFFFF00000
FFFFFFFFFFFFFFFFFFFFFFF80000
FFFFFFFFFFFFFFFFFFFFFFFC0000
FFFFFFFFFFFFFFFFFFFFFFFE0000
FFFFFFFFFFFFFFFFFFFFFFFF0000
FFFFFFFFFFFFFFFFFFFFFFFF8000
FFFFFFFFFFFFFFFFFFFFFFFFC000
FFFFFFFFFFFFFFFFFFFFFFFFE000
FFFFFFFFFFFFFFFFFFFFFFFFF000
FFFFFFFFFFFFFFFFFFFFFFFFF800
FFFFFFFFFFFFFFFFFFFFFFFFFC00
FFFFFFFFFFFFFFFFFFFFFFFFFE00
FFFFFFFFFFFFFFFFFFFFFFFFFF00
FFFFFFFFFFFFFFFFFFFFFFFFFF80
FFFFFFFFFFFFFFFFFFFFFFFFFFC0
FFFFFFFFFFFFFFFFFFFFFFFFFFE0
FFFFFFFFFFFFFFFFFFFFFFFFFFF0
FFFFFFFFFFFFFFFFFFFFFFFFFFF8
FFFFFFFFFFFFFFFFFFFFFFFFFFFC
FFFFFFFFFFFFFFFFFFFFFFFFFFFE
FFFFFFFFFFFFFFFFFFFFFFFFFFFE
FFFFFFFFFFFFFFFFFFFFFFFFFFFE
FFFFFFFFFFFFFFFFFFFFFFFFFFFE
FFFFFFFFFFFFFFFFFFFFFFFFFFFE
FFFFFFFFFFFFFFFFFFFFFFFFFFFE
FFFFFFFFFFFFFFFFFFFFFFFFFFFE
FFFFFFFFFFFFFFFFFFFFFFFFFFFE
FFFFFFFFFFFFFFFFFFFFFFFFFFFE
FFFFFFFFFFFFFFFFFFFFFFFFFFFE
007FFFFFFFFF00000FFFFFFFFFFE
007FFFFFFFFF000007FFFFFFFFFE
007FFFFFFFFF000003FFFFFFFFFE
007FFFFFFFFF000001FFFFFFFFFE
007FFFFFFFFF000000FFFFFFFFFE
007FFFFFFFFF000000FFFFFFFFFE
007FFFFFFFFF000000FFFFFFFFFE
007FFFFFFFFF000000FFFFFFFFFE
007FFFFFFFFF000000FFFFFFFFFE
007FFFFFFFFF000000FFFFFFFFFE
007FFFFFFFFF000000FFFFFFFFFE
007FFFFFFFFF000000FFFFFFFFFE
007FFFFFFFFF000000FFFFFFFFFE
007FFFFFFFFF000000FFFFFFFFFE
007FFFFFFFFF000000FFFFFFFFFE
007FFFFFFFFF000000FFFFFFFFFE
007FFFFFFFFF000001FFFFFFFFFE
007FFFFFFFFF000003FFFFFFFFFE
007FFFFFFFFF000007FFFFFFFFFE
007FFFFFFFFF00000FFFFFFFFFFE
007FFFFFFFFF00001FFFFFFFFFFE
007FFFFFFFFFFFFFFFFFFFFFFFFE
007FFFFFFFFFFFFFFFFFFFFFFFFE
007FFFFFFFFFFFFFFFFFFFFFFFFE
007FFFFFFFFFFFFFFFFFFFFFFFFE
007FFFFFFFFFFFFFFFFFFFFFFFFE
007FFFFFFFFFFFFFFFFFFFFFFFFE
007FFFFFFFFFFFFFFFFFFFFFFFFC
007FFFFFFFFFFFFFFFFFFFFFFFF8
007FFFFFFFFFFFFFFFFFFFFFFFF0
007FFFFFFFFFFFFFFFFFFFFFFFE0
007FFFFFFFFFFFFFFFFFFFFFFFC0
007FFFFFFFFFFFFFFFFFFFFFFF80
007FFFFFFFFFFFFFFFFFFFFFFF00
007FFFFFFFFFFFFFFFFFFFFFFE00
007FFFFFFFFFFFFFFFFFFFFFFC00
007FFFFFFFFFFFFFFFFFFFFFFC00
007FFFFFFFFFFFFFFFFFFFFFFE00
007FFFFFFFFFFFFFFFFFFFFFFF00
007FFFFFFFFFFFFFFFFFFFFFFF80
007FFFFFFFFFFFFFFFFFFFFFFFC0
007FFFFFFFFFFFFFFFFFFFFFFFE0
007FFFFFFFFFFFFFFFFFFFFFFFF0
007FFFFFFFFFFFFFFFFFFFFFFFF8
007FFFFFFFFFFFFFFFFFFFFFFFFC
007FFFFFFFFFFFFFFFFFFFFFFFFE
007FFFFFFFFFFFFFFFFFFFFFFFFE
007FFFFFFFFFFFFFFFFFFFFFFFFE
007FFFFFFFFFFFFFFFFFFFFFFFFE
007FFFFFFFFFFFFFFFFFFFFFFFFE
007FFFFFFFFFFFFFFFFFFFFFFFFE
007FFFFFFFFFFFFFFFFFFFFFFFFE
007FFFFFFFFF00001FFFFFFFFFFE
007FFFFFFFFF00000FFFFFFFFFFE
007FFFFFFFFF000007FFFFFFFFFE
007FFFFFFFFF000003FFFFFFFFFE
007FFFFFFFFF000001FFFFFFFFFE
007FFFFFFFFF000000FFFFFFFFFE
007FFFFFFFFF000000FFFFFFFFFE
007FFFFFFFFF000000FFFFFFFFFE
007FFFFFFFFF000000FFFFFFFFFE
007FFFFFFFFF000000FFFFFFFFFE
007FFFFFFFFF000000FFFFFFFFFE
007FFFFFFFFF000000FFFFFFFFFE
007FFFFFFFFF000000FFFFFFFFFE
007FFFFFFFFF000000FFFFFFFFFE
007FFFFFFFFF000000FFFFFFFFFE
007FFFFFFFFF000000FFFFFFFFFE
007FFFFFFFFF000000FFFFFFFFFE
007FFFFFFFFF000000FFFFFFFFFE
007FFFFFFFFF000000FFFFFFFFFE
007FFFFFFFFF000000FFFFFFFFFE
007FFFFFFFFF000000FFFFFFFFFE
007FFFFFFFFF000000FFFFFFFFFE
007FFFFFFFFF000001FFFFFFFFFE
007FFFFFFFFF000003FFFFFFFFFE
007FFFFFFFFF000007FFFFFFFFFE
007FFFFFFFFF00000FFFFFFFFFFE
FFFFFFFFFFFFFFFFFFFFFFFFFFFE
FFFFFFFFFFFFFFFFFFFFFFFFFFFE
FFFFFFFFFFFFFFFFFFFFFFFFFFFE
FFFFFFFFFFFFFFFFFFFFFFFFFFFE
FFFFFFFFFFFFFFFFFFFFFFFFFFFE
FFFFFFFFFFFFFFFFFFFFFFFFFFFE
FFFFFFFFFFFFFFFFFFFFFFFFFFFE
FFFFFFFFFFFFFFFFFFFFFFFFFFFE
FFFFFFFFFFFFFFFFFFFFFFFFFFFE
FFFFFFFFFFFFFFFFFFFFFFFFFFFE
FFFFFFFFFFFFFFFFFFFFFFFFFFFC
FFFFFFFFFFFFFFFFFFFFFFFFFFF8
FFFFFFFFFFFFFFFFFFFFFFFFFFF0
FFFFFFFFFFFFFFFFFFFFFFFFFFE0
FFFFFFFFFFFFFFFFFFFFFFFFFFC0
FFFFFFFFFFFFFFFFFFFFFFFFFF80
FFFFFFFFFFFFFFFFFFFFFFFFFF00
FFFFFFFFFFFFFFFFFFFFFFFFFE00
FFFFFFFFFFFFFFFFFFFFFFFFFC00
FFFFFFFFFFFFFFFFFFFFFFFFF800
FFFFFFFFFFFFFFFFFFFFFFFFF000
FFFFFFFFFFFFFFFFFFFFFFFFE000
FFFFFFFFFFFFFFFFFFFFFFFFC000
FFFFFFFFFFFFFFFFFFFFFFFF8000
FFFFFFFFFFFFFFFFFFFFFFFF0000
FFFFFFFFFFFFFFFFFFFFFFFE0000
FFFFFFFFFFFFFFFFFFFFFFFC0000
FFFFFFFFFFFFFFFFFFFFFFF80000
FFFFFFFFFFFFFFFFFFFFFFF00000
FFFFFFFFFFFFFFFFFFFFFFE00000
FFFFFFFFFFFFFFFFFFFFFFC00000
FFFFFFFFFFFFFFFFFFFFFF800000
ENDCHAR
STARTCHAR 0043
ENCODING 67
SWIDTH 700 0
DWIDTH 119 0
BBX 108 142 0 0
BITMAP
000003FFFFFFFFFFFFFFF8000000
000007FFFFFFFFFFFFFFFC000000
00000FFFFFFFFFFFFFFFFE000000
00001FFFFFFFFFFFFFFFFF000000
00003FFFFFFFFFFFFFFFFF800000
00007FFFFFFFFFFFFFFFFFC00000
0000FFFFFFFFFFFFFFFFFFE00000
0001FFFFFFFFFFFFFFFFFFF00000
0003FFFFFFFFFFFFFFFFFFF80000
0007FFFFFFFFFFFFFFFFFFFC0000
000FFFFFFFFFFFFFFFFFFFFE0000
001FFFFFFFFFFFFFFFFFFFFF0000
003FFFFFFFFFFFFFFFFFFFFF8000
007FFFFFFFFFFFFFFFFFFFFFC000
00FFFFFFFFFFFFFFFFFFFFFFE000
01FFFFFFFFFFFFFFFFFFFFFFF000
03FFFFFFFFFFFFFFFFFFFFFFF800
07FFFFFFFFFFFFFFFFFFFFFFFC00
0FFFFFFFFFFFFFFFFFFFFFFFFE00
1FFFFFFFFFFFFFFFFFFFFFFFFF00
3FFFFFFFFFFFFFFFFFFFFFFFFF80
7FFFFFFFFFFFFFFFFFFFFFFFFFC0
FFFFFFFFFFFFFFFFFFFFFFFFFFE0
FFFFFFFFFFFFFFFFFFFFFFFFFFF0
FFFFFFFFFFFFFFFFFFFFFFFFFFF0
FFFFFFFFFFFFFFFFFFFFFFFFFFF0
FFFFFFFFFFFFFFFFFFFFFFFFFFF0
FFFFFFFFFFFFFFFFFFFFFFFFFFF0
FFFFFFFFFFFFFFFFFFFFFFFFFFF0
FFFFFFFFFFFFFFFFFFFFFFFFFFF0
FFFFFFFFFFFFFFFFFFFFFFFFFFF0
FFFFFFFFFFFFFFFFFFFFFFFFFFF0
FFFFFFFFFFE000007FFFFFFFFFF0
FFFFFFFFFFC000003FFFFFFFFFF0
FFFFFFFFFF8000001FFFFFFFFFF0
FFFFFFFFFF0000000FFFFFFFFFF0
FFFFFFFFFE00000007FFFFFFFFF0
FFFFFFFFFE00000007FFFFFFFFF0
FFFFFFFFFE00000007FFFFFFFFF0
FFFFFFFFFE00000007FFFFFFFFF0
FFFFFFFFFE00000007FFFFFFFFF0
FFFFFFFFFE00000007FFFFFFFFF0
FFFFFFFFFE00000007FFFFFFFFF0
FFFFFFFFFE00000007FFFFFFFFF0
FFFFFFFFFE00000007FFFFFFFFF0
FFFFFFFFFE00000007FFFFFFFFF0
FFFFFFFFFE00000007FFFFFFFFF0
FFFFFFFFFE00000007FFFFFFFFF0
FFFFFFFFFE00000007FFFFFFFFF0
FFFFFFFFFE00000007FFFFFFFFF0
FFFFFFFFFE00000007FFFFFFFFF0
FFFFFFFFFE00000007FFFFFFFFF0
FFFFFFFFFE00000007FFFFFFFFF0
FFFFFFFFFE00000007FFFFFFFFF0
FFFFFFFFFE00000007FFFFFFFFF0
FFFFFFFFFE000000000000000000
FFFFFFFFFE000000000000000000
FFFFFFFFFE000000000000000000
FFFFFFFFFE000000000000000000
FFFFFFFFFE000000000000000000
FFFFFFFFFE000000000000000000
FFFFFFFFFE000000000000000000
FFFFFFFFFE000000000000000000
FFFFFFFFFE000000000000000000
FFFFFFFFFE000000000000000000
FFFFFFFFFE000000000000000000
FFFFFFFFFE000000000000000000
FFFFFFFFFE000000000000000000
FFFFFFFFFE000000000000000000
FFFFFFFFFE000000000000000000
FFFFFFFFFE000000000000000000
FFFFFFFFFE000000000000000000
FFFFFFFFFE000000000000000000
FFFFFFFFFE000000000000000000
FFFFFFFFFE000000000000000000
FFFFFFFFFE000000000000000000
FFFFFFFFFE000000000000000000
FFFFFFFFFE000000000000000000
FFFFFFFFFE000000000000000000
FFFFFFFFFE000000000000000000
FFFFFFFFFE000000000000000000
FFFFFFFFFE000000000000000000
FFFFFFFFFE000000000000000000
FFFFFFFFFE000000000000000000
FFFFFFFFFE000000000000000000
FFFFFFFFFE000000000000000000
FFFFFFFFFE000000000000000000
FFFFFFFFFE000000000000000000
FFFFFFFFFE000000000000000000
FFFFFFFFFE00000007FFFFFFFFF0
FFFFFFFFFE00000007FFFFFFFFF0
FFFFFFFFFE00000007FFFFFFFFF0
FFFFFFFFFE00000007FFFFFFFFF0
FFFFFFFFFE00000007FFFFFFFFF0
FFFFFFFFFE00000007FFFFFFFFF0
FFFFFFFFFE00000007FFFFFFFFF0
FFFFFFFFFE00000007FFFFFFFFF0
FFFFFFFFFE00000007FFFFFFFFF0
FFFFFFFFFE00000007FFFFFFFFF0
FFFFFFFFFE00000007FFFFFFFFF0
FFFFFFFFFE00000007FFFFFFFFF0
FFFFFFFFFE00000007FFFFFFFFF0
FFFFFFFFFE00000007FFFFFFFFF0
FFFFFFFFFE00000007FFFFFFFFF0
FFFFFFFFFE00000007FFFFFFFFF0
FFFFFFFFFE00000007FFFFFFFFF0
FFFFFFFFFF0000000FFFFFFFFFF0
FFFFFFFFFF8000001FFFFFFFFFF0
FFFFFFFFFFC000003FFFFFFFFFF0
FFFFFFFFFFE000007FFFFFFFFFF0
FFFFFFFFFFFFFFFFFFFFFFFFFFF0
FFFFFFFFFFFFFFFFFFFFFFFFFFF0
FFFFFFFFFFFFFFFFFFFFFFFFFFF0
FFFFFFFFFFFFFFFFFFFFFFFFFFF0
FFFFFFFFFFFFFFFFFFFFFFFFFFF0
FFFFFFFFFFFFFFFFFFFFFFFFFFF0
FFFFFFFFFFFFFFFFFFFFFFFFFFF0
FFFFFFFFFFFFFFFFFFFFFFFFFFF0
FFFFFFFFFFFFFFFFFFFFFFFFFFF0
FFFFFFFFFFFFFFFFFFFFFFFFFFF0
7FFFFFFFFFFFFFFFFFFFFFFFFFE0
3FFFFFFFFFFFFFFFFFFFFFFFFFC0
1FFFFFFFFFFFFFFFFFFFFFFFFF80
0FFFFFFFFFFFFFFFFFFFFFFFFF00
07FFFFFFFFFFFFFFFFFFFFFFFE00
03FFFFFFFFFFFFFFFFFFFFFFFC00
01FFFFFFFFFFFFFFFFFFFFFFF800
00FFFFFFFFFFFFFFFFFFFFFFF000
007FFFFFFFFFFFFFFFFFFFFFE000
003FFFFFFFFFFFFFFFFFFFFFC000
001FFFFFFFFFFFFFFFFFFFFF8000
000FFFFFFFFFFFFFFFFFFFFF0000
0007FFFFFFFFFFFFFFFFFFFE0000
0003FFFFFFFFFFFFFFFFFFFC0000
0001FFFFFFFFFFFFFFFFFFF80000
0000FFFFFFFFFFFFFFFFFFF00000
00007FFFFFFFFFFFFFFFFFE00000
00003FFFFFFFFFFFFFFFFFC00000
00001FFFFFFFFFFFFFFFFF800000
00000FFFFFFFFFFFFFFFFF000000
000007FFFFFFFFFFFFFFFE000000
000003FFFFFFFFFFFFFFFC000000
ENDCHAR
STARTCHAR 0044
ENCODING 68
SWIDTH 711 0
DWIDTH 121 0
BBX 111 142 0 0
BITMAP
FFFFFFFFFFFFFFFFFFFFFF800000
FFFFFFFFFFFFFFFFFFFFFFC00000
FFFFFFFFFFFFFFFFFFFFFFE00000
FFFFFFFFFFFFFFFFFFFFFFF00000
FFFFFFFFFFFFFFFFFFFFFFF80000
FFFFFFFFFFFFFFFFFFFFFFFC0000
FFFFFFFFFFFFFFFFFFFFFFFE0000
FFFFFFFFFFFFFFFFFFFFFFFF0000
FFFFFFFFFFFFFFFFFFFFFFFF8000
FFFFFFFFFFFFFFFFFFFFFFFFC000
FFFFFFFFFFFFFFFFFFFFFFFFE000
FFFFFFFFFFFFFFFFFFFFFFFFF000
FFFFFFFFFFFFFFFFFFFFFFFFF800
FFFFFFFFFFFFFFFFFFFFFFFFFC00
FFFFFFFFFFFFFFFFFFFFFFFFFE00
FFFFFFFFFFFFFFFFFFFFFFFFFF00
FFFFFFFFFFFFFFFFFFFFFFFFFF80
FFFFFFFFFFFFFFFFFFFFFFFFFFC0
FFFFFFFFFFFFFFFFFFFFFFFFFFE0
FFFFFFFFFFFFFFFFFFFFFFFFFFF0
FFFFFFFFFFFFFFFFFFFFFFFFFFF8
FFFFFFFFFFFFFFFFFFFFFFFFFFFC
FFFFFFFFFFFFFFFFFFFFFFFFFFFE
FFFFFFFFFFFFFFFFFFFFFFFFFFFE
FFFFFFFFFFFFFFFFFFFFFFFFFFFE
FFFFFFFFFFFFFFFFFFFFFFFFFFFE
FFFFFFFFFFFFFFFFFFFFFFFFFFFE
FFFFFFFFFFFFFFFFFFFFFFFFFFFE
FFFFFFFFFFFFFFFFFFFFFFFFFFFE
FFFFFFFFFFFFFFFFFFFFFFFFFFFE
FFFFFFFFFFFFFFFFFFFFFFFFFFFE
FFFFFFFFFFFFFFFFFFFFFFFFFFFE
007FFFFFFFFF00000FFFFFFFFFFE
007FFFFFFFFF000007FFFFFFFFFE
007FFFFFFFFF000003FFFFFFFFFE
007FFFFFFFFF000001FFFFFFFFFE
007FFFFFFFFF000000FFFFFFFFFE
007FFFFFFFFF000000FFFFFFFFFE
007FFFFFFFFF000000FFFFFFFFFE
007FFFFFFFFF000000FFFFFFFFFE
007FFFFFFFFF000000FFFFFFFFFE
007FFFFFFFFF000000FFFFFFFFFE
007FFFFFFFFF000000FFFFFFFFFE
007FFFFFFFFF000000FFFFFFFFFE
007FFFFFFFFF000000FFFFFFFFFE
007FFFFFFFFF000000FFFFFFFFFE
007FFFFFFFFF000000FFFFFFFFFE
007FFFFFFFFF000000FFFFFFFFFE
007FFFFFFFFF000000FFFFFFFFFE
007FFFFFFFFF000000FFFFFFFFFE
007FFFFFFFFF000000FFFFFFFFFE
007FFFFFFFFF000000FFFFFFFFFE
007FFFFFFFFF000000FFFFFFFFFE
007FFFFFFFFF000000FFFFFFFFFE
007FFFFFFFFF000000FFFFFFFFFE
007FFFFFFFFF000000FFFFFFFFFE
007FFFFFFFFF000000FFFFFFFFFE
007FFFFFFFFF000000FFFFFFFFFE
007FFFFFFFFF000000FFFFFFFFFE
007FFFFFFFFF000000FFFFFFFFFE
007FFFFFFFFF000000FFFFFFFFFE
007FFFFFFFFF000000FFFFFFFFFE
007FFFFFFFFF000000FFFFFFFFFE
007FFFFFFFFF000000FFFFFFFFFE
007FFFFFFFFF000000FFFFFFFFFE
007FFFFFFFFF000000FFFFFFFFFE
007FFFFFFFFF000000FFFFFFFFFE
007FFFFFFFFF000000FFFFFFFFFE
007FFFFFFFFF000000FFFFFFFFFE
007FFFFFFFFF000000FFFFFFFFFE
007FFFFFFFFF000000FFFFFFFFFE
007FFFFFFFFF000000FFFFFFFFFE
007FFFFFFFFF000000FFFFFFFFFE
007FFFFFFFFF000000FFFFFFFFFE
007FFFFFFFFF000000FFFFFFFFFE
007FFFFFFFFF000000FFFFFFFFFE
007FFFFFFFFF000000FFFFFFFFFE
007FFFFFFFFF000000FFFFFFFFFE
007FFFFFFFFF000000FFFFFFFFFE
007FFFFFFFFF000000FFFFFFFFFE
007FFFFFFFFF000000FFFFFFFFFE
007FFFFFFFFF000000FFFFFFFFFE
007FFFFFFFFF000000FFFFFFFFFE
007FFFFFFFFF000000FFFFFFFFFE
007FFFFFFFFF000000FFFFFFFFFE
007FFFFFFFFF000000FFFFFFFFFE
007FFFFFFFFF000000FFFFFFFFFE
007FFFFFFFFF000000FFFFFFFFFE
007FFFFFFFFF000000FFFFFFFFFE
007FFFFFFFFF000000FFFFFFFFFE
007FFFFFFFFF000000FFFFFFFFFE
007FFFFFFFFF000000FFFFFFFFFE
007FFFFFFFFF000000FFFFFFFFFE
007FFFFFFFFF000000FFFFFFFFFE
007FFFFFFFFF000000FFFFFFFFFE
007FFFFFFFFF000000FFFFFFFFFE
007FFFFFFFFF000000FFFFFFFFFE
007FFFFFFFFF000000FFFFFFFFFE
007FFFFFFFFF000000FFFFFFFFFE
007FFFFFFFFF000000FFFFFFFFFE
007FFFFFFFFF000000FFFFFFFFFE
007FFFFFFFFF000000FFFFFFFFFE
007FFFFFFFFF000000FFFFFFFFFE
007FFFFFFFFF000000FFFFFFFFFE
007FFFFFFFFF000000FFFFFFFFFE
007FFFFFFFFF000000FFFFFFFFFE
007FFFFFFFFF000001FFFFFFFFFE
007FFFFFFFFF000003FFFFFFFFFE
007FFFFFFFFF000007FFFFFFFFFE
007FFFFFFFFF00000FFFFFFFFFFE
FFFFFFFFFFFFFFFFFFFFFFFFFFFE
FFFFFFFFFFFFFFFFFFFFFFFFFFFE
FFFFFFFFFFFFFFFFFFFFFFFFFFFE
FFFFFFFFFFFFFFFFFFFFFFFFFFFE
FFFFFFFFFFFFFFFFFFFFFFFFFFFE
FFFFFFFFFFFFFFFFFFFFFFFFFFFE
FFFFFFFFFFFFFFFFFFFFFFFFFFFE
FFFFFFFFFFFFFFFFFFFFFFFFFFFE
FFFFFFFFFFFFFFFFFFFFFFFFFFFE
FFFFFFFFFFFFFFFFFFFFFFFFFFFE
FFFFFFFFFFFFFFFFFFFFFFFFFFFC
FFFFFFFFFFFFFFFFFFFFFFFFFFF8
FFFFFFFFFFFFFFFFFFFFFFFFFFF0
FFFFFFFFFFFFFFFFFFFFFFFFFFE0
FFFFFFFFFFFFFFFFFFFFFFFFFFC0
FFFFFFFFFFFFFFFFFFFFFFFFFF80
FFFFFFFFFFFFFFFFFFFFFFFFFF00
FFFFFFFFFFFFFFFFFFFFFFFFFE00
FFFFFFFFFFFFFFFFFFFFFFFFFC00
FFFFFFFFFFFFFFFFFFFFFFFFF800
FFFFFFFFFFFFFFFFFFFFFFFFF000
FFFFFFFFFFFFFFFFFFFFFFFFE000
FFFFFFFFFFFFFFFFFFFFFFFFC000
FFFFFFFFFFFFFFFFFFFFFFFF8000
FFFFFFFFFFFFFFFFFFFFFFFF0000
FFFFFFFFFFFFFFFFFFFFFFFE0000
FFFFFFFFFFFFFFFFFFFFFFFC0000
FFFFFFFFFFFFFFFFFFFFFFF80000
FFFFFFFFFFFFFFFFFFFFFFF00000
FFFFFFFFFFFFFFFFFFFFFFE00000
FFFFFFFFFFFFFFFFFFFFFFC00000
FFFFFFFFFFFFFFFFFFFFFF800000
ENDCHAR
STARTCHAR 0045
ENCODING 69
SWIDTH 670 0
DWIDTH 114 0
BBX 105 142 0 0
BITMAP
FFFFFFFFFFFFFFFFFFFFFFFFFF80
FFFFFFFFFFFFFFFFFFFFFFFFFF80
FFFFFFFFFFFFFFFFFFFFFFFFFF80
FFFFFFFFFFFFFFFFFFFFFFFFFF80
FFFFFFFFFFFFFFFFFFFFFFFFFF80
FFFFFFFFFFFFFFFFFFFFFFFFFF80
FFFFFFFFFFFFFFFFFFFFFFFFFF80
FFFFFFFFFFFFFFFFFFFFFFFFFF80
FFFFFFFFFFFFFFFFFFFFFFFFFF80
FFFFFFFFFFFFFFFFFFFFFFFFFF80
FFFFFFFFFFFFFFFFFFFFFFFFFF80
FFFFFFFFFFFFFFFFFFFFFFFFFF80
FFFFFFFFFFFFFFFFFFFFFFFFFF80
FFFFFFFFFFFFFFFFFFFFFFFFFF80
FFFFFFFFFFFFFFFFFFFFFFFFFF80
FFFFFFFFFFFFFFFFFFFFFFFFFF80
FFFFFFFFFFFFFFFFFFFFFFFFFF80
FFFFFFFFFFFFFFFFFFFFFFFFFF80
FFFFFFFFFFFFFFFFFFFFFFFFFF80
FFFFFFFFFFFFFFFFFFFFFFFFFF80
FFFFFFFFFFFFFFFFFFFFFFFFFF80
FFFFFFFFFFFFFFFFFFFFFFFFFF80
FFFFFFFFFFFFFFFFFFFFFFFFFF80
FFFFFFFFFFFFFFFFFFFFFFFFFF80
FFFFFFFFFFFFFFFFFFFFFFFFFF80
FFFFFFFFFFFFFFFFFFFFFFFFFF80
FFFFFFFFFFFFFFFFFFFFFFFFFF80
FFFFFFFFFFFFFFFFFFFFFFFFFF80
FFFFFFFFFFFFFFFFFFFFFFFFFF80
FFFFFFFFFFFFFFFFFFFFFFFFFF80
FFFFFFFFFFFFFFFFFFFFFFFFFF80
FFFFFFFFFFFFFFFFFFFFFFFFFF80
007FFFFFFFFF0000007FFFFFFF80
007FFFFFFFFF0000007FFFFFFF80
007FFFFFFFFF0000007FFFFFFF80
007FFFFFFFFF0000007FFFFFFF80
007FFFFFFFFF0000007FFFFFFF80
007FFFFFFFFF0000000000000000
007FFFFFFFFF0000000000000000
007FFFFFFFFF0000000000000000
007FFFFFFFFF0000000000000000
007FFFFFFFFF0000000000000000
007FFFFFFFFF0000000000000000
007FFFFFFFFF0000000000000000
007FFFFFFFFF0000000000000000
007FFFFFFFFF0000000000000000
007FFFFFFFFF0000000000000000
007FFFFFFFFF0000000000000000
007FFFFFFFFF0000000000000000
007FFFFFFFFF03FFFFFFFC000000
007FFFFFFFFF03FFFFFFFC000000
007FFFFFFFFF03FFFFFFFC000000
007FFFFFFFFF03FFFFFFFC000000
007FFFFFFFFF03FFFFFFFC000000
007FFFFFFFFF03FFFFFFFC000000
007FFFFFFFFFFFFFFFFFFC000000
007FFFFFFFFFFFFFFFFFFC000000
007FFFFFFFFFFFFFFFFFFC000000
007FFFFFFFFFFFFFFFFFFC000000
007FFFFFFFFFFFFFFFFFFC000000
007FFFFFFFFFFFFFFFFFFC000000
007FFFFFFFFFFFFFFFFFFC000000
007FFFFFFFFFFFFFFFFFFC000000
007FFFFFFFFFFFFFFFFFFC000000
007FFFFFFFFFFFFFFFFFFC000000
007FFFFFFFFFFFFFFFFFFC000000
007FFFFFFFFFFFFFFFFFFC000000
007FFFFFFFFFFFFFFFFFFC000000
007FFFFFFFFFFFFFFFFFFC000000
007FFFFFFFFFFFFFFFFFFC000000
007FFFFFFFFFFFFFFFFFFC000000
007FFFFFFFFFFFFFFFFFFC000000
007FFFFFFFFFFFFFFFFFFC000000
007FFFFFFFFFFFFFFFFFFC000000
007FFFFFFFFFFFFFFFFFFC000000
007FFFFFFFFFFFFFFFFFFC000000
007FFFFFFFFFFFFFFFFFFC000000
007FFFFFFFFFFFFFFFFFFC000000
007FFFFFFFFFFFFFFFFFFC000000
007FFFFFFFFFFFFFFFFFFC000000
007FFFFFFFFFFFFFFFFFFC000000
007FFFFFFFFFFFFFFFFFFC000000
007FFFFFFFFFFFFFFFFFFC000000
007FFFFFFFFFFFFFFFFFFC000000
007FFFFFFFFFFFFFFFFFFC000000
007FFFFFFFFFFFFFFFFFFC000000
007FFFFFFFFFFFFFFFFFFC000000
007FFFFFFFFF03FFFFFFFC000000
007FFFFFFFFF03FFFFFFFC000000
007FFFFFFFFF03FFFFFFFC000000
007FFFFFFFFF03FFFFFFFC000000
007FFFFFFFFF03FFFFFFFC000000
007FFFFFFFFF03FFFFFFFC000000
007FFFFFFFFF0000000000000000
007FFFFFFFFF0000000000000000
007FFFFFFFFF0000000000000000
007FFFFFFFFF0000000000000000
007FFFFFFFFF0000000000000000
007FFFFFFFFF0000000000000000
007FFFFFFFFF0000000000000000
007FFFFFFFFF0000000000000000
007FFFFFFFFF0000000000000000
007FFFFFFFFF0000000000000000
007FFFFFFFFF0000000000000000
007FFFFFFFFF0000007FFFFFFF80
007FFFFFFFFF0000007FFFFFFF80
007FFFFFFFFF0000007FFFFFFF80
007FFFFFFFFF0000007FFFFFFF80
007FFFFFFFFF0000007FFFFFFF80
007FFFFFFFFF0000007FFFFFFF80
FFFFFFFFFFFFFFFFFFFFFFFFFF80
FFFFFFFFFFFFFFFFFFFFFFFFFF80
FFFFFFFFFFFFFFFFFFFFFFFFFF80
FFFFFFFFFFFFFFFFFFFFFFFFFF80
FFFFFFFFFFFFFFFFFFFFFFFFFF80
FFFFFFFFFFFFFFFFFFFFFFFFFF80
FFFFFFFFFFFFFFFFFFFFFFFFFF80
FFFFFFFFFFFFFFFFFFFFFFFFFF80
FFFFFFFFFFFFFFFFFFFFFFFFFF80
FFFFFFFFFFFFFFFFFFFFFFFFFF80
FFFFFFFFFFFFFFFFFFFFFFFFFF80
FFFFFFFFFFFFFFFFFFFFFFFFFF80
FFFFFFFFFFFFFFFFFFFFFFFFFF80
FFFFFFFFFFFFFFFFFFFFFFFFFF80
FFFFFFFFFFFFFFFFFFFFFFFFFF80
FFFFFFFFFFFFFFFFFFFFFFFFFF80
FFFFFFFFFFFFFFFFFFFFFFFFFF80
FFFFFFFFFFFFFFFFFFFFFFFFFF80
FFFFFFFFFFFFFFFFFFFFFFFFFF80
FFFFFFFFFFFFFFFFFFFFFFFFFF80
FFFFFFFFFFFFFFFFFFFFFFFFFF80
FFFFFFFFFFFFFFFFFFFFFFFFFF80
FFFFFFFFFFFFFFFFFFFFFFFFFF80
FFFFFFFFFFFFFFFFFFFFFFFFFF80
FFFFFFFFFFFFFFFFFFFFFFFFFF80
FFFFFFFFFFFFFFFFFFFFFFFFFF80
FFFFFFFFFFFFFFFFFFFFFFFFFF80
FFFFFFFFFFFFFFFFFFFFFFFFFF80
FFFFFFFFFFFFFFFFFFFFFFFFFF80
FFFFFFFFFFFFFFFFFFFFFFFFFF80
FFFFFFFFFFFFFFFFFFFFFFFFFF80
FFFFFFFFFFFFFFFFFFFFFFFFFF80
ENDCHAR
STARTCHAR 0046
ENCODING 70
SWIDTH 658 0
DWIDTH 112 0
BBX 105 142 0 0
BITMAP
FFFFFFFFFFFFFFFFFFFFFFFFFF80
FFFFFFFFFFFFFFFFFFFFFFFFFF80
FFFFFFFFFFFFFFFFFFFFFFFFFF80
FFFFFFFFFFFFFFFFFFFFFFFFFF80
FFFFFFFFFFFFFFFFFFFFFFFFFF80
FFFFFFFFFFFFFFFFFFFFFFFFFF80
FFFFFFFFFFFFFFFFFFFFFFFFFF80
FFFFFFFFFFFFFFFFFFFFFFFFFF80
FFFFFFFFFFFFFFFFFFFFFFFFFF80
FFFFFFFFFFFFFFFFFFFFFFFFFF80
FFFFFFFFFFFFFFFFFFFFFFFFFF80
FFFFFFFFFFFFFFFFFFFFFFFFFF80
FFFFFFFFFFFFFFFFFFFFFFFFFF80
FFFFFFFFFFFFFFFFFFFFFFFFFF80
FFFFFFFFFFFFFFFFFFFFFFFFFF80
FFFFFFFFFFFFFFFFFFFFFFFFFF80
FFFFFFFFFFFFFFFFFFFFFFFFFF80
FFFFFFFFFFFFFFFFFFFFFFFFFF80
FFFFFFFFFFFFFFFFFFFFFFFFFF80
FFFFFFFFFFFFFFFFFFFFFFFFFF80
FFFFFFFFFFFFFFFFFFFFFFFFFF80
FFFFFFFFFFFFFFFFFFFFFFFFFF80
FFFFFFFFFFFFFFFFFFFFFFFFFF80
FFFFFFFFFFFFFFFFFFFFFFFFFF80
FFFFFFFFFFFFFFFFFFFFFFFFFF80
FFFFFFFFFFFFFFFFFFFFFFFFFF80
FFFFFFFFFFFFFFFFFFFFFFFFFF80
FFFFFFFFFFFFFFFFFFFFFFFFFF80
FFFFFFFFFFFFFFFFFFFFFFFFFF80
FFFFFFFFFFFFFFFFFFFFFFFFFF80
FFFFFFFFFFFFFFFFFFFFFFFFFF80
FFFFFFFFFFFFFFFFFFFFFFFFFF80
007FFFFFFFFF0000007FFFFFFF80
007FFFFFFFFF0000007FFFFFFF80
007FFFFFFFFF0000007FFFFFFF80
007FFFFFFFFF0000007FFFFFFF80
007FFFFFFFFF0000007FFFFFFF80
007FFFFFFFFF0000000000000000
007FFFFFFFFF0000000000000000
007FFFFFFFFF0000000000000000
007FFFFFFFFF0000000000000000
007FFFFFFFFF0000000000000000
007FFFFFFFFF0000000000000000
007FFFFFFFFF0000000000000000
007FFFFFFFFF0000000000000000
007FFFFFFFFF0000000000000000
007FFFFFFFFF0000000000000000
007FFFFFFFFF0000000000000000
007FFFFFFFFF0000000000000000
007FFFFFFFFF03FFFFFFFC000000
007FFFFFFFFF03FFFFFFFC000000
007FFFFFFFFF03FFFFFFFC000000
007FFFFFFFFF03FFFFFFFC000000
007FFFFFFFFF03FFFFFFFC000000
007FFFFFFFFF03FFFFFFFC000000
007FFFFFFFFFFFFFFFFFFC000000
007FFFFFFFFFFFFFFFFFFC000000
007FFFFFFFFFFFFFFFFFFC000000
007FFFFFFFFFFFFFFFFFFC000000
007FFFFFFFFFFFFFFFFFFC000000
007FFFFFFFFFFFFFFFFFFC000000
007FFFFFFFFFFFFFFFFFFC000000
007FFFFFFFFFFFFFFFFFFC000000
007FFFFFFFFFFFFFFFFFFC000000
007FFFFFFFFFFFFFFFFFFC000000
007FFFFFFFFFFFFFFFFFFC000000
007FFFFFFFFFFFFFFFFFFC000000
007FFFFFFFFFFFFFFFFFFC000000
007FFFFFFFFFFFFFFFFFFC000000
007FFFFFFFFFFFFFFFFFFC000000
007FFFFFFFFFFFFFFFFFFC000000
007FFFFFFFFFFFFFFFFFFC000000
007FFFFFFFFFFFFFFFFFFC000000
007FFFFFFFFFFFFFFFFFFC000000
007FFFFFFFFFFFFFFFFFFC000000
007FFFFFFFFFFFFFFFFFFC000000
007FFFFFFFFFFFFFFFFFFC000000
007FFFFFFFFFFFFFFFFFFC000000
007FFFFFFFFFFFFFFFFFFC000000
007FFFFFFFFFFFFFFFFFFC000000
007FFFFFFFFFFFFFFFFFFC000000
007FFFFFFFFFFFFFFFFFFC000000
007FFFFFFFFFFFFFFFFFFC000000
007FFFFFFFFFFFFFFFFFFC000000
007FFFFFFFFFFFFFFFFFFC000000
007FFFFFFFFFFFFFFFFFFC000000
007FFFFFFFFFFFFFFFFFFC000000
007FFFFFFFFF03FFFFFFFC000000
007FFFFFFFFF03FFFFFFFC000000
007FFFFFFFFF03FFFFFFFC000000
007FFFFFFFFF03FFFFFFFC000000
007FFFFFFFFF03FFFFFFFC000000
007FFFFFFFFF03FFFFFFFC000000
007FFFFFFFFF0000000000000000
007FFFFFFFFF0000000000000000
007FFFFFFFFF0000000000000000
007FFFFFFFFF0000000000000000
007FFFFFFFFF0000000000000000
007FFFFFFFFF0000000000000000
007FFFFFFFFF0000000000000000
007FFFFFFFFF0000000000000000
007FFFFFFFFF0000000000000000
007FFFFFFFFF0000000000000000
007FFFFFFFFF0000000000000000
007FFFFFFFFF0000000000000000
007FFFFFFFFF0000000000000000
007FFFFFFFFF0000000000000000
007FFFFFFFFF0000000000000000
007FFFFFFFFF0000000000000000
007FFFFFFFFF0000000000000000
FFFFFFFFFFFFFFFF000000000000
FFFFFFFFFFFFFFFF000000000000
FFFFFFFFFFFFFFFF000000000000
FFFFFFFFFFFFFFFF000000000000
FFFFFFFFFFFFFFFF000000000000
FFFFFFFFFFFFFFFF000000000000
FFFFFFFFFFFFFFFF000000000000
FFFFFFFFFFFFFFFF000000000000
FFFFFFFFFFFFFFFF000000000000
FFFFFFFFFFFFFFFF000000000000
FFFFFFFFFFFFFFFF000000000000
FFFFFFFFFFFFFFFF000000000000
FFFFFFFFFFFFFFFF000000000000
FFFFFFFFFFFFFFFF000000000000
FFFFFFFFFFFFFFFF000000000000
FFFFFFFFFFFFFFFF000000000000
FFFFFFFFFFFFFFFF000000000000
FFFFFFFFFFFFFFFF000000000000
FFFFFFFFFFFFFFFF000000000000
FFFFFFFFFFFFFFFF000000000000
FFFFFFFFFFFFFFFF000000000000
FFFFFFFFFFFFFFFF000000000000
FFFFFFFFFFFFFFFF000000000000
FFFFFFFFFFFFFFFF000000000000
FFFFFFFFFFFFFFFF000000000000
FFFFFFFFFFFFFFFF000000000000
FFFFFFFFFFFFFFFF000000000000
FFFFFFFFFFFFFFFF000000000000
FFFFFFFFFFFFFFFF000000000000
FFFFFFFFFFFFFFFF000000000000
FFFFFFFFFFFFFFFF000000000000
FFFFFFFFFFFFFFFF000000000000
ENDCHAR
STARTCHAR 0047
ENCODING 71
SWIDTH 700 0
DWIDTH 119 0
BBX 108 142 0 0
BITMAP
000003FFFFFFFFFFFFFFFC000000
000007FFFFFFFFFFFFFFFE000000
00000FFFFFFFFFFFFFFFFF000000
00001FFFFFFFFFFFFFFFFF800000
00003FFFFFFFFFFFFFFFFFC00000
00007FFFFFFFFFFFFFFFFFE00000
0000FFFFFFFFFFFFFFFFFFF00000
0001FFFFFFFFFFFFFFFFFFF80000
0003FFFFFFFFFFFFFFFFFFFC0000
0007FFFFFFFFFFFFFFFFFFFE0000
000FFFFFFFFFFFFFFFFFFFFF0000
001FFFFFFFFFFFFFFFFFFFFF8000
003FFFFFFFFFFFFFFFFFFFFFC000
007FFFFFFFFFFFFFFFFFFFFFE000
00FFFFFFFFFFFFFFFFFFFFFFF000
01FFFFFFFFFFFFFFFFFFFFFFF800
03FFFFFFFFFFFFFFFFFFFFFFFC00
07FFFFFFFFFFFFFFFFFFFFFFFE00
0FFFFFFFFFFFFFFFFFFFFFFFFF00
1FFFFFFFFFFFFFFFFFFFFFFFFF80
3FFFFFFFFFFFFFFFFFFFFFFFFFC0
7FFFFFFFFFFFFFFFFFFFFFFFFFE0
FFFFFFFFFFFFFFFFFFFFFFFFFFF0
FFFFFFFFFFFFFFFFFFFFFFFFFFF0
FFFFFFFFFFFFFFFFFFFFFFFFFFF0
FFFFFFFFFFFFFFFFFFFFFFFFFFF0
FFFFFFFFFFFFFFFFFFFFFFFFFFF0
FFFFFFFFFFFFFFFFFFFFFFFFFFF0
FFFFFFFFFFFFFFFFFFFFFFFFFFF0
FFFFFFFFFFFFFFFFFFFFFFFFFFF0
FFFFFFFFFFFFFFFFFFFFFFFFFFF0
FFFFFFFFFFFFFFFFFFFFFFFFFFF0
FFFFFFFFFFE000007FFFFFFFFFF0
FFFFFFFFFFC000003FFFFFFFFFF0
FFFFFFFFFF8000001FFFFFFFFFF0
FFFFFFFFFF0000000FFFFFFFFFF0
FFFFFFFFFE00000007FFFFFFFFF0
FFFFFFFFFE00000007FFFFFFFFF0
FFFFFFFFFE00000007FFFFFFFFF0
FFFFFFFFFE00000007FFFFFFFFF0
FFFFFFFFFE00000007FFFFFFFFF0
FFFFFFFFFE00000007FFFFFFFFF0
FFFFFFFFFE00000007FFFFFFFFF0
FFFFFFFFFE00000007FFFFFFFFF0
FFFFFFFFFE00000007FFFFFFFFF0
FFFFFFFFFE00000007FFFFFFFFF0
FFFFFFFFFE00000007FFFFFFFFF0
FFFFFFFFFE00000007FFFFFFFFF0
FFFFFFFFFE00000007FFFFFFFFF0
FFFFFFFFFE00000007FFFFFFFFF0
FFFFFFFFFE00000007FFFFFFFFF0
FFFFFFFFFE00000007FFFFFFFFF0
FFFFFFFFFE00000007FFFFFFFFF0
FFFFFFFFFE00000007FFFFFFFFF0
FFFFFFFFFE000000000000000000
FFFFFFFFFE000000000000000000
FFFFFFFFFE000000000000000000
FFFFFFFFFE000000000000000000
FFFFFFFFFE000000000000000000
FFFFFFFFFE000000000000000000
FFFFFFFFFE000000000000000000
FFFFFFFFFE000000000000000000
FFFFFFFFFE000000000000000000
FFFFFFFFFE00003FFFFFFFFFFFF0
FFFFFFFFFE00003FFFFFFFFFFFF0
FFFFFFFFFE00003FFFFFFFFFFFF0
FFFFFFFFFE00003FFFFFFFFFFFF0
FFFFFFFFFE00003FFFFFFFFFFFF0
FFFFFFFFFE00003FFFFFFFFFFFF0
FFFFFFFFFE00003FFFFFFFFFFFF0
FFFFFFFFFE00003FFFFFFFFFFFF0
FFFFFFFFFE00003FFFFFFFFFFFF0
FFFFFFFFFE00003FFFFFFFFFFFF0
FFFFFFFFFE00003FFFFFFFFFFFF0
FFFFFFFFFE00003FFFFFFFFFFFF0
FFFFFFFFFE00003FFFFFFFFFFFF0
FFFFFFFFFE00003FFFFFFFFFFFF0
FFFFFFFFFE00003FFFFFFFFFFFF0
FFFFFFFFFE00003FFFFFFFFFFFF0
FFFFFFFFFE00003FFFFFFFFFFFF0
FFFFFFFFFE00003FFFFFFFFFFFF0
FFFFFFFFFE00003FFFFFFFFFFFF0
FFFFFFFFFE00003FFFFFFFFFFFF0
FFFFFFFFFE00003FFFFFFFFFFFF0
FFFFFFFFFE00003FFFFFFFFFFFF0
FFFFFFFFFE00003FFFFFFFFFFFF0
FFFFFFFFFE00003FFFFFFFFFFFF0
FFFFFFFFFE00003FFFFFFFFFFFF0
FFFFFFFFFE00003FFFFFFFFFFFF0
FFFFFFFFFE00003FFFFFFFFFFFF0
FFFFFFFFFE00003FFFFFFFFFFFF0
FFFFFFFFFE00003FFFFFFFFFFFF0
FFFFFFFFFE00000007FFFFFFFFF0
FFFFFFFFFE00000007FFFFFFFFF0
FFFFFFFFFE00000007FFFFFFFFF0
FFFFFFFFFE00000007FFFFFFFFF0
FFFFFFFFFE00000007FFFFFFFFF0
FFFFFFFFFE00000007FFFFFFFFF0
FFFFFFFFFE00000007FFFFFFFFF0
FFFFFFFFFE00000007FFFFFFFFF0
FFFFFFFFFE00000007FFFFFFFFF0
FFFFFFFFFE00000007FFFFFFFFF0
FFFFFFFFFE00000007FFFFFFFFF0
FFFFFFFFFE00000007FFFFFFFFF0
FFFFFFFFFE00000007FFFFFFFFF0
FFFFFFFFFE00000007FFFFFFFFF0
FFFFFFFFFF0000000FFFFFFFFFF0
FFFFFFFFFF8000001FFFFFFFFFF0
FFFFFFFFFFC000003FFFFFFFFFF0
FFFFFFFFFFE000007FFFFFFFFFF0
FFFFFFFFFFFFFFFFFFFFFFFFFFF0
FFFFFFFFFFFFFFFFFFFFFFFFFFF0
FFFFFFFFFFFFFFFFFFFFFFFFFFF0
FFFFFFFFFFFFFFFFFFFFFFFFFFF0
FFFFFFFFFFFFFFFFFFFFFFFFFFF0
FFFFFFFFFFFFFFFFFFFFFFFFFFF0
FFFFFFFFFFFFFFFFFFFFFFFFFFF0
FFFFFFFFFFFFFFFFFFFFFFFFFFF0
FFFFFFFFFFFFFFFFFFFFFFFFFFF0
FFFFFFFFFFFFFFFFFFFFFFFFFFF0
7FFFFFFFFFFFFFFFFFFFFFFFFFE0
3FFFFFFFFFFFFFFFFFFFFFFFFFC0
1FFFFFFFFFFFFFFFFFFFFFFFFF80
0FFFFFFFFFFFFFFFFFFFFFFFFF00
07FFFFFFFFFFFFFFFFFFFFFFFE00
03FFFFFFFFFFFFFFFFFFFFFFFC00
01FFFFFFFFFFFFFFFFFFFFFFF800
00FFFFFFFFFFFFFFFFFFFFFFF000
007FFFFFFFFFFFFFFFFFFFFFE000
003FFFFFFFFFFFFFFFFFFFFFC000
001FFFFFFFFFFFFFFFFFFFFF8000
000FFFFFFFFFFFFFFFFFFFFF0000
0007FFFFFFFFFFFFFFFFFFFE0000
0003FFFFFFFFFFFFFFFFFFFC0000
0001FFFFFFFFFFFFFFFFFFF80000
0000FFFFFFFFFFFFFFFFFFF00000
00007FFFFFFFFFFFFFFFFFE00000
00003FFFFFFFFFFFFFFFFFC00000
00001FFFFFFFFFFFFFFFFF800000
00000FFFFFFFFFFFFFFFFF000000
000007FFFFFFFFFFFFFFFE000000
000003FFFFFFFFFFFFFFFC000000
ENDCHAR
STARTCHAR 0048
ENCODING 72
SWIDTH 782 0
DWIDTH 133 0
BBX 123 142 0 0
BITMAP
FFFFFFFFFFFFFF001FFFFFFFFFFFFFE0
FFFFFFFFFFFFFF001FFFFFFFFFFFFFE0
FFFFFFFFFFFFFF001FFFFFFFFFFFFFE0
FFFFFFFFFFFFFF001FFFFFFFFFFFFFE0
FFFFFFFFFFFFFF001FFFFFFFFFFFFFE0
FFFFFFFFFFFFFF001FFFFFFFFFFFFFE0
FFFFFFFFFFFFFF001FFFFFFFFFFFFFE0
FFFFFFFFFFFFFF001FFFFFFFFFFFFFE0
FFFFFFFFFFFFFF001FFFFFFFFFFFFFE0
FFFFFFFFFFFFFF001FFFFFFFFFFFFFE0
FFFFFFFFFFFFFF001FFFFFFFFFFFFFE0
FFFFFFFFFFFFFF001FFFFFFFFFFFFFE0
FFFFFFFFFFFFFF001FFFFFFFFFFFFFE0
FFFFFFFFFFFFFF001FFFFFFFFFFFFFE0
FFFFFFFFFFFFFF001FFFFFFFFFFFFFE0
FFFFFFFFFFFFFF001FFFFFFFFFFFFFE0
FFFFFFFFFFFFFF001FFFFFFFFFFFFFE0
FFFFFFFFFFFFFF001FFFFFFFFFFFFFE0
FFFFFFFFFFFFFF001FFFFFFFFFFFFFE0
FFFFFFFFFFFFFF001FFFFFFFFFFFFFE0
FFFFFFFFFFFFFF001FFFFFFFFFFFFFE0
FFFFFFFFFFFFFF001FFFFFFFFFFFFFE0
FFFFFFFFFFFFFF001FFFFFFFFFFFFFE0
FFFFFFFFFFFFFF001FFFFFFFFFFFFFE0
FFFFFFFFFFFFFF001FFFFFFFFFFFFFE0
FFFFFFFFFFFFFF001FFFFFFFFFFFFFE0
FFFFFFFFFFFFFF001FFFFFFFFFFFFFE0
FFFFFFFFFFFFFF001FFFFFFFFFFFFFE0
FFFFFFFFFFFFFF001FFFFFFFFFFFFFE0
FFFFFFFFFFFFFF001FFFFFFFFFFFFFE0
FFFFFFFFFFFFFF001FFFFFFFFFFFFFE0
FFFFFFFFFFFFFF001FFFFFFFFFFFFFE0
007FFFFFFFFF0000001FFFFFFFFFC000
007FFFFFFFFF0000001FFFFFFFFFC000
007FFFFFFFFF0000001FFFFFFFFFC000
007FFFFFFFFF0000001FFFFFFFFFC000
007FFFFFFFFF0000001FFFFFFFFFC000
007FFFFFFFFF0000001FFFFFFFFFC000
007FFFFFFFFF0000001FFFFFFFFFC000
007FFFFFFFFF0000001FFFFFFFFFC000
007FFFFFFFFF0000001FFFFFFFFFC000
007FFFFFFFFF0000001FFFFFFFFFC000
007FFFFFFFFF0000001FFFFFFFFFC000
007FFFFFFFFF0000001FFFFFFFFFC000
007FFFFFFFFF0000001FFFFFFFFFC000
007FFFFFFFFF0000001FFFFFFFFFC000
007FFFFFFFFF0000001FFFFFFFFFC000
007FFFFFFFFF0000001FFFFFFFFFC000
007FFFFFFFFF0000001FFFFFFFFFC000
007FFFFFFFFF0000001FFFFFFFFFC000
007FFFFFFFFF0000001FFFFFFFFFC000
007FFFFFFFFFFFFFFFFFFFFFFFFFC000
007FFFFFFFFFFFFFFFFFFFFFFFFFC000
007FFFFFFFFFFFFFFFFFFFFFFFFFC000
007FFFFFFFFFFFFFFFFFFFFFFFFFC000
007FFFFFFFFFFFFFFFFFFFFFFFFFC000
007FFFFFFFFFFFFFFFFFFFFFFFFFC000
007FFFFFFFFFFFFFFFFFFFFFFFFFC000
007FFFFFFFFFFFFFFFFFFFFFFFFFC000
007FFFFFFFFFFFFFFFFFFFFFFFFFC000
007FFFFFFFFFFFFFFFFFFFFFFFFFC000
007FFFFFFFFFFFFFFFFFFFFFFFFFC000
007FFFFFFFFFFFFFFFFFFFFFFFFFC000
007FFFFFFFFFFFFFFFFFFFFFFFFFC000
007FFFFFFFFFFFFFFFFFFFFFFFFFC000
007FFFFFFFFFFFFFFFFFFFFFFFFFC000
007FFFFFFFFFFFFFFFFFFFFFFFFFC000
007FFFFFFFFFFFFFFFFFFFFFFFFFC000
007FFFFFFFFFFFFFFFFFFFFFFFFFC000
007FFFFFFFFFFFFFFFFFFFFFFFFFC000
007FFFFFFFFFFFFFFFFFFFFFFFFFC000
007FFFFFFFFFFFFFFFFFFFFFFFFFC000
007FFFFFFFFFFFFFFFFFFFFFFFFFC000
007FFFFFFFFFFFFFFFFFFFFFFFFFC000
007FFFFFFFFFFFFFFFFFFFFFFFFFC000
007FFFFFFFFFFFFFFFFFFFFFFFFFC000
007FFFFFFFFFFFFFFFFFFFFFFFFFC000
007FFFFFFFFFFFFFFFFFFFFFFFFFC000
007FFFFFFFFFFFFFFFFFFFFFFFFFC000
007FFFFFFFFFFFFFFFFFFFFFFFFFC000
007FFFFFFFFFFFFFFFFFFFFFFFFFC000
007FFFFFFFFFFFFFFFFFFFFFFFFFC000
007FFFFFFFFFFFFFFFFFFFFFFFFFC000
007FFFFFFFFFFFFFFFFFFFFFFFFFC000
007FFFFFFFFFFFFFFFFFFFFFFFFFC000
007FFFFFFFFFFFFFFFFFFFFFFFFFC000
007FFFFFFFFF0000001FFFFFFFFFC000
007FFFFFFFFF0000001FFFFFFFFFC000
007FFFFFFFFF0000001FFFFFFFFFC000
007FFFFFFFFF0000001FFFFFFFFFC000
007FFFFFFFFF0000001FFFFFFFFFC000
007FFFFFFFFF0000001FFFFFFFFFC000
007FFFFFFFFF0000001FFFFFFFFFC000
007FFFFFFFFF0000001FFFFFFFFFC000
007FFFFFFFFF0000001FFFFFFFFFC000
007FFFFFFFFF0000001FFFFFFFFFC000
007FFFFFFFFF0000001FFFFFFFFFC000
007FFFFFFFFF0000001FFFFFFFFFC000
007FFFFFFFFF0000001FFFFFFFFFC000
007FFFFFFFFF0000001FFFFFFFFFC000
007FFFFFFFFF0000001FFFFFFFFFC000
007FFFFFFFFF0000001FFFFFFFFFC000
007FFFFFFFFF0000001FFFFFFFFFC000
007FFFFFFFFF0000001FFFFFFFFFC000
007FFFFFFFFF0000001FFFFFFFFFC000
007FFFFFFFFF0000001FFFFFFFFFC000
007FFFFFFFFF0000001FFFFFFFFFC000
007FFFFFFFFF0000001FFFFFFFFFC000
007FFFFFFFFF0000001FFFFFFFFFC000
007FFFFFFFFF0000001FFFFFFFFFC000
FFFFFFFFFFFFFF001FFFFFFFFFFFFFE0
FFFFFFFFFFFFFF001FFFFFFFFFFFFFE0
FFFFFFFFFFFFFF001FFFFFFFFFFFFFE0
FFFFFFFFFFFFFF001FFFFFFFFFFFFFE0
FFFFFFFFFFFFFF001FFFFFFFFFFFFFE0
FFFFFFFFFFFFFF001FFFFFFFFFFFFFE0
FFFFFFFFFFFFFF001FFFFFFFFFFFFFE0
FFFFFFFFFFFFFF001FFFFFFFFFFFFFE0
FFFFFFFFFFFFFF001FFFFFFFFFFFFFE0
FFFFFFFFFFFFFF001FFFFFFFFFFFFFE0
FFFFFFFFFFFFFF001FFFFFFFFFFFFFE0
FFFFFFFFFFFFFF001FFFFFFFFFFFFFE0
FFFFFFFFFFFFFF001FFFFFFFFFFFFFE0
FFFFFFFFFFFFFF001FFFFFFFFFFFFFE0
FFFFFFFFFFFFFF001FFFFFFFFFFFFFE0
FFFFFFFFFFFFFF001FFFFFFFFFFFFFE0
FFFFFFFFFFFFFF001FFFFFFFFFFFFFE0
FFFFFFFFFFFFFF001FFFFFFFFFFFFFE0
FFFFFFFFFFFFFF001FFFFFFFFFFFFFE0
FFFFFFFFFFFFFF001FFFFFFFFFFFFFE0
FFFFFFFFFFFFFF001FFFFFFFFFFFFFE0
FFFFFFFFFFFFFF001FFFFFFFFFFFFFE0
FFFFFFFFFFFFFF001FFFFFFFFFFFFFE0
FFFFFFFFFFFFFF001FFFFFFFFFFFFFE0
FFFFFFFFFFFFFF001FFFFFFFFFFFFFE0
FFFFFFFFFFFFFF001FFFFFFFFFFFFFE0
FFFFFFFFFFFFFF001FFFFFFFFFFFFFE0
FFFFFFFFFFFFFF001FFFFFFFFFFFFFE0
FFFFFFFFFFFFFF001FFFFFFFFFFFFFE0
FFFFFFFFFFFFFF001FFFFFFFFFFFFFE0
FFFFFFFFFFFFFF001FFFFFFFFFFFFFE0
FFFFFFFFFFFFFF001FFFFFFFFFFFFFE0
ENDCHAR
STARTCHAR 0049
ENCODING 73
SWIDTH 388 0
DWIDTH 66 0
BBX 57 142 0 0
BITMAP
FFFFFFFFFFFFFF80
FFFFFFFFFFFFFF80
FFFFFFFFFFFFFF80
FFFFFFFFFFFFFF80
FFFFFFFFFFFFFF80
FFFFFFFFFFFFFF80
FFFFFFFFFFFFFF80
FFFFFFFFFFFFFF80
FFFFFFFFFFFFFF80
FFFFFFFFFFFFFF80
FFFFFFFFFFFFFF80
FFFFFFFFFFFFFF80
FFFFFFFFFFFFFF80
FFFFFFFFFFFFFF80
FFFFFFFFFFFFFF80
FFFFFFFFFFFFFF80
FFFFFFFFFFFFFF80
FFFFFFFFFFFFFF80
FFFFFFFFFFFFFF80
FFFFFFFFFFFFFF80
FFFFFFFFFFFFFF80
FFFFFFFFFFFFFF80
FFFFFFFFFFFFFF80
FFFFFFFFFFFFFF80
FFFFFFFFFFFFFF80
FFFFFFFFFFFFFF80
FFFFFFFFFFFFFF80
FFFFFFFFFFFFFF80
FFFFFFFFFFFFFF80
FFFFFFFFFFFFFF80
FFFFFFFFFFFFFF80
FFFFFFFFFFFFFF80
007FFFFFFFFF0000
007FFFFFFFFF0000
007FFFFFFFFF0000
007FFFFFFFFF0000
007FFFFFFFFF0000
007FFFFFFFFF0000
007FFFFFFFFF0000
007FFFFFFFFF0000
007FFFFFFFFF0000
007FFFFFFFFF0000
007FFFFFFFFF0000
007FFFFFFFFF0000
007FFFFFFFFF0000
007FFFFFFFFF0000
007FFFFFFFFF0000
007FFFFFFFFF0000
007FFFFFFFFF0000
007FFFFFFFFF0000
007FFFFFFFFF0000
007FFFFFFFFF0000
007FFFFFFFFF0000
007FFFFFFFFF0000
007FFFFFFFFF0000
007FFFFFFFFF0000
007FFFFFFFFF0000
007FFFFFFFFF0000
007FFFFFFFFF0000
007FFFFFFFFF0000
007FFFFFFFFF0000
007FFFFFFFFF0000
007FFFFFFFFF0000
007FFFFFFFFF0000
007FFFFFFFFF0000
007FFFFFFFFF0000
007FFFFFFFFF0000
007FFFFFFFFF0000
007FFFFFFFFF0000
007FFFFFFFFF0000
007FFFFFFFFF0000
007FFFFFFFFF0000
007FFFFFFFFF0000
007FFFFFFFFF0000
007FFFFFFFFF0000
007FFFFFFFFF0000
007FFFFFFFFF0000
007FFFFFFFFF0000
007FFFFFFFFF0000
007FFFFFFFFF0000
007FFFFFFFFF0000
007FFFFFFFFF0000
007FFFFFFFFF0000
007FFFFFFFFF0000
007FFFFFFFFF0000
007FFFFFFFFF0000
007FFFFFFFFF0000
007FFFFFFFFF0000
007FFFFFFFFF0000
007FFFFFFFFF0000
007FFFFFFFFF0000
007FFFFFFFFF0000
007FFFFFFFFF0000
007FFFFFFFFF0000
007FFFFFFFFF0000
007FFFFFFFFF0000
007FFFFFFFFF0000
007FFFFFFFFF0000
007FFFFFFFFF0000
007FFFFFFFFF0000
007FFFFFFFFF0000
007FFFFFFFFF0000
007FFFFFFFFF0000
007FFFFFFFFF0000
007FFFFFFFFF0000
007FFFFFFFFF0000
007FFFFFFFFF0000
007FFFFFFFFF0000
007FFFFFFFFF0000
007FFFFFFFFF0000
FFFFFFFFFFFFFF80
FFFFFFFFFFFFFF80
FFFFFFFFFFFFFF80
FFFFFFFFFFFFFF80
FFFFFFFFFFFFFF80
FFFFFFFFFFFFFF80
FFFFFFFFFFFFFF80
FFFFFFFFFFFFFF80
FFFFFFFFFFFFFF80
FFFFFFFFFFFFFF80
FFFFFFFFFFFFFF80
FFFFFFFFFFFFFF80
FFFFFFFFFFFFFF80
FFFFFFFFFFFFFF80
FFFFFFFFFFFFFF80
FFFFFFFFFFFFFF80
FFFFFFFFFFFFFF80
FFFFFFFFFFFFFF80
FFFFFFFFFFFFFF80
FFFFFFFFFFFFFF80
FFFFFFFFFFFFFF80
FFFFFFFFFFFFFF80
FFFFFFFFFFFFFF80
FFFFFFFFFFFFFF80
FFFFFFFFFFFFFF80
FFFFFFFFFFFFFF80
FFFFFFFFFFFFFF80
FFFFFFFFFFFFFF80
FFFFFFFFFFFFFF80
FFFFFFFFFFFFFF80
FFFFFFFFFFFFFF80
FFFFFFFFFFFFFF80
ENDCHAR
STARTCHAR 004A
ENCODING 74
SWIDTH 682 0
DWIDTH 116 0
BBX 106 142 0 0
BITMAP
000000000003FFFFFFFFFFFFFFC0
000000000003FFFFFFFFFFFFFFC0
000000000003FFFFFFFFFFFFFFC0
000000000003FFFFFFFFFFFFFFC0
000000000003FFFFFFFFFFFFFFC0
000000000003FFFFFFFFFFFFFFC0
000000000003FFFFFFFFFFFFFFC0
000000000003FFFFFFFFFFFFFFC0
000000000003FFFFFFFFFFFFFFC0
000000000003FFFFFFFFFFFFFFC0
000000000003FFFFFFFFFFFFFFC0
000000000003FFFFFFFFFFFFFFC0
000000000003FFFFFFFFFFFFFFC0
000000000003FFFFFFFFFFFFFFC0
000000000003FFFFFFFFFFFFFFC0
000000000003FFFFFFFFFFFFFFC0
000000000003FFFFFFFFFFFFFFC0
000000000003FFFFFFFFFFFFFFC0
000000000003FFFFFFFFFFFFFFC0
000000000003FFFFFFFFFFFFFFC0
000000000003FFFFFFFFFFFFFFC0
000000000003FFFFFFFFFFFFFFC0
000000000003FFFFFFFFFFFFFFC0
000000000003FFFFFFFFFFFFFFC0
000000000003FFFFFFFFFFFFFFC0
000000000003FFFFFFFFFFFFFFC0
000000000003FFFFFFFFFFFFFFC0
000000000003FFFFFFFFFFFFFFC0
000000000003FFFFFFFFFFFFFFC0
000000000003FFFFFFFFFFFFFFC0
000000000003FFFFFFFFFFFFFFC0
000000000003FFFFFFFFFFFFFFC0
000000000000003FFFFFFFFF8000
000000000000003FFFFFFFFF8000
000000000000003FFFFFFFFF8000
000000000000003FFFFFFFFF8000
000000000000003FFFFFFFFF8000
000000000000003FFFFFFFFF8000
000000000000003FFFFFFFFF8000
000000000000003FFFFFFFFF8000
000000000000003FFFFFFFFF8000
000000000000003FFFFFFFFF8000
000000000000003FFFFFFFFF8000
000000000000003FFFFFFFFF8000
000000000000003FFFFFFFFF8000
000000000000003FFFFFFFFF8000
000000000000003FFFFFFFFF8000
000000000000003FFFFFFFFF8000
000000000000003FFFFFFFFF8000
000000000000003FFFFFFFFF8000
000000000000003FFFFFFFFF8000
000000000000003FFFFFFFFF8000
000000000000003FFFFFFFFF8000
000000000000003FFFFFFFFF8000
000000000000003FFFFFFFFF8000
000000000000003FFFFFFFFF8000
000000000000003FFFFFFFFF8000
000000000000003FFFFFFFFF8000
000000000000003FFFFFFFFF8000
000000000000003FFFFFFFFF8000
000000000000003FFFFFFFFF8000
000000000000003FFFFFFFFF8000
000000000000003FFFFFFFFF8000
000000000000003FFFFFFFFF8000
000000000000003FFFFFFFFF8000
000000000000003FFFFFFFFF8000
000000000000003FFFFFFFFF8000
000000000000003FFFFFFFFF8000
000000000000003FFFFFFFFF8000
000000000000003FFFFFFFFF8000
000000000000003FFFFFFFFF8000
000000000000003FFFFFFFFF8000
000000000000003FFFFFFFFF8000
000000000000003FFFFFFFFF8000
000000000000003FFFFFFFFF8000
000000000000003FFFFFFFFF8000
000000000000003FFFFFFFFF8000
000000000000003FFFFFFFFF8000
000000000000003FFFFFFFFF8000
000000000000003FFFFFFFFF8000
000000000000003FFFFFFFFF8000
000000000000003FFFFFFFFF8000
000000000000003FFFFFFFFF8000
000000000000003FFFFFFFFF8000
000000000000003FFFFFFFFF8000
FFFFFFFFFE00003FFFFFFFFF8000
FFFFFFFFFE00003FFFFFFFFF8000
FFFFFFFFFE00003FFFFFFFFF8000
FFFFFFFFFE00003FFFFFFFFF8000
FFFFFFFFFE00003FFFFFFFFF8000
FFFFFFFFFE00003FFFFFFFFF8000
FFFFFFFFFE00003FFFFFFFFF8000
FFFFFFFFFE00003FFFFFFFFF8000
FFFFFFFFFE00003FFFFFFFFF8000
FFFFFFFFFE00003FFFFFFFFF8000
FFFFFFFFFE00003FFFFFFFFF8000
FFFFFFFFFE00003FFFFFFFFF8000
FFFFFFFFFE00003FFFFFFFFF8000
FFFFFFFFFE00003FFFFFFFFF8000
FFFFFFFFFE00003FFFFFFFFF8000
FFFFFFFFFE00003FFFFFFFFF8000
FFFFFFFFFE00003FFFFFFFFF8000
FFFFFFFFFE00003FFFFFFFFF8000
FFFFFFFFFE00003FFFFFFFFF8000
FFFFFFFFFE00003FFFFFFFFF8000
FFFFFFFFFE00003FFFFFFFFF8000
FFFFFFFFFF00007FFFFFFFFF8000
FFFFFFFFFF8000FFFFFFFFFF8000
FFFFFFFFFFC001FFFFFFFFFF8000
FFFFFFFFFFE003FFFFFFFFFF8000
FFFFFFFFFFFFFFFFFFFFFFFF8000
FFFFFFFFFFFFFFFFFFFFFFFF8000
FFFFFFFFFFFFFFFFFFFFFFFF8000
FFFFFFFFFFFFFFFFFFFFFFFF8000
FFFFFFFFFFFFFFFFFFFFFFFF8000
FFFFFFFFFFFFFFFFFFFFFFFF8000
FFFFFFFFFFFFFFFFFFFFFFFF8000
FFFFFFFFFFFFFFFFFFFFFFFF8000
FFFFFFFFFFFFFFFFFFFFFFFF8000
FFFFFFFFFFFFFFFFFFFFFFFF8000
7FFFFFFFFFFFFFFFFFFFFFFF0000
3FFFFFFFFFFFFFFFFFFFFFFE0000
1FFFFFFFFFFFFFFFFFFFFFFC0000
0FFFFFFFFFFFFFFFFFFFFFF80000
07FFFFFFFFFFFFFFFFFFFFF00000
03FFFFFFFFFFFFFFFFFFFFE00000
01FFFFFFFFFFFFFFFFFFFFC00000
00FFFFFFFFFFFFFFFFFFFF800000
007FFFFFFFFFFFFFFFFFFF000000
003FFFFFFFFFFFFFFFFFFE000000
001FFFFFFFFFFFFFFFFFFC000000
000FFFFFFFFFFFFFFFFFF8000000
0007FFFFFFFFFFFFFFFFF0000000
0003FFFFFFFFFFFFFFFFE0000000
0001FFFFFFFFFFFFFFFFC0000000
0000FFFFFFFFFFFFFFFF80000000
00007FFFFFFFFFFFFFFF00000000
00003FFFFFFFFFFFFFFE00000000
00001FFFFFFFFFFFFFFC00000000
00000FFFFFFFFFFFFFF800000000
000007FFFFFFFFFFFFF000000000
000003FFFFFFFFFFFFE000000000
ENDCHAR
STARTCHAR 004B
ENCODING 75
SWIDTH 817 0
DWIDTH 139 0
BBX 132 142 0 0
BITMAP
FFFFFFFFFFFFFF80FFFFFFFFFFFFFFFFF0
FFFFFFFFFFFFFF80FFFFFFFFFFFFFFFFF0
FFFFFFFFFFFFFF80FFFFFFFFFFFFFFFFF0
FFFFFFFFFFFFFF80FFFFFFFFFFFFFFFFF0
FFFFFFFFFFFFFF80FFFFFFFFFFFFFFFFF0
FFFFFFFFFFFFFF80FFFFFFFFFFFFFFFFF0
FFFFFFFFFFFFFF80FFFFFFFFFFFFFFFFF0
FFFFFFFFFFFFFF80FFFFFFFFFFFFFFFFF0
FFFFFFFFFFFFFF80FFFFFFFFFFFFFFFFF0
FFFFFFFFFFFFFF80FFFFFFFFFFFFFFFFF0
FFFFFFFFFFFFFF80FFFFFFFFFFFFFFFFF0
FFFFFFFFFFFFFF80FFFFFFFFFFFFFFFFF0
FFFFFFFFFFFFFF80FFFFFFFFFFFFFFFFF0
FFFFFFFFFFFFFF80FFFFFFFFFFFFFFFFF0
FFFFFFFFFFFFFF80FFFFFFFFFFFFFFFFF0
FFFFFFFFFFFFFF80FFFFFFFFFFFFFFFFF0
FFFFFFFFFFFFFF80FFFFFFFFFFFFFFFFF0
FFFFFFFFFFFFFF80FFFFFFFFFFFFFFFFF0
FFFFFFFFFFFFFF80FFFFFFFFFFFFFFFFF0
FFFFFFFFFFFFFF80FFFFFFFFFFFFFFFFF0
FFFFFFFFFFFFFF80FFFFFFFFFFFFFFFFF0
FFFFFFFFFFFFFF80FFFFFFFFFFFFFFFFF0
FFFFFFFFFFFFFF80FFFFFFFFFFFFFFFFF0
FFFFFFFFFFFFFF80FFFFFFFFFFFFFFFFF0
FFFFFFFFFFFFFF80FFFFFFFFFFFFFFFFF0
FFFFFFFFFFFFFF80FFFFFFFFFFFFFFFFF0
FFFFFFFFFFFFFF80FFFFFFFFFFFFFFFFF0
FFFFFFFFFFFFFF80FFFFFFFFFFFFFFFFF0
FFFFFFFFFFFFFF80FFFFFFFFFFFFFFFFF0
FFFFFFFFFFFFFF80FFFFFFFFFFFFFFFFF0
FFFFFFFFFFFFFF80FFFFFFFFFFFFFFFFF0
FFFFFFFFFFFFFF80FFFFFFFFFFFFFFFFF0
007FFFFFFFFF00000FFFFFFFFFFFFF0000
007FFFFFFFFF00001FFFFFFFFFFFFE0000
007FFFFFFFFF00003FFFFFFFFFFFFC0000
007FFFFFFFFF00007FFFFFFFFFFFF80000
007FFFFFFFFF0000FFFFFFFFFFFFF00000
007FFFFFFFFF0001FFFFFFFFFFFFE00000
007FFFFFFFFF0003FFFFFFFFFFFFC00000
007FFFFFFFFF0007FFFFFFFFFFFF800000
007FFFFFFFFF000FFFFFFFFFFFFF000000
007FFFFFFFFF001FFFFFFFFFFFFE000000
007FFFFFFFFF003FFFFFFFFFFFFC000000
007FFFFFFFFF007FFFFFFFFFFFF8000000
007FFFFFFFFF00FFFFFFFFFFFFF0000000
007FFFFFFFFF01FFFFFFFFFFFFE0000000
007FFFFFFFFF03FFFFFFFFFFFFC0000000
007FFFFFFFFF07FFFFFFFFFFFF80000000
007FFFFFFFFF0FFFFFFFFFFFFF00000000
007FFFFFFFFF1FFFFFFFFFFFFE00000000
007FFFFFFFFF3FFFFFFFFFFFFC00000000
007FFFFFFFFF7FFFFFFFFFFFF800000000
007FFFFFFFFFFFFFFFFFFFFFF000000000
007FFFFFFFFFFFFFFFFFFFFFE000000000
007FFFFFFFFFFFFFFFFFFFFFC000000000
007FFFFFFFFFFFFFFFFFFFFF8000000000
007FFFFFFFFFFFFFFFFFFFFF0000000000
007FFFFFFFFFFFFFFFFFFFFE0000000000
007FFFFFFFFFFFFFFFFFFFFC0000000000
007FFFFFFFFFFFFFFFFFFFF80000000000
007FFFFFFFFFFFFFFFFFFFF00000000000
007FFFFFFFFFFFFFFFFFFFE00000000000
007FFFFFFFFFFFFFFFFFFFC00000000000
007FFFFFFFFFFFFFFFFFFF800000000000
007FFFFFFFFFFFFFFFFFFF000000000000
007FFFFFFFFFFFFFFFFFFE000000000000
007FFFFFFFFFFFFFFFFFFC000000000000
007FFFFFFFFFFFFFFFFFF8000000000000
007FFFFFFFFFFFFFFFFFF0000000000000
007FFFFFFFFFFFFFFFFFE0000000000000
007FFFFFFFFFFFFFFFFFC0000000000000
007FFFFFFFFFFFFFFFFFE0000000000000
007FFFFFFFFFFFFFFFFFF0000000000000
007FFFFFFFFFFFFFFFFFF8000000000000
007FFFFFFFFFFFFFFFFFFC000000000000
007FFFFFFFFFFFFFFFFFFE000000000000
007FFFFFFFFFFFFFFFFFFF000000000000
007FFFFFFFFFFFFFFFFFFF800000000000
007FFFFFFFFFFFFFFFFFFFC00000000000
007FFFFFFFFFFFFFFFFFFFE00000000000
007FFFFFFFFFFFFFFFFFFFF00000000000
007FFFFFFFFFFFFFFFFFFFF80000000000
007FFFFFFFFFFFFFFFFFFFFC0000000000
007FFFFFFFFFFFFFFFFFFFFE0000000000
007FFFFFFFFFFFFFFFFFFFFF0000000000
007FFFFFFFFFFFFFFFFFFFFF8000000000
007FFFFFFFFFFFFFFFFFFFFFC000000000
007FFFFFFFFFFFFFFFFFFFFFE000000000
007FFFFFFFFFFFFFFFFFFFFFF000000000
007FFFFFFFFFFFFFFFFFFFFFF800000000
007FFFFFFFFFFFFFFFFFFFFFFC00000000
007FFFFFFFFFFFFFFFFFFFFFFE00000000
007FFFFFFFFFFFFFFFFFFFFFFF00000000
007FFFFFFFFFFFFFFFFFFFFFFF80000000
007FFFFFFFFFFFFFFFFFFFFFFFC0000000
007FFFFFFFFFFFFFFFFFFFFFFFE0000000
007FFFFFFFFFFDFFFFFFFFFFFFF0000000
007FFFFFFFFFFCFFFFFFFFFFFFF8000000
007FFFFFFFFFF87FFFFFFFFFFFFC000000
007FFFFFFFFFF03FFFFFFFFFFFFE000000
007FFFFFFFFFE01FFFFFFFFFFFFF000000
007FFFFFFFFFC00FFFFFFFFFFFFF800000
007FFFFFFFFF8007FFFFFFFFFFFFC00000
007FFFFFFFFF0003FFFFFFFFFFFFE00000
007FFFFFFFFF0001FFFFFFFFFFFFF00000
007FFFFFFFFF0000FFFFFFFFFFFFF80000
007FFFFFFFFF00007FFFFFFFFFFFFC0000
007FFFFFFFFF00003FFFFFFFFFFFFE0000
007FFFFFFFFF00001FFFFFFFFFFFFF0000
007FFFFFFFFF00000FFFFFFFFFFFFF8000
FFFFFFFFFFFFFF80FFFFFFFFFFFFFFFFF0
FFFFFFFFFFFFFF80FFFFFFFFFFFFFFFFF0
FFFFFFFFFFFFFF80FFFFFFFFFFFFFFFFF0
FFFFFFFFFFFFFF80FFFFFFFFFFFFFFFFF0
FFFFFFFFFFFFFF80FFFFFFFFFFFFFFFFF0
FFFFFFFFFFFFFF80FFFFFFFFFFFFFFFFF0
FFFFFFFFFFFFFF80FFFFFFFFFFFFFFFFF0
FFFFFFFFFFFFFF80FFFFFFFFFFFFFFFFF0
FFFFFFFFFFFFFF80FFFFFFFFFFFFFFFFF0
FFFFFFFFFFFFFF80FFFFFFFFFFFFFFFFF0
FFFFFFFFFFFFFF80FFFFFFFFFFFFFFFFF0
FFFFFFFFFFFFFF80FFFFFFFFFFFFFFFFF0
FFFFFFFFFFFFFF80FFFFFFFFFFFFFFFFF0
FFFFFFFFFFFFFF80FFFFFFFFFFFFFFFFF0
FFFFFFFFFFFFFF80FFFFFFFFFFFFFFFFF0
FFFFFFFFFFFFFF80FFFFFFFFFFFFFFFFF0
FFFFFFFFFFFFFF80FFFFFFFFFFFFFFFFF0
FFFFFFFFFFFFFF80FFFFFFFFFFFFFFFFF0
FFFFFFFFFFFFFF80FFFFFFFFFFFFFFFFF0
FFFFFFFFFFFFFF80FFFFFFFFFFFFFFFFF0
FFFFFFFFFFFFFF80FFFFFFFFFFFFFFFFF0
FFFFFFFFFFFFFF80FFFFFFFFFFFFFFFFF0
FFFFFFFFFFFFFF80FFFFFFFFFFFFFFFFF0
FFFFFFFFFFFFFF80FFFFFFFFFFFFFFFFF0
FFFFFFFFFFFFFF80FFFFFFFFFFFFFFFFF0
FFFFFFFFFFFFFF80FFFFFFFFFFFFFFFFF0
FFFFFFFFFFFFFF80FFFFFFFFFFFFFFFFF0
FFFFFFFFFFFFFF80FFFFFFFFFFFFFFFFF0
FFFFFFFFFFFFFF80FFFFFFFFFFFFFFFFF0
FFFFFFFFFFFFFF80FFFFFFFFFFFFFFFFF0
FFFFFFFFFFFFFF80FFFFFFFFFFFFFFFFF0
FFFFFFFFFFFFFF80FFFFFFFFFFFFFFFFF0
ENDCHAR
STARTCHAR 004C
ENCODING 76
SWIDTH 664 0
DWIDTH 113 0
BBX 105 142 0 0
BITMAP
FFFFFFFFFFFFFF80000000000000
FFFFFFFFFFFFFF80000000000000
FFFFFFFFFFFFFF80000000000000
FFFFFFFFFFFFFF80000000000000
FFFFFFFFFFFFFF80000000000000
FFFFFFFFFFFFFF80000000000000
FFFFFFFFFFFFFF80000000000000
FFFFFFFFFFFFFF80000000000000
FFFFFFFFFFFFFF80000000000000
FFFFFFFFFFFFFF80000000000000
FFFFFFFFFFFFFF80000000000000
FFFFFFFFFFFFFF80000000000000
FFFFFFFFFFFFFF80000000000000
FFFFFFFFFFFFFF80000000000000
FFFFFFFFFFFFFF80000000000000
FFFFFFFFFFFFFF80000000000000
FFFFFFFFFFFFFF80000000000000
FFFFFFFFFFFFFF80000000000000
FFFFFFFFFFFFFF80000000000000
FFFFFFFFFFFFFF80000000000000
FFFFFFFFFFFFFF80000000000000
FFFFFFFFFFFFFF80000000000000
FFFFFFFFFFFFFF80000000000000
FFFFFFFFFFFFFF80000000000000
FFFFFFFFFFFFFF80000000000000
FFFFFFFFFFFFFF80000000000000
FFFFFFFFFFFFFF80000000000000
FFFFFFFFFFFFFF80000000000000
FFFFFFFFFFFFFF80000000000000
FFFFFFFFFFFFFF80000000000000
FFFFFFFFFFFFFF80000000000000
FFFFFFFFFFFFFF80000000000000
007FFFFFFFFF0000000000000000
007FFFFFFFFF0000000000000000
007FFFFFFFFF0000000000000000
007FFFFFFFFF0000000000000000
007FFFFFFFFF0000000000000000
007FFFFFFFFF0000000000000000
007FFFFFFFFF0000000000000000
007FFFFFFFFF0000000000000000
007FFFFFFFFF0000000000000000
007FFFFFFFFF0000000000000000
007FFFFFFFFF0000000000000000
007FFFFFFFFF0000000000000000
007FFFFFFFFF0000000000000000
007FFFFFFFFF0000000000000000
007FFFFFFFFF0000000000000000
007FFFFFFFFF0000000000000000
007FFFFFFFFF0000000000000000
007FFFFFFFFF0000000000000000
007FFFFFFFFF0000000000000000
007FFFFFFFFF0000000000000000
007FFFFFFFFF0000000000000000
007FFFFFFFFF0000000000000000
007FFFFFFFFF0000000000000000
007FFFFFFFFF0000000000000000
007FFFFFFFFF0000000000000000
007FFFFFFFFF0000000000000000
007FFFFFFFFF0000000000000000
007FFFFFFFFF0000000000000000
007FFFFFFFFF0000000000000000
007FFFFFFFFF0000000000000000
007FFFFFFFFF0000000000000000
007FFFFFFFFF0000000000000000
007FFFFFFFFF0000000000000000
007FFFFFFFFF0000000000000000
007FFFFFFFFF0000000000000000
007FFFFFFFFF0000000000000000
007FFFFFFFFF0000000000000000
007FFFFFFFFF0000000000000000
007FFFFFFFFF0000000000000000
007FFFFFFFFF0000000000000000
007FFFFFFFFF0000000000000000
007FFFFFFFFF0000000000000000
007FFFFFFFFF0000000000000000
007FFFFFFFFF0000000000000000
007FFFFFFFFF0000000000000000
007FFFFFFFFF0000000000000000
007FFFFFFFFF0000000000000000
007FFFFFFFFF0000000000000000
007FFFFFFFFF0000000000000000
007FFFFFFFFF0000000000000000
007FFFFFFFFF0000000000000000
007FFFFFFFFF0000000000000000
007FFFFFFFFF0000000000000000
007FFFFFFFFF0000000000000000
007FFFFFFFFF0000000000000000
007FFFFFFFFF0000000000000000
007FFFFFFFFF0000000000000000
007FFFFFFFFF0000000000000000
007FFFFFFFFF0000000000000000
007FFFFFFFFF0000000000000000
007FFFFFFFFF0000000000000000
007FFFFFFFFF0000000000000000
007FFFFFFFFF0000000000000000
007FFFFFFFFF0000000000000000
007FFFFFFFFF0000000000000000
007FFFFFFFFF0000000000000000
007FFFFFFFFF0000000000000000
007FFFFFFFFF0000000000000000
007FFFFFFFFF0000000000000000
007FFFFFFFFF0000007FFFFFFF80
007FFFFFFFFF0000007FFFFFFF80
007FFFFFFFFF0000007FFFFFFF80
007FFFFFFFFF0000007FFFFFFF80
007FFFFFFFFF0000007FFFFFFF80
007FFFFFFFFF0000007FFFFFFF80
007FFFFFFFFF0000007FFFFFFF80
007FFFFFFFFF0000007FFFFFFF80
007FFFFFFFFF0000007FFFFFFF80
FFFFFFFFFFFFFFFFFFFFFFFFFF80
FFFFFFFFFFFFFFFFFFFFFFFFFF80
FFFFFFFFFFFFFFFFFFFFFFFFFF80
FFFFFFFFFFFFFFFFFFFFFFFFFF80
FFFFFFFFFFFFFFFFFFFFFFFFFF80
FFFFFFFFFFFFFFFFFFFFFFFFFF80
FFFFFFFFFFFFFFFFFFFFFFFFFF80
FFFFFFFFFFFFFFFFFFFFFFFFFF80
FFFFFFFFFFFFFFFFFFFFFFFFFF80
FFFFFFFFFFFFFFFFFFFFFFFFFF80
FFFFFFFFFFFFFFFFFFFFFFFFFF80
FFFFFFFFFFFFFFFFFFFFFFFFFF80
FFFFFFFFFFFFFFFFFFFFFFFFFF80
FFFFFFFFFFFFFFFFFFFFFFFFFF80
FFFFFFFFFFFFFFFFFFFFFFFFFF80
FFFFFFFFFFFFFFFFFFFFFFFFFF80
FFFFFFFFFFFFFFFFFFFFFFFFFF80
FFFFFFFFFFFFFFFFFFFFFFFFFF80
FFFFFFFFFFFFFFFFFFFFFFFFFF80
FFFFFFFFFFFFFFFFFFFFFFFFFF80
FFFFFFFFFFFFFFFFFFFFFFFFFF80
FFFFFFFFFFFFFFFFFFFFFFFFFF80
FFFFFFFFFFFFFFFFFFFFFFFFFF80
FFFFFFFFFFFFFFFFFFFFFFFFFF80
FFFFFFFFFFFFFFFFFFFFFFFFFF80
FFFFFFFFFFFFFFFFFFFFFFFFFF80
FFFFFFFFFFFFFFFFFFFFFFFFFF80
FFFFFFFFFFFFFFFFFFFFFFFFFF80
FFFFFFFFFFFFFFFFFFFFFFFFFF80
FFFFFFFFFFFFFFFFFFFFFFFFFF80
FFFFFFFFFFFFFFFFFFFFFFFFFF80
FFFFFFFFFFFFFFFFFFFFFFFFFF80
ENDCHAR
STARTCHAR 004D
ENCODING 77
SWIDTH 982 0
DWIDTH 167 0
BBX 157 142 0 0
BITMAP
FFFFFFFFFFFC0000000000000001FFFFFFFFFFF8
FFFFFFFFFFFE0000000000000003FFFFFFFFFFF8
FFFFFFFFFFFF0000000000000007FFFFFFFFFFF8
FFFFFFFFFFFF0000000000000007FFFFFFFFFFF8
FFFFFFFFFFFF800000000000000FFFFFFFFFFFF8
FFFFFFFFFFFF800000000000000FFFFFFFFFFFF8
FFFFFFFFFFFFC00000000000001FFFFFFFFFFFF8
FFFFFFFFFFFFC00000000000001FFFFFFFFFFFF8
FFFFFFFFFFFFE00000000000003FFFFFFFFFFFF8
FFFFFFFFFFFFF00000000000007FFFFFFFFFFFF8
FFFFFFFFFFFFF00000000000007FFFFFFFFFFFF8
FFFFFFFFFFFFF8000000000000FFFFFFFFFFFFF8
FFFFFFFFFFFFF8000000000000FFFFFFFFFFFFF8
FFFFFFFFFFFFFC000000000001FFFFFFFFFFFFF8
FFFFFFFFFFFFFE000000000003FFFFFFFFFFFFF8
FFFFFFFFFFFFFE000000000003FFFFFFFFFFFFF8
FFFFFFFFFFFFFF000000000007FFFFFFFFFFFFF8
FFFFFFFFFFFFFF000000000007FFFFFFFFFFFFF8
FFFFFFFFFFFFFF80000000000FFFFFFFFFFFFFF8
FFFFFFFFFFFFFFC0000000001FFFFFFFFFFFFFF8
FFFFFFFFFFFFFFC0000000001FFFFFFFFFFFFFF8
FFFFFFFFFFFFFFE0000000003FFFFFFFFFFFFFF8
FFFFFFFFFFFFFFE0000000003FFFFFFFFFFFFFF8
FFFFFFFFFFFFFFF0000000007FFFFFFFFFFFFFF8
FFFFFFFFFFFFFFF8000000007FFFFFFFFFFFFFF8
FFFFFFFFFFFFFFF800000000FFFFFFFFFFFFFFF8
FFFFFFFFFFFFFFFC00000001FFFFFFFFFFFFFFF8
FFFFFFFFFFFFFFFC00000001FFFFFFFFFFFFFFF8
FFFFFFFFFFFFFFFE00000003FFFFFFFFFFFFFFF8
FFFFFFFFFFFFFFFE00000003FFFFFFFFFFFFFFF8
FFFFFFFFFFFFFFFF00000007FFFFFFFFFFFFFFF8
FFFFFFFFFFFFFFFF8000000FFFFFFFFFFFFFFFF8
007FFFFFFFFFFFFF8000000FFFFFFFFFFFFFF000
007FFFFFFFFFFFFFC000001FFFFFFFFFFFFFF000
007FFFFFFFFFFFFFC000001FFFFFFFFFFFFFF000
007FFFFFFFFFFFFFE000003FFFFFFFFFFFFFF000
007FFFFFFFFFFFFFF000007FFFFFFFFFFFFFF000
007FFFFFFFFFFFFFF000007FFFFFFFFFFFFFF000
007FFFFFFFFFFFFFF80000FFFFFFFFFFFFFFF000
007FFFFFFFFFFFFFF80000FFFFFFFFFFFFFFF000
007FFFFFFFFFFFFFFC0001FFFFFFFFFFFFFFF000
007FFFFFFFFFFFFFFE0003FFFFFFFFFFFFFFF000
007FFFFFFFFFFFFFFE0003FFFFFFFFFFFFFFF000
007FFFFFFFFFFFFFFF0007FFFFFFFFFFFFFFF000
007FFFFFFFFFFFFFFF0007FFFFFFFFFFFFFFF000
007FFFFFFFFFFFFFFF800FFFFFFFFFFFFFFFF000
007FFFFFFFFFFFFFFFC00FFFFFFFFFFFFFFFF000
007FFFFFFFFFFFFFFFC01FFFFFFFFFFFFFFFF000
007FFFFFFFFFFFFFFFE03FFFFFFFFFFFFFFFF000
007FFFFFFFFFFFFFFFE03FFFFFFFFFFFFFFFF000
007FFFFFFFFFFFFFFFF07FFFFFFFFFFFFFFFF000
007FFFFFFFFFFFFFFFF07FFFFFFFFFFFFFFFF000
007FFFFFFFFFFFFFFFF8FFFFFFFFFFFFFFFFF000
007FFFFFFFFFFFFFFFFDFFFFFFFFFFFFFFFFF000
007FFFFFFFFFFFFFFFFDFFFFFFFFFFFFFFFFF000
007FFFFFFFFFFFFFFFFFFFFFFFFFFFFFFFFFF000
007FFFFFFFFFFFFFFFFFFFFFFFFFFFFFFFFFF000
007FFFFFFFFFFFFFFFFFFFFFFFFFFFFFFFFFF000
007FFFFFFFFFFFFFFFFFFFFFFFFFFFFFFFFFF000
007FFFFFFFFFFFFFFFFFFFFFFFFFFFFFFFFFF000
007FFFFFFFFFFFFFFFFFFFFFFFFFFFFFFFFFF000
007FFFFFFFFFFFFFFFFFFFFFFFFFFFFFFFFFF000
007FFFFFFFFFFFFFFFFFFFFFFFFFFFFFFFFFF000
007FFFFFFFFFFFFFFFFFFFFFFFFFFFFFFFFFF000
007FFFFFFFFFFFFFFFFFFFFFFFFFFFFFFFFFF000
007FFFFFFFFFFFFFFFFFFFFFFFFFFFFFFFFFF000
007FFFFFFFFFFFFFFFFFFFFFFFFFFFFFFFFFF000
007FFFFFFFFFFFFFFFFFFFFFFFFFFFFFFFFFF000
007FFFFFFFFFFFFFFFFFFFFFFFFFFFFFFFFFF000
007FFFFFFFFFFFFFFFFFFFFFFFFFFFFFFFFFF000
007FFFFFFFFFFFFFFFFFFFFFFFFFFFFFFFFFF000
007FFFFFFFFFFFFFFFFFFFFFFFFFFFFFFFFFF000
007FFFFFFFFFFFFFFFFFFFFFFFFFFFFFFFFFF000
007FFFFFFFFFFFFFFFFFFFFFFFFFFFFFFFFFF000
007FFFFFFFFF7FFFFFFFFFFFFFF7FFFFFFFFF000
007FFFFFFFFF7FFFFFFFFFFFFFF7FFFFFFFFF000
007FFFFFFFFF3FFFFFFFFFFFFFE7FFFFFFFFF000
007FFFFFFFFF1FFFFFFFFFFFFFC7FFFFFFFFF000
007FFFFFFFFF1FFFFFFFFFFFFFC7FFFFFFFFF000
007FFFFFFFFF0FFFFFFFFFFFFF87FFFFFFFFF000
007FFFFFFFFF0FFFFFFFFFFFFF87FFFFFFFFF000
007FFFFFFFFF07FFFFFFFFFFFF07FFFFFFFFF000
007FFFFFFFFF07FFFFFFFFFFFE07FFFFFFFFF000
007FFFFFFFFF03FFFFFFFFFFFE07FFFFFFFFF000
007FFFFFFFFF01FFFFFFFFFFFC07FFFFFFFFF000
007FFFFFFFFF01FFFFFFFFFFFC07FFFFFFFFF000
007FFFFFFFFF00FFFFFFFFFFF807FFFFFFFFF000
007FFFFFFFFF00FFFFFFFFFFF807FFFFFFFFF000
007FFFFFFFFF007FFFFFFFFFF007FFFFFFFFF000
007FFFFFFFFF003FFFFFFFFFE007FFFFFFFFF000
007FFFFFFFFF003FFFFFFFFFE007FFFFFFFFF000
007FFFFFFFFF001FFFFFFFFFC007FFFFFFFFF000
007FFFFFFFFF001FFFFFFFFFC007FFFFFFFFF000
007FFFFFFFFF000FFFFFFFFF8007FFFFFFFFF000
007FFFFFFFFF0007FFFFFFFF0007FFFFFFFFF000
007FFFFFFFFF0007FFFFFFFF0007FFFFFFFFF000
007FFFFFFFFF0003FFFFFFFE0007FFFFFFFFF000
007FFFFFFFFF0003FFFFFFFE0007FFFFFFFFF000
007FFFFFFFFF0001FFFFFFFC0007FFFFFFFFF000
007FFFFFFFFF0000FFFFFFF80007FFFFFFFFF000
007FFFFFFFFF0000FFFFFFF80007FFFFFFFFF000
007FFFFFFFFF00007FFFFFF00007FFFFFFFFF000
007FFFFFFFFF00007FFFFFF00007FFFFFFFFF000
007FFFFFFFFF00003FFFFFE00007FFFFFFFFF000
007FFFFFFFFF00001FFFFFC00007FFFFFFFFF000
007FFFFFFFFF00001FFFFFC00007FFFFFFFFF000
007FFFFFFFFF00000FFFFF800007FFFFFFFFF000
007FFFFFFFFF00000FFFFF800007FFFFFFFFF000
007FFFFFFFFF000007FFFF000007FFFFFFFFF000
007FFFFFFFFF000003FFFE000007FFFFFFFFF000
FFFFFFFFFFFFFF0003FFFE0007FFFFFFFFFFFFF8
FFFFFFFFFFFFFF0001FFFC0007FFFFFFFFFFFFF8
FFFFFFFFFFFFFF0001FFFC0007FFFFFFFFFFFFF8
FFFFFFFFFFFFFF0000FFF80007FFFFFFFFFFFFF8
FFFFFFFFFFFFFF0000FFF00007FFFFFFFFFFFFF8
FFFFFFFFFFFFFF00007FF00007FFFFFFFFFFFFF8
FFFFFFFFFFFFFF00003FE00007FFFFFFFFFFFFF8
FFFFFFFFFFFFFF00003FE00007FFFFFFFFFFFFF8
FFFFFFFFFFFFFF00001FC00007FFFFFFFFFFFFF8
FFFFFFFFFFFFFF00001FC00007FFFFFFFFFFFFF8
FFFFFFFFFFFFFF00000F800007FFFFFFFFFFFFF8
FFFFFFFFFFFFFF000007000007FFFFFFFFFFFFF8
FFFFFFFFFFFFFF000007000007FFFFFFFFFFFFF8
FFFFFFFFFFFFFF000002000007FFFFFFFFFFFFF8
FFFFFFFFFFFFFF000002000007FFFFFFFFFFFFF8
FFFFFFFFFFFFFF000000000007FFFFFFFFFFFFF8
FFFFFFFFFFFFFF000000000007FFFFFFFFFFFFF8
FFFFFFFFFFFFFF000000000007FFFFFFFFFFFFF8
FFFFFFFFFFFFFF000000000007FFFFFFFFFFFFF8
FFFFFFFFFFFFFF000000000007FFFFFFFFFFFFF8
FFFFFFFFFFFFFF000000000007FFFFFFFFFFFFF8
FFFFFFFFFFFFFF000000000007FFFFFFFFFFFFF8
FFFFFFFFFFFFFF000000000007FFFFFFFFFFFFF8
FFFFFFFFFFFFFF000000000007FFFFFFFFFFFFF8
FFFFFFFFFFFFFF000000000007FFFFFFFFFFFFF8
FFFFFFFFFFFFFF000000000007FFFFFFFFFFFFF8
FFFFFFFFFFFFFF000000000007FFFFFFFFFFFFF8
FFFFFFFFFFFFFF000000000007FFFFFFFFFFFFF8
FFFFFFFFFFFFFF000000000007FFFFFFFFFFFFF8
FFFFFFFFFFFFFF000000000007FFFFFFFFFFFFF8
FFFFFFFFFFFFFF000000000007FFFFFFFFFFFFF8
FFFFFFFFFFFFFF000000000007FFFFFFFFFFFFF8
ENDCHAR
STARTCHAR 004E
ENCODING 78
SWIDTH 841 0
DWIDTH 143 0
BBX 133 142 0 0
BITMAP
FFFFFFFFFFFE00000007FFFFFFFFFFFFF8
FFFFFFFFFFFE00000007FFFFFFFFFFFFF8
FFFFFFFFFFFF00000007FFFFFFFFFFFFF8
FFFFFFFFFFFF80000007FFFFFFFFFFFFF8
FFFFFFFFFFFF80000007FFFFFFFFFFFFF8
FFFFFFFFFFFFC0000007FFFFFFFFFFFFF8
FFFFFFFFFFFFC0000007FFFFFFFFFFFFF8
FFFFFFFFFFFFE0000007FFFFFFFFFFFFF8
FFFFFFFFFFFFF0000007FFFFFFFFFFFFF8
FFFFFFFFFFFFF0000007FFFFFFFFFFFFF8
FFFFFFFFFFFFF8000007FFFFFFFFFFFFF8
FFFFFFFFFFFFF8000007FFFFFFFFFFFFF8
FFFFFFFFFFFFFC000007FFFFFFFFFFFFF8
FFFFFFFFFFFFFE000007FFFFFFFFFFFFF8
FFFFFFFFFFFFFE000007FFFFFFFFFFFFF8
FFFFFFFFFFFFFF000007FFFFFFFFFFFFF8
FFFFFFFFFFFFFF000007FFFFFFFFFFFFF8
FFFFFFFFFFFFFF800007FFFFFFFFFFFFF8
FFFFFFFFFFFFFFC00007FFFFFFFFFFFFF8
FFFFFFFFFFFFFFC00007FFFFFFFFFFFFF8
FFFFFFFFFFFFFFE00007FFFFFFFFFFFFF8
FFFFFFFFFFFFFFE00007FFFFFFFFFFFFF8
FFFFFFFFFFFFFFF00007FFFFFFFFFFFFF8
FFFFFFFFFFFFFFF00007FFFFFFFFFFFFF8
FFFFFFFFFFFFFFF80007FFFFFFFFFFFFF8
FFFFFFFFFFFFFFFC0007FFFFFFFFFFFFF8
FFFFFFFFFFFFFFFC0007FFFFFFFFFFFFF8
FFFFFFFFFFFFFFFE0007FFFFFFFFFFFFF8
FFFFFFFFFFFFFFFE0007FFFFFFFFFFFFF8
FFFFFFFFFFFFFFFF0007FFFFFFFFFFFFF8
FFFFFFFFFFFFFFFF8007FFFFFFFFFFFFF8
FFFFFFFFFFFFFFFF8007FFFFFFFFFFFFF8
007FFFFFFFFFFFFFC00007FFFFFFFFF000
007FFFFFFFFFFFFFC00007FFFFFFFFF000
007FFFFFFFFFFFFFE00007FFFFFFFFF000
007FFFFFFFFFFFFFF00007FFFFFFFFF000
007FFFFFFFFFFFFFF00007FFFFFFFFF000
007FFFFFFFFFFFFFF80007FFFFFFFFF000
007FFFFFFFFFFFFFF80007FFFFFFFFF000
007FFFFFFFFFFFFFFC0007FFFFFFFFF000
007FFFFFFFFFFFFFFE0007FFFFFFFFF000
007FFFFFFFFFFFFFFE0007FFFFFFFFF000
007FFFFFFFFFFFFFFF0007FFFFFFFFF000
007FFFFFFFFFFFFFFF0007FFFFFFFFF000
007FFFFFFFFFFFFFFF8007FFFFFFFFF000
007FFFFFFFFFFFFFFF8007FFFFFFFFF000
007FFFFFFFFFFFFFFFC007FFFFFFFFF000
007FFFFFFFFFFFFFFFE007FFFFFFFFF000
007FFFFFFFFFFFFFFFE007FFFFFFFFF000
007FFFFFFFFFFFFFFFF007FFFFFFFFF000
007FFFFFFFFFFFFFFFF007FFFFFFFFF000
007FFFFFFFFFFFFFFFF807FFFFFFFFF000
007FFFFFFFFFFFFFFFFC07FFFFFFFFF000
007FFFFFFFFFFFFFFFFC07FFFFFFFFF000
007FFFFFFFFFFFFFFFFE07FFFFFFFFF000
007FFFFFFFFFFFFFFFFE07FFFFFFFFF000
007FFFFFFFFFFFFFFFFF07FFFFFFFFF000
007FFFFFFFFFFFFFFFFF87FFFFFFFFF000
007FFFFFFFFFFFFFFFFF87FFFFFFFFF000
007FFFFFFFFFFFFFFFFFC7FFFFFFFFF000
007FFFFFFFFFFFFFFFFFC7FFFFFFFFF000
007FFFFFFFFFFFFFFFFFE7FFFFFFFFF000
007FFFFFFFFFFFFFFFFFF7FFFFFFFFF000
007FFFFFFFFFFFFFFFFFF7FFFFFFFFF000
007FFFFFFFFFFFFFFFFFFFFFFFFFFFF000
007FFFFFFFFFFFFFFFFFFFFFFFFFFFF000
007FFFFFFFFFFFFFFFFFFFFFFFFFFFF000
007FFFFFFFFFFFFFFFFFFFFFFFFFFFF000
007FFFFFFFFFFFFFFFFFFFFFFFFFFFF000
007FFFFFFFFFFFFFFFFFFFFFFFFFFFF000
007FFFFFFFFFFFFFFFFFFFFFFFFFFFF000
007FFFFFFFFFFFFFFFFFFFFFFFFFFFF000
007FFFFFFFFFFFFFFFFFFFFFFFFFFFF000
007FFFFFFFFFFFFFFFFFFFFFFFFFFFF000
007FFFFFFFFFFFFFFFFFFFFFFFFFFFF000
007FFFFFFFFFFFFFFFFFFFFFFFFFFFF000
007FFFFFFFFFFFFFFFFFFFFFFFFFFFF000
007FFFFFFFFFFFFFFFFFFFFFFFFFFFF000
007FFFFFFFFFFFFFFFFFFFFFFFFFFFF000
007FFFFFFFFF7FFFFFFFFFFFFFFFFFF000
007FFFFFFFFF7FFFFFFFFFFFFFFFFFF000
007FFFFFFFFF3FFFFFFFFFFFFFFFFFF000
007FFFFFFFFF3FFFFFFFFFFFFFFFFFF000
007FFFFFFFFF1FFFFFFFFFFFFFFFFFF000
007FFFFFFFFF0FFFFFFFFFFFFFFFFFF000
007FFFFFFFFF0FFFFFFFFFFFFFFFFFF000
007FFFFFFFFF07FFFFFFFFFFFFFFFFF000
007FFFFFFFFF07FFFFFFFFFFFFFFFFF000
007FFFFFFFFF03FFFFFFFFFFFFFFFFF000
007FFFFFFFFF03FFFFFFFFFFFFFFFFF000
007FFFFFFFFF01FFFFFFFFFFFFFFFFF000
007FFFFFFFFF00FFFFFFFFFFFFFFFFF000
007FFFFFFFFF00FFFFFFFFFFFFFFFFF000
007FFFFFFFFF007FFFFFFFFFFFFFFFF000
007FFFFFFFFF007FFFFFFFFFFFFFFFF000
007FFFFFFFFF003FFFFFFFFFFFFFFFF000
007FFFFFFFFF001FFFFFFFFFFFFFFFF000
007FFFFFFFFF001FFFFFFFFFFFFFFFF000
007FFFFFFFFF000FFFFFFFFFFFFFFFF000
007FFFFFFFFF000FFFFFFFFFFFFFFFF000
007FFFFFFFFF0007FFFFFFFFFFFFFFF000
007FFFFFFFFF0003FFFFFFFFFFFFFFF000
007FFFFFFFFF0003FFFFFFFFFFFFFFF000
007FFFFFFFFF0001FFFFFFFFFFFFFFF000
007FFFFFFFFF0001FFFFFFFFFFFFFFF000
007FFFFFFFFF0000FFFFFFFFFFFFFFF000
007FFFFFFFFF00007FFFFFFFFFFFFFF000
007FFFFFFFFF00007FFFFFFFFFFFFFF000
007FFFFFFFFF00003FFFFFFFFFFFFFF000
007FFFFFFFFF00003FFFFFFFFFFFFFF000
FFFFFFFFFFFFFF001FFFFFFFFFFFFFFFF8
FFFFFFFFFFFFFF001FFFFFFFFFFFFFFFF8
FFFFFFFFFFFFFF000FFFFFFFFFFFFFFFF8
FFFFFFFFFFFFFF0007FFFFFFFFFFFFFFF8
FFFFFFFFFFFFFF0007FFFFFFFFFFFFFFF8
FFFFFFFFFFFFFF0003FFFFFFFFFFFFFFF8
FFFFFFFFFFFFFF0003FFFFFFFFFFFFFFF8
FFFFFFFFFFFFFF0001FFFFFFFFFFFFFFF8
FFFFFFFFFFFFFF0000FFFFFFFFFFFFFFF8
FFFFFFFFFFFFFF0000FFFFFFFFFFFFFFF8
FFFFFFFFFFFFFF00007FFFFFFFFFFFFFF8
FFFFFFFFFFFFFF00007FFFFFFFFFFFFFF8
FFFFFFFFFFFFFF00003FFFFFFFFFFFFFF8
FFFFFFFFFFFFFF00001FFFFFFFFFFFFFF8
FFFFFFFFFFFFFF00001FFFFFFFFFFFFFF8
FFFFFFFFFFFFFF00000FFFFFFFFFFFFFF8
FFFFFFFFFFFFFF00000FFFFFFFFFFFFFF8
FFFFFFFFFFFFFF000007FFFFFFFFFFFFF8
FFFFFFFFFFFFFF000003FFFFFFFFFFFFF8
FFFFFFFFFFFFFF000003FFFFFFFFFFFFF8
FFFFFFFFFFFFFF000001FFFFFFFFFFFFF8
FFFFFFFFFFFFFF000001FFFFFFFFFFFFF8
FFFFFFFFFFFFFF000000FFFFFFFFFFFFF8
FFFFFFFFFFFFFF000000FFFFFFFFFFFFF8
FFFFFFFFFFFFFF0000007FFFFFFFFFFFF8
FFFFFFFFFFFFFF0000003FFFFFFFFFFFF8
FFFFFFFFFFFFFF0000003FFFFFFFFFFFF8
FFFFFFFFFFFFFF0000001FFFFFFFFFFFF8
FFFFFFFFFFFFFF0000001FFFFFFFFFFFF8
FFFFFFFFFFFFFF0000000FFFFFFFFFFFF8
FFFFFFFFFFFFFF00000007FFFFFFFFFFF8
FFFFFFFFFFFFFF00000007FFFFFFFFFFF8
ENDCHAR
STARTCHAR 004F
ENCODING 79
SWIDTH 700 0
DWIDTH 119 0
BBX 108 142 0 0
BITMAP
000003FFFFFFFFFFFFFFF8000000
000007FFFFFFFFFFFFFFFC000000
00000FFFFFFFFFFFFFFFFE000000
00001FFFFFFFFFFFFFFFFF000000
00003FFFFFFFFFFFFFFFFF800000
00007FFFFFFFFFFFFFFFFFC00000
0000FFFFFFFFFFFFFFFFFFE00000
0001FFFFFFFFFFFFFFFFFFF00000
0003FFFFFFFFFFFFFFFFFFF80000
0007FFFFFFFFFFFFFFFFFFFC0000
000FFFFFFFFFFFFFFFFFFFFE0000
001FFFFFFFFFFFFFFFFFFFFF0000
003FFFFFFFFFFFFFFFFFFFFF8000
007FFFFFFFFFFFFFFFFFFFFFC000
00FFFFFFFFFFFFFFFFFFFFFFE000
01FFFFFFFFFFFFFFFFFFFFFFF000
03FFFFFFFFFFFFFFFFFFFFFFF800
07FFFFFFFFFFFFFFFFFFFFFFFC00
0FFFFFFFFFFFFFFFFFFFFFFFFE00
1FFFFFFFFFFFFFFFFFFFFFFFFF00
3FFFFFFFFFFFFFFFFFFFFFFFFF80
7FFFFFFFFFFFFFFFFFFFFFFFFFC0
FFFFFFFFFFFFFFFFFFFFFFFFFFE0
FFFFFFFFFFFFFFFFFFFFFFFFFFF0
FFFFFFFFFFFFFFFFFFFFFFFFFFF0
FFFFFFFFFFFFFFFFFFFFFFFFFFF0
FFFFFFFFFFFFFFFFFFFFFFFFFFF0
FFFFFFFFFFFFFFFFFFFFFFFFFFF0
FFFFFFFFFFFFFFFFFFFFFFFFFFF0
FFFFFFFFFFFFFFFFFFFFFFFFFFF0
FFFFFFFFFFFFFFFFFFFFFFFFFFF0
FFFFFFFFFFFFFFFFFFFFFFFFFFF0
FFFFFFFFFFE000007FFFFFFFFFF0
FFFFFFFFFFC000003FFFFFFFFFF0
FFFFFFFFFF8000001FFFFFFFFFF0
FFFFFFFFFF0000000FFFFFFFFFF0
FFFFFFFFFE00000007FFFFFFFFF0
FFFFFFFFFE00000007FFFFFFFFF0
FFFFFFFFFE00000007FFFFFFFFF0
FFFFFFFFFE00000007FFFFFFFFF0
FFFFFFFFFE00000007FFFFFFFFF0
FFFFFFFFFE00000007FFFFFFFFF0
FFFFFFFFFE00000007FFFFFFFFF0
FFFFFFFFFE00000007FFFFFFFFF0
FFFFFFFFFE00000007FFFFFFFFF0
FFFFFFFFFE00000007FFFFFFFFF0
FFFFFFFFFE00000007FFFFFFFFF0
FFFFFFFFFE00000007FFFFFFFFF0
FFFFFFFFFE00000007FFFFFFFFF0
FFFFFFFFFE00000007FFFFFFFFF0
FFFFFFFFFE00000007FFFFFFFFF0
FFFFFFFFFE00000007FFFFFFFFF0
FFFFFFFFFE00000007FFFFFFFFF0
FFFFFFFFFE00000007FFFFFFFFF0
FFFFFFFFFE00000007FFFFFFFFF0
FFFFFFFFFE00000007FFFFFFFFF0
FFFFFFFFFE00000007FFFFFFFFF0
FFFFFFFFFE00000007FFFFFFFFF0
FFFFFFFFFE00000007FFFFFFFFF0
FFFFFFFFFE00000007FFFFFFFFF0
FFFFFFFFFE00000007FFFFFFFFF0
FFFFFFFFFE00000007FFFFFFFFF0
FFFFFFFFFE00000007FFFFFFFFF0
FFFFFFFFFE00000007FFFFFFFFF0
FFFFFFFFFE00000007FFFFFFFFF0
FFFFFFFFFE00000007FFFFFFFFF0
FFFFFFFFFE00000007FFFFFFFFF0
FFFFFFFFFE00000007FFFFFFFFF0
FFFFFFFFFE00000007FFFFFFFFF0
FFFFFFFFFE00000007FFFFFFFFF0
FFFFFFFFFE00000007FFFFFFFFF0
FFFFFFFFFE00000007FFFFFFFFF0
FFFFFFFFFE00000007FFFFFFFFF0
FFFFFFFFFE00000007FFFFFFFFF0
FFFFFFFFFE00000007FFFFFFFFF0
FFFFFFFFFE00000007FFFFFFFFF0
FFFFFFFFFE00000007FFFFFFFFF0
FFFFFFFFFE00000007FFFFFFFFF0
FFFFFFFFFE00000007FFFFFFFFF0
FFFFFFFFFE00000007FFFFFFFFF0
FFFFFFFFFE00000007FFFFFFFFF0
FFFFFFFFFE00000007FFFFFFFFF0
FFFFFFFFFE00000007FFFFFFFFF0
FFFFFFFFFE00000007FFFFFFFFF0
FFFFFFFFFE00000007FFFFFFFFF0
FFFFFFFFFE00000007FFFFFFFFF0
FFFFFFFFFE00000007FFFFFFFFF0
FFFFFFFFFE00000007FFFFFFFFF0
FFFFFFFFFE00000007FFFFFFFFF0
FFFFFFFFFE00000007FFFFFFFFF0
FFFFFFFFFE00000007FFFFFFFFF0
FFFFFFFFFE00000007FFFFFFFFF0
FFFFFFFFFE00000007FFFFFFFFF0
FFFFFFFFFE00000007FFFFFFFFF0
FFFFFFFFFE00000007FFFFFFFFF0
FFFFFFFFFE00000007FFFFFFFFF0
FFFFFFFFFE00000007FFFFFFFFF0
FFFFFFFFFE00000007FFFFFFFFF0
FFFFFFFFFE00000007FFFFFFFFF0
FFFFFFFFFE00000007FFFFFFFFF0
FFFFFFFFFE00000007FFFFFFFFF0
FFFFFFFFFE00000007FFFFFFFFF0
FFFFFFFFFE00000007FFFFFFFFF0
FFFFFFFFFE00000007FFFFFFFFF0
FFFFFFFFFE00000007FFFFFFFFF0
FFFFFFFFFE00000007FFFFFFFFF0
FFFFFFFFFF0000000FFFFFFFFFF0
FFFFFFFFFF8000001FFFFFFFFFF0
FFFFFFFFFFC000003FFFFFFFFFF0
FFFFFFFFFFE000007FFFFFFFFFF0
FFFFFFFFFFFFFFFFFFFFFFFFFFF0
FFFFFFFFFFFFFFFFFFFFFFFFFFF0
FFFFFFFFFFFFFFFFFFFFFFFFFFF0
FFFFFFFFFFFFFFFFFFFFFFFFFFF0
FFFFFFFFFFFFFFFFFFFFFFFFFFF0
FFFFFFFFFFFFFFFFFFFFFFFFFFF0
FFFFFFFFFFFFFFFFFFFFFFFFFFF0
FFFFFFFFFFFFFFFFFFFFFFFFFFF0
FFFFFFFFFFFFFFFFFFFFFFFFFFF0
FFFFFFFFFFFFFFFFFFFFFFFFFFF0
7FFFFFFFFFFFFFFFFFFFFFFFFFE0
3FFFFFFFFFFFFFFFFFFFFFFFFFC0
1FFFFFFFFFFFFFFFFFFFFFFFFF80
0FFFFFFFFFFFFFFFFFFFFFFFFF00
07FFFFFFFFFFFFFFFFFFFFFFFE00
03FFFFFFFFFFFFFFFFFFFFFFFC00
01FFFFFFFFFFFFFFFFFFFFFFF800
00FFFFFFFFFFFFFFFFFFFFFFF000
007FFFFFFFFFFFFFFFFFFFFFE000
003FFFFFFFFFFFFFFFFFFFFFC000
001FFFFFFFFFFFFFFFFFFFFF8000
000FFFFFFFFFFFFFFFFFFFFF0000
0007FFFFFFFFFFFFFFFFFFFE0000
0003FFFFFFFFFFFFFFFFFFFC0000
0001FFFFFFFFFFFFFFFFFFF80000
0000FFFFFFFFFFFFFFFFFFF00000
00007FFFFFFFFFFFFFFFFFE00000
00003FFFFFFFFFFFFFFFFFC00000
00001FFFFFFFFFFFFFFFFF800000
00000FFFFFFFFFFFFFFFFF000000
000007FFFFFFFFFFFFFFFE000000
000003FFFFFFFFFFFFFFFC000000
ENDCHAR
STARTCHAR 0050
ENCODING 80
SWIDTH 711 0
DWIDTH 121 0
BBX 111 142 0 1
BITMAP
FFFFFFFFFFFFFFFFFFFFFF800000
FFFFFFFFFFFFFFFFFFFFFFC00000
FFFFFFFFFFFFFFFFFFFFFFE00000
FFFFFFFFFFFFFFFFFFFFFFF00000
FFFFFFFFFFFFFFFFFFFFFFF80000
FFFFFFFFFFFFFFFFFFFFFFFC0000
FFFFFFFFFFFFFFFFFFFFFFFE0000
FFFFFFFFFFFFFFFFFFFFFFFF0000
FFFFFFFFFFFFFFFFFFFFFFFF8000
FFFFFFFFFFFFFFFFFFFFFFFFC000
FFFFFFFFFFFFFFFFFFFFFFFFE000
FFFFFFFFFFFFFFFFFFFFFFFFF000
FFFFFFFFFFFFFFFFFFFFFFFFF800
FFFFFFFFFFFFFFFFFFFFFFFFFC00
FFFFFFFFFFFFFFFFFFFFFFFFFE00
FFFFFFFFFFFFFFFFFFFFFFFFFF00
FFFFFFFFFFFFFFFFFFFFFFFFFF80
FFFFFFFFFFFFFFFFFFFFFFFFFFC0
FFFFFFFFFFFFFFFFFFFFFFFFFFE0
FFFFFFFFFFFFFFFFFFFFFFFFFFF0
FFFFFFFFFFFFFFFFFFFFFFFFFFF8
FFFFFFFFFFFFFFFFFFFFFFFFFFFC
FFFFFFFFFFFFFFFFFFFFFFFFFFFE
FFFFFFFFFFFFFFFFFFFFFFFFFFFE
FFFFFFFFFFFFFFFFFFFFFFFFFFFE
FFFFFFFFFFFFFFFFFFFFFFFFFFFE
FFFFFFFFFFFFFFFFFFFFFFFFFFFE
FFFFFFFFFFFFFFFFFFFFFFFFFFFE
FFFFFFFFFFFFFFFFFFFFFFFFFFFE
FFFFFFFFFFFFFFFFFFFFFFFFFFFE
FFFFFFFFFFFFFFFFFFFFFFFFFFFE
FFFFFFFFFFFFFFFFFFFFFFFFFFFE
007FFFFFFFFF00000FFFFFFFFFFE
007FFFFFFFFF000007FFFFFFFFFE
007FFFFFFFFF000003FFFFFFFFFE
007FFFFFFFFF000001FFFFFFFFFE
007FFFFFFFFF000000FFFFFFFFFE
007FFFFFFFFF000000FFFFFFFFFE
007FFFFFFFFF000000FFFFFFFFFE
007FFFFFFFFF000000FFFFFFFFFE
007FFFFFFFFF000000FFFFFFFFFE
007FFFFFFFFF000000FFFFFFFFFE
007FFFFFFFFF000000FFFFFFFFFE
007FFFFFFFFF000000FFFFFFFFFE
007FFFFFFFFF000000FFFFFFFFFE
007FFFFFFFFF000000FFFFFFFFFE
007FFFFFFFFF000000FFFFFFFFFE
007FFFFFFFFF000000FFFFFFFFFE
007FFFFFFFFF000000FFFFFFFFFE
007FFFFFFFFF000000FFFFFFFFFE
007FFFFFFFFF000000FFFFFFFFFE
007FFFFFFFFF000000FFFFFFFFFE
007FFFFFFFFF000001FFFFFFFFFE
007FFFFFFFFF000003FFFFFFFFFE
007FFFFFFFFF000007FFFFFFFFFE
007FFFFFFFFF00000FFFFFFFFFFE
007FFFFFFFFFFFFFFFFFFFFFFFFE
007FFFFFFFFFFFFFFFFFFFFFFFFE
007FFFFFFFFFFFFFFFFFFFFFFFFE
007FFFFFFFFFFFFFFFFFFFFFFFFE
007FFFFFFFFFFFFFFFFFFFFFFFFE
007FFFFFFFFFFFFFFFFFFFFFFFFE
007FFFFFFFFFFFFFFFFFFFFFFFFE
007FFFFFFFFFFFFFFFFFFFFFFFFE
007FFFFFFFFFFFFFFFFFFFFFFFFE
007FFFFFFFFFFFFFFFFFFFFFFFFE
007FFFFFFFFFFFFFFFFFFFFFFFFC
007FFFFFFFFFFFFFFFFFFFFFFFF8
007FFFFFFFFFFFFFFFFFFFFFFFF0
007FFFFFFFFFFFFFFFFFFFFFFFE0
007FFFFFFFFFFFFFFFFFFFFFFFC0
007FFFFFFFFFFFFFFFFFFFFFFF80
007FFFFFFFFFFFFFFFFFFFFFFF00
007FFFFFFFFFFFFFFFFFFFFFFE00
007FFFFFFFFFFFFFFFFFFFFFFC00
007FFFFFFFFFFFFFFFFFFFFFF800
007FFFFFFFFFFFFFFFFFFFFFF000
007FFFFFFFFFFFFFFFFFFFFFE000
007FFFFFFFFFFFFFFFFFFFFFC000
007FFFFFFFFFFFFFFFFFFFFF8000
007FFFFFFFFFFFFFFFFFFFFF0000
007FFFFFFFFFFFFFFFFFFFFE0000
007FFFFFFFFFFFFFFFFFFFFC0000
007FFFFFFFFFFFFFFFFFFFF80000
007FFFFFFFFFFFFFFFFFFFF00000
007FFFFFFFFFFFFFFFFFFFE00000
007FFFFFFFFFFFFFFFFFFFC00000
007FFFFFFFFFFFFFFFFFFF800000
007FFFFFFFFF0000000000000000
007FFFFFFFFF0000000000000000
007FFFFFFFFF0000000000000000
007FFFFFFFFF0000000000000000
007FFFFFFFFF0000000000000000
007FFFFFFFFF0000000000000000
007FFFFFFFFF0000000000000000
007FFFFFFFFF0000000000000000
007FFFFFFFFF0000000000000000
007FFFFFFFFF0000000000000000
007FFFFFFFFF0000000000000000
007FFFFFFFFF0000000000000000
007FFFFFFFFF0000000000000000
007FFFFFFFFF0000000000000000
007FFFFFFFFF0000000000000000
007FFFFFFFFF0000000000000000
007FFFFFFFFF0000000000000000
007FFFFFFFFF0000000000000000
007FFFFFFFFF0000000000000000
007FFFFFFFFF0000000000000000
007FFFFFFFFF0000000000000000
007FFFFFFFFF0000000000000000
FFFFFFFFFFFFFF80000000000000
FFFFFFFFFFFFFF80000000000000
FFFFFFFFFFFFFF80000000000000
FFFFFFFFFFFFFF80000000000000
FFFFFFFFFFFFFF80000000000000
FFFFFFFFFFFFFF80000000000000
FFFFFFFFFFFFFF80000000000000
FFFFFFFFFFFFFF80000000000000
FFFFFFFFFFFFFF80000000000000
FFFFFFFFFFFFFF80000000000000
FFFFFFFFFFFFFF80000000000000
FFFFFFFFFFFFFF80000000000000
FFFFFFFFFFFFFF80000000000000
FFFFFFFFFFFFFF80000000000000
FFFFFFFFFFFFFF80000000000000
FFFFFFFFFFFFFF80000000000000
FFFFFFFFFFFFFF80000000000000
FFFFFFFFFFFFFF80000000000000
FFFFFFFFFFFFFF80000000000000
FFFFFFFFFFFFFF80000000000000
FFFFFFFFFFFFFF80000000000000
FFFFFFFFFFFFFF80000000000000
FFFFFFFFFFFFFF80000000000000
FFFFFFFFFFFFFF80000000000000
FFFFFFFFFFFFFF80000000000000
FFFFFFFFFFFFFF80000000000000
FFFFFFFFFFFFFF80000000000000
FFFFFFFFFFFFFF80000000000000
FFFFFFFFFFFFFF80000000000000
FFFFFFFFFFFFFF80000000000000
FFFFFFFFFFFFFF80000000000000
FFFFFFFFFFFFFF80000000000000
ENDCHAR
STARTCHAR 0051
ENCODING 81
SWIDTH 717 0
DWIDTH 122 0
BBX 123 142 0 0
BITMAP
000003FFFFFFFFFFFFFFFC0000000000
000007FFFFFFFFFFFFFFFE0000000000
00000FFFFFFFFFFFFFFFFF0000000000
00001FFFFFFFFFFFFFFFFF8000000000
00003FFFFFFFFFFFFFFFFFC000000000
00007FFFFFFFFFFFFFFFFFE000000000
0000FFFFFFFFFFFFFFFFFFF000000000
0001FFFFFFFFFFFFFFFFFFF800000000
0003FFFFFFFFFFFFFFFFFFFC00000000
0007FFFFFFFFFFFFFFFFFFFE00000000
000FFFFFFFFFFFFFFFFFFFFF00000000
001FFFFFFFFFFFFFFFFFFFFF80000000
003FFFFFFFFFFFFFFFFFFFFFC0000000
007FFFFFFFFFFFFFFFFFFFFFE0000000
00FFFFFFFFFFFFFFFFFFFFFFF0000000
01FFFFFFFFFFFFFFFFFFFFFFF8000000
03FFFFFFFFFFFFFFFFFFFFFFFC000000
07FFFFFFFFFFFFFFFFFFFFFFFE000000
0FFFFFFFFFFFFFFFFFFFFFFFFF000000
1FFFFFFFFFFFFFFFFFFFFFFFFF800000
3FFFFFFFFFFFFFFFFFFFFFFFFFC00000
7FFFFFFFFFFFFFFFFFFFFFFFFFE00000
FFFFFFFFFFFFFFFFFFFFFFFFFFF00000
FFFFFFFFFFFFFFFFFFFFFFFFFFF00000
FFFFFFFFFFFFFFFFFFFFFFFFFFF00000
FFFFFFFFFFFFFFFFFFFFFFFFFFF00000
FFFFFFFFFFFFFFFFFFFFFFFFFFF00000
FFFFFFFFFFFFFFFFFFFFFFFFFFF00000
FFFFFFFFFFFFFFFFFFFFFFFFFFF00000
FFFFFFFFFFFFFFFFFFFFFFFFFFF00000
FFFFFFFFFFFFFFFFFFFFFFFFFFF00000
FFFFFFFFFFFFFFFFFFFFFFFFFFF00000
FFFFFFFFFFE000007FFFFFFFFFF00000
FFFFFFFFFFC000003FFFFFFFFFF00000
FFFFFFFFFF8000001FFFFFFFFFF00000
FFFFFFFFFF0000000FFFFFFFFFF00000
FFFFFFFFFE00000007FFFFFFFFF00000
FFFFFFFFFE00000007FFFFFFFFF00000
FFFFFFFFFE00000007FFFFFFFFF00000
FFFFFFFFFE00000007FFFFFFFFF00000
FFFFFFFFFE00000007FFFFFFFFF00000
FFFFFFFFFE00000007FFFFFFFFF00000
FFFFFFFFFE00000007FFFFFFFFF00000
FFFFFFFFFE00000007FFFFFFFFF00000
FFFFFFFFFE00000007FFFFFFFFF00000
FFFFFFFFFE00000007FFFFFFFFF00000
FFFFFFFFFE00000007FFFFFFFFF00000
FFFFFFFFFE00000007FFFFFFFFF00000
FFFFFFFFFE00000007FFFFFFFFF00000
FFFFFFFFFE00000007FFFFFFFFF00000
FFFFFFFFFE00000007FFFFFFFFF00000
FFFFFFFFFE00000007FFFFFFFFF00000
FFFFFFFFFE00000007FFFFFFFFF00000
FFFFFFFFFE00000007FFFFFFFFF00000
FFFFFFFFFE00000007FFFFFFFFF00000
FFFFFFFFFE00000007FFFFFFFFF00000
FFFFFFFFFE00000007FFFFFFFFF00000
FFFFFFFFFE00000007FFFFFFFFF00000
FFFFFFFFFE00000007FFFFFFFFF00000
FFFFFFFFFE00000007FFFFFFFFF00000
FFFFFFFFFE00000007FFFFFFFFF00000
FFFFFFFFFE00000037FFFFFFFFF00000
FFFFFFFFFE0000007FFFFFFFFFF00000
FFFFFFFFFE000000FFFFFFFFFFF00000
FFFFFFFFFE000001FFFFFFFFFFF00000
FFFFFFFFFE000003FFFFFFFFFFF00000
FFFFFFFFFE000007FFFFFFFFFFF00000
FFFFFFFFFE00000FFFFFFFFFFFF00000
FFFFFFFFFE00001FFFFFFFFFFFF00000
FFFFFFFFFE00003FFFFFFFFFFFF00000
FFFFFFFFFE00007FFFFFFFFFFFF00000
FFFFFFFFFE0000FFFFFFFFFFFFF00000
FFFFFFFFFE0001FFFFFFFFFFFFF00000
FFFFFFFFFE0003FFFFFFFFFFFFF00000
FFFFFFFFFE0007FFFFFFFFFFFFF00000
FFFFFFFFFE000FFFFFFFFFFFFFF00000
FFFFFFFFFE001FFFFFFFFFFFFFF00000
FFFFFFFFFE003FFFFFFFFFFFFFF00000
FFFFFFFFFE007FFFFFFFFFFFFFF00000
FFFFFFFFFE00FFFFFFFFFFFFFFF00000
FFFFFFFFFE01FFFFFFFFFFFFFFF00000
FFFFFFFFFE03FFFFFFFFFFFFFFF00000
FFFFFFFFFE03FFFFFFFFFFFFFFF00000
FFFFFFFFFE01FFFFFFFFFFFFFFF00000
FFFFFFFFFE00FFFFFFFFFFFFFFF00000
FFFFFFFFFE007FFFFFFFFFFFFFF00000
FFFFFFFFFE003FFFFFFFFFFFFFF00000
FFFFFFFFFE001FFFFFFFFFFFFFF00000
FFFFFFFFFE000FFFFFFFFFFFFFF00000
FFFFFFFFFE0007FFFFFFFFFFFFF00000
FFFFFFFFFE0003FFFFFFFFFFFFF00000
FFFFFFFFFE0001FFFFFFFFFFFFF00000
FFFFFFFFFE0000FFFFFFFFFFFFF00000
FFFFFFFFFE00007FFFFFFFFFFFF00000
FFFFFFFFFE00003FFFFFFFFFFFF00000
FFFFFFFFFE00001FFFFFFFFFFFF00000
FFFFFFFFFE00000FFFFFFFFFFFF00000
FFFFFFFFFE000007FFFFFFFFFFF00000
FFFFFFFFFE000003FFFFFFFFFFF00000
FFFFFFFFFE000001FFFFFFFFFFF00000
FFFFFFFFFE000000FFFFFFFFFFF00000
FFFFFFFFFE0000007FFFFFFFFFF00000
FFFFFFFFFE0000003FFFFFFFFFF80000
FFFFFFFFFE0000001FFFFFFFFFFC0000
FFFFFFFFFE0000000FFFFFFFFFFE0000
FFFFFFFFFE00000007FFFFFFFFFF0000
FFFFFFFFFF0000000FFFFFFFFFFF8000
FFFFFFFFFF8000001FFFFFFFFFFFC000
FFFFFFFFFFC000003FFFFFFFFFFFE000
FFFFFFFFFFE000007FFFFFFFFFFFF000
FFFFFFFFFFFFFFFFFFFFFFFFFFFFF800
FFFFFFFFFFFFFFFFFFFFFFFFFFFFFC00
FFFFFFFFFFFFFFFFFFFFFFFFFFFFFE00
FFFFFFFFFFFFFFFFFFFFFFFFFFFFFF00
FFFFFFFFFFFFFFFFFFFFFFFFFFFFFF80
FFFFFFFFFFFFFFFFFFFFFFFFFFFFFFC0
FFFFFFFFFFFFFFFFFFFFFFFFFFFFFFE0
FFFFFFFFFFFFFFFFFFFFFFFFFFFFFFC0
FFFFFFFFFFFFFFFFFFFFFFFFFFFFFF80
FFFFFFFFFFFFFFFFFFFFFFFFFFFFFF00
7FFFFFFFFFFFFFFFFFFFFFFFFFFFFE00
3FFFFFFFFFFFFFFFFFFFFFFFFFFFFE00
1FFFFFFFFFFFFFFFFFFFFFFFFFFFFC00
0FFFFFFFFFFFFFFFFFFFFFFFFFFFF800
07FFFFFFFFFFFFFFFFFFFFFFFFFFF000
03FFFFFFFFFFFFFFFFFFFFFFFFFFE000
01FFFFFFFFFFFFFFFFFFFFFFFFFFC000
00FFFFFFFFFFFFFFFFFFFFFFFFFFC000
007FFFFFFFFFFFFFFFFFFFFFFFFF8000
003FFFFFFFFFFFFFFFFFFFFFFFFF0000
001FFFFFFFFFFFFFFFFFFFFFFFFE0000
000FFFFFFFFFFFFFFFFFFFFFFFFC0000
0007FFFFFFFFFFFFFFFFFFFEFFF80000
0003FFFFFFFFFFFFFFFFFFFCFFF00000
0001FFFFFFFFFFFFFFFFFFF87FF00000
0000FFFFFFFFFFFFFFFFFFF07FE00000
00007FFFFFFFFFFFFFFFFFE03FC00000
00003FFFFFFFFFFFFFFFFFC01F800000
00001FFFFFFFFFFFFFFFFF801F000000
00000FFFFFFFFFFFFFFFFF000E000000
000007FFFFFFFFFFFFFFFE000E000000
000003FFFFFFFFFFFFFFFC0004000000
ENDCHAR
STARTCHAR 0052
ENCODING 82
SWIDTH 758 0
DWIDTH 129 0
BBX 119 142 0 0
BITMAP
FFFFFFFFFFFFFFFFFFFFFF00000000
FFFFFFFFFFFFFFFFFFFFFF80000000
FFFFFFFFFFFFFFFFFFFFFFC0000000
FFFFFFFFFFFFFFFFFFFFFFE0000000
FFFFFFFFFFFFFFFFFFFFFFF0000000
FFFFFFFFFFFFFFFFFFFFFFF8000000
FFFFFFFFFFFFFFFFFFFFFFFC000000
FFFFFFFFFFFFFFFFFFFFFFFE000000
FFFFFFFFFFFFFFFFFFFFFFFF000000
FFFFFFFFFFFFFFFFFFFFFFFF800000
FFFFFFFFFFFFFFFFFFFFFFFFC00000
FFFFFFFFFFFFFFFFFFFFFFFFE00000
FFFFFFFFFFFFFFFFFFFFFFFFF00000
FFFFFFFFFFFFFFFFFFFFFFFFF80000
FFFFFFFFFFFFFFFFFFFFFFFFFC0000
FFFFFFFFFFFFFFFFFFFFFFFFFE0000
FFFFFFFFFFFFFFFFFFFFFFFFFF0000
FFFFFFFFFFFFFFFFFFFFFFFFFF8000
FFFFFFFFFFFFFFFFFFFFFFFFFFC000
FFFFFFFFFFFFFFFFFFFFFFFFFFE000
FFFFFFFFFFFFFFFFFFFFFFFFFFF000
FFFFFFFFFFFFFFFFFFFFFFFFFFF800
FFFFFFFFFFFFFFFFFFFFFFFFFFFC00
FFFFFFFFFFFFFFFFFFFFFFFFFFFC00
FFFFFFFFFFFFFFFFFFFFFFFFFFFC00
FFFFFFFFFFFFFFFFFFFFFFFFFFFC00
FFFFFFFFFFFFFFFFFFFFFFFFFFFC00
FFFFFFFFFFFFFFFFFFFFFFFFFFFC00
FFFFFFFFFFFFFFFFFFFFFFFFFFFC00
FFFFFFFFFFFFFFFFFFFFFFFFFFFC00
FFFFFFFFFFFFFFFFFFFFFFFFFFFC00
FFFFFFFFFFFFFFFFFFFFFFFFFFFC00
007FFFFFFFFF00001FFFFFFFFFFC00
007FFFFFFFFF00000FFFFFFFFFFC00
007FFFFFFFFF000007FFFFFFFFFC00
007FFFFFFFFF000003FFFFFFFFFC00
007FFFFFFFFF000001FFFFFFFFFC00
007FFFFFFFFF000001FFFFFFFFFC00
007FFFFFFFFF000001FFFFFFFFFC00
007FFFFFFFFF000001FFFFFFFFFC00
007FFFFFFFFF000001FFFFFFFFFC00
007FFFFFFFFF000001FFFFFFFFFC00
007FFFFFFFFF000001FFFFFFFFFC00
007FFFFFFFFF000001FFFFFFFFFC00
007FFFFFFFFF000001FFFFFFFFFC00
007FFFFFFFFF000001FFFFFFFFFC00
007FFFFFFFFF000001FFFFFFFFFC00
007FFFFFFFFF000001FFFFFFFFFC00
007FFFFFFFFF000001FFFFFFFFFC00
007FFFFFFFFF000003FFFFFFFFFC00
007FFFFFFFFF000007FFFFFFFFFC00
007FFFFFFFFF00000FFFFFFFFFFC00
007FFFFFFFFF00001FFFFFFFFFFC00
007FFFFFFFFFFFFFFFFFFFFFFFFC00
007FFFFFFFFFFFFFFFFFFFFFFFFC00
007FFFFFFFFFFFFFFFFFFFFFFFFC00
007FFFFFFFFFFFFFFFFFFFFFFFFC00
007FFFFFFFFFFFFFFFFFFFFFFFFC00
007FFFFFFFFFFFFFFFFFFFFFFFFC00
007FFFFFFFFFFFFFFFFFFFFFFFFC00
007FFFFFFFFFFFFFFFFFFFFFFFF800
007FFFFFFFFFFFFFFFFFFFFFFFF000
007FFFFFFFFFFFFFFFFFFFFFFFE000
007FFFFFFFFFFFFFFFFFFFFFFFC000
007FFFFFFFFFFFFFFFFFFFFFFF8000
007FFFFFFFFFFFFFFFFFFFFFFF0000
007FFFFFFFFFFFFFFFFFFFFFFE0000
007FFFFFFFFFFFFFFFFFFFFFFC0000
007FFFFFFFFFFFFFFFFFFFFFF80000
007FFFFFFFFFFFFFFFFFFFFFFC0000
007FFFFFFFFFFFFFFFFFFFFFFE0000
007FFFFFFFFFFFFFFFFFFFFFFF0000
007FFFFFFFFFFFFFFFFFFFFFFF8000
007FFFFFFFFFFFFFFFFFFFFFFFC000
007FFFFFFFFFFFFFFFFFFFFFFFE000
007FFFFFFFFFFFFFFFFFFFFFFFF000
007FFFFFFFFFFFFFFFFFFFFFFFF800
007FFFFFFFFFFFFFFFFFFFFFFFFC00
007FFFFFFFFFFFFFFFFFFFFFFFFC00
007FFFFFFFFFFFFFFFFFFFFFFFFC00
007FFFFFFFFFFFFFFFFFFFFFFFFC00
007FFFFFFFFFFFFFFFFFFFFFFFFC00
007FFFFFFFFFFFFFFFFFFFFFFFFC00
007FFFFFFFFFFFFFFFFFFFFFFFFC00
007FFFFFFFFF00001FFFFFFFFFFC00
007FFFFFFFFF00000FFFFFFFFFFC00
007FFFFFFFFF000007FFFFFFFFFC00
007FFFFFFFFF000007FFFFFFFFFC00
007FFFFFFFFF000003FFFFFFFFFC00
007FFFFFFFFF000001FFFFFFFFFC00
007FFFFFFFFF000001FFFFFFFFFC00
007FFFFFFFFF000001FFFFFFFFFC00
007FFFFFFFFF000001FFFFFFFFFC00
007FFFFFFFFF000001FFFFFFFFFC00
007FFFFFFFFF000001FFFFFFFFFC00
007FFFFFFFFF000001FFFFFFFFFC00
007FFFFFFFFF000001FFFFFFFFFC00
007FFFFFFFFF000001FFFFFFFFFC00
007FFFFFFFFF000001FFFFFFFFFC00
007FFFFFFFFF000001FFFFFFFFFC00
007FFFFFFFFF000001FFFFFFFFFC00
007FFFFFFFFF000001FFFFFFFFFC00
007FFFFFFFFF000001FFFFFFFFFC00
007FFFFFFFFF000001FFFFFFFFFC00
007FFFFFFFFF000001FFFFFFFFFC00
007FFFFFFFFF000001FFFFFFFFFC00
007FFFFFFFFF000001FFFFFFFFFC00
007FFFFFFFFF000001FFFFFFFFFC00
007FFFFFFFFF000001FFFFFFFFFC00
007FFFFFFFFF000001FFFFFFFFFC00
FFFFFFFFFFFFFF0001FFFFFFFFFFFE
FFFFFFFFFFFFFF0001FFFFFFFFFFFE
FFFFFFFFFFFFFF0001FFFFFFFFFFFE
FFFFFFFFFFFFFF0001FFFFFFFFFFFE
FFFFFFFFFFFFFF0001FFFFFFFFFFFE
FFFFFFFFFFFFFF0001FFFFFFFFFFFE
FFFFFFFFFFFFFF0001FFFFFFFFFFFE
FFFFFFFFFFFFFF0001FFFFFFFFFFFE
FFFFFFFFFFFFFF0001FFFFFFFFFFFE
FFFFFFFFFFFFFF0001FFFFFFFFFFFE
FFFFFFFFFFFFFF0001FFFFFFFFFFFE
FFFFFFFFFFFFFF0001FFFFFFFFFFFE
FFFFFFFFFFFFFF0001FFFFFFFFFFFE
FFFFFFFFFFFFFF0001FFFFFFFFFFFE
FFFFFFFFFFFFFF0001FFFFFFFFFFFE
FFFFFFFFFFFFFF0001FFFFFFFFFFFE
FFFFFFFFFFFFFF0001FFFFFFFFFFFE
FFFFFFFFFFFFFF0001FFFFFFFFFFFE
FFFFFFFFFFFFFF0001FFFFFFFFFFFE
FFFFFFFFFFFFFF0001FFFFFFFFFFFE
FFFFFFFFFFFFFF0001FFFFFFFFFFFE
FFFFFFFFFFFFFF0001FFFFFFFFFFFE
FFFFFFFFFFFFFF0001FFFFFFFFFFFE
FFFFFFFFFFFFFF0001FFFFFFFFFFFE
FFFFFFFFFFFFFF0001FFFFFFFFFFFE
FFFFFFFFFFFFFF0001FFFFFFFFFFFE
FFFFFFFFFFFFFF0001FFFFFFFFFFFE
FFFFFFFFFFFFFF0001FFFFFFFFFFFE
FFFFFFFFFFFFFF0001FFFFFFFFFFFE
FFFFFFFFFFFFFF0001FFFFFFFFFFFE
FFFFFFFFFFFFFF0001FFFFFFFFFFFE
FFFFFFFFFFFFFF0001FFFFFFFFFFFE
ENDCHAR
STARTCHAR 0053
ENCODING 83
SWIDTH 694 0
DWIDTH 118 0
BBX 108 142 0 0
BITMAP
000003FFFFFFFFFFFFFFF8000000
000007FFFFFFFFFFFFFFFC000000
00000FFFFFFFFFFFFFFFFE000000
00001FFFFFFFFFFFFFFFFF000000
00003FFFFFFFFFFFFFFFFF800000
00007FFFFFFFFFFFFFFFFFC00000
0000FFFFFFFFFFFFFFFFFFE00000
0001FFFFFFFFFFFFFFFFFFF00000
0003FFFFFFFFFFFFFFFFFFF80000
0007FFFFFFFFFFFFFFFFFFFC0000
000FFFFFFFFFFFFFFFFFFFFE0000
001FFFFFFFFFFFFFFFFFFFFF0000
003FFFFFFFFFFFFFFFFFFFFF8000
007FFFFFFFFFFFFFFFFFFFFFC000
00FFFFFFFFFFFFFFFFFFFFFFE000
01FFFFFFFFFFFFFFFFFFFFFFF000
03FFFFFFFFFFFFFFFFFFFFFFF800
07FFFFFFFFFFFFFFFFFFFFFFFC00
0FFFFFFFFFFFFFFFFFFFFFFFFE00
1FFFFFFFFFFFFFFFFFFFFFFFFF00
3FFFFFFFFFFFFFFFFFFFFFFFFF80
7FFFFFFFFFFFFFFFFFFFFFFFFFC0
FFFFFFFFFFFFFFFFFFFFFFFFFFE0
FFFFFFFFFFFFFFFFFFFFFFFFFFF0
FFFFFFFFFFFFFFFFFFFFFFFFFFF0
FFFFFFFFFFFFFFFFFFFFFFFFFFF0
FFFFFFFFFFFFFFFFFFFFFFFFFFF0
FFFFFFFFFFFFFFFFFFFFFFFFFFF0
FFFFFFFFFFFFFFFFFFFFFFFFFFF0
FFFFFFFFFFFFFFFFFFFFFFFFFFF0
FFFFFFFFFFFFFFFFFFFFFFFFFFF0
FFFFFFFFFFFFFFFFFFFFFFFFFFF0
FFFFFFFFFFE000007FFFFFFFFFF0
FFFFFFFFFFC000003FFFFFFFFFF0
FFFFFFFFFF8000001FFFFFFFFFF0
FFFFFFFFFF0000000FFFFFFFFFF0
FFFFFFFFFE00000007FFFFFFFFF0
FFFFFFFFFE00000007FFFFFFFFF0
FFFFFFFFFE00000007FFFFFFFFF0
FFFFFFFFFE00000007FFFFFFFFF0
FFFFFFFFFE00000007FFFFFFFFF0
FFFFFFFFFE00000007FFFFFFFFF0
FFFFFFFFFE00000007FFFFFFFFF0
FFFFFFFFFE00000007FFFFFFFFF0
FFFFFFFFFE00000007FFFFFFFFF0
FFFFFFFFFE00000007FFFFFFFFF0
FFFFFFFFFE00000007FFFFFFFFF0
FFFFFFFFFE00000007FFFFFFFFF0
FFFFFFFFFE00000007FFFFFFFFF0
FFFFFFFFFE00000007FFFFFFFFF0
FFFFFFFFFE00000007FFFFFFFFF0
FFFFFFFFFF000000000000000000
FFFFFFFFFF800000000000000000
FFFFFFFFFFC00000000000000000
FFFFFFFFFFE00000000000000000
FFFFFFFFFFF00000000000000000
FFFFFFFFFFFFFFFFFFFFFC000000
FFFFFFFFFFFFFFFFFFFFFE000000
FFFFFFFFFFFFFFFFFFFFFF000000
FFFFFFFFFFFFFFFFFFFFFF800000
FFFFFFFFFFFFFFFFFFFFFFC00000
FFFFFFFFFFFFFFFFFFFFFFE00000
FFFFFFFFFFFFFFFFFFFFFFF00000
FFFFFFFFFFFFFFFFFFFFFFF80000
FFFFFFFFFFFFFFFFFFFFFFFC0000
7FFFFFFFFFFFFFFFFFFFFFFE0000
3FFFFFFFFFFFFFFFFFFFFFFF0000
1FFFFFFFFFFFFFFFFFFFFFFF8000
0FFFFFFFFFFFFFFFFFFFFFFFC000
07FFFFFFFFFFFFFFFFFFFFFFE000
03FFFFFFFFFFFFFFFFFFFFFFF000
01FFFFFFFFFFFFFFFFFFFFFFF800
00FFFFFFFFFFFFFFFFFFFFFFFC00
007FFFFFFFFFFFFFFFFFFFFFFE00
003FFFFFFFFFFFFFFFFFFFFFFF00
001FFFFFFFFFFFFFFFFFFFFFFF80
000FFFFFFFFFFFFFFFFFFFFFFFC0
0007FFFFFFFFFFFFFFFFFFFFFFE0
0003FFFFFFFFFFFFFFFFFFFFFFF0
0001FFFFFFFFFFFFFFFFFFFFFFF0
0000FFFFFFFFFFFFFFFFFFFFFFF0
00007FFFFFFFFFFFFFFFFFFFFFF0
00003FFFFFFFFFFFFFFFFFFFFFF0
00001FFFFFFFFFFFFFFFFFFFFFF0
00000FFFFFFFFFFFFFFFFFFFFFF0
000007FFFFFFFFFFFFFFFFFFFFF0
000003FFFFFFFFFFFFFFFFFFFFF0
0000000000000000FFFFFFFFFFF0
00000000000000007FFFFFFFFFF0
00000000000000003FFFFFFFFFF0
00000000000000001FFFFFFFFFF0
00000000000000000FFFFFFFFFF0
FFFFFFFFFE00000007FFFFFFFFF0
FFFFFFFFFE00000007FFFFFFFFF0
FFFFFFFFFE00000007FFFFFFFFF0
FFFFFFFFFE00000007FFFFFFFFF0
FFFFFFFFFE00000007FFFFFFFFF0
FFFFFFFFFE00000007FFFFFFFFF0
FFFFFFFFFE00000007FFFFFFFFF0
FFFFFFFFFE00000007FFFFFFFFF0
FFFFFFFFFE00000007FFFFFFFFF0
FFFFFFFFFE00000007FFFFFFFFF0
FFFFFFFFFE00000007FFFFFFFFF0
FFFFFFFFFE00000007FFFFFFFFF0
FFFFFFFFFE00000007FFFFFFFFF0
FFFFFFFFFE00000007FFFFFFFFF0
FFFFFFFFFF0000000FFFFFFFFFF0
FFFFFFFFFF8000001FFFFFFFFFF0
FFFFFFFFFFC000003FFFFFFFFFF0
FFFFFFFFFFE000007FFFFFFFFFF0
FFFFFFFFFFFFFFFFFFFFFFFFFFF0
FFFFFFFFFFFFFFFFFFFFFFFFFFF0
FFFFFFFFFFFFFFFFFFFFFFFFFFF0
FFFFFFFFFFFFFFFFFFFFFFFFFFF0
FFFFFFFFFFFFFFFFFFFFFFFFFFF0
FFFFFFFFFFFFFFFFFFFFFFFFFFF0
FFFFFFFFFFFFFFFFFFFFFFFFFFF0
FFFFFFFFFFFFFFFFFFFFFFFFFFF0
FFFFFFFFFFFFFFFFFFFFFFFFFFF0
FFFFFFFFFFFFFFFFFFFFFFFFFFF0
7FFFFFFFFFFFFFFFFFFFFFFFFFE0
3FFFFFFFFFFFFFFFFFFFFFFFFFC0
1FFFFFFFFFFFFFFFFFFFFFFFFF80
0FFFFFFFFFFFFFFFFFFFFFFFFF00
07FFFFFFFFFFFFFFFFFFFFFFFE00
03FFFFFFFFFFFFFFFFFFFFFFFC00
01FFFFFFFFFFFFFFFFFFFFFFF800
00FFFFFFFFFFFFFFFFFFFFFFF000
007FFFFFFFFFFFFFFFFFFFFFE000
003FFFFFFFFFFFFFFFFFFFFFC000
001FFFFFFFFFFFFFFFFFFFFF8000
000FFFFFFFFFFFFFFFFFFFFF0000
0007FFFFFFFFFFFFFFFFFFFE0000
0003FFFFFFFFFFFFFFFFFFFC0000
0001FFFFFFFFFFFFFFFFFFF80000
0000FFFFFFFFFFFFFFFFFFF00000
00007FFFFFFFFFFFFFFFFFE00000
00003FFFFFFFFFFFFFFFFFC00000
00001FFFFFFFFFFFFFFFFF800000
00000FFFFFFFFFFFFFFFFF000000
000007FFFFFFFFFFFFFFFE000000
000003FFFFFFFFFFFFFFFC000000
ENDCHAR
STARTCHAR 0054
ENCODING 84
SWIDTH 752 0
DWIDTH 128 0
BBX 120 142 0 0
BITMAP
FFFFFFFFFFFFFFFFFFFFFFFFFFFFFF
FFFFFFFFFFFFFFFFFFFFFFFFFFFFFF
FFFFFFFFFFFFFFFFFFFFFFFFFFFFFF
FFFFFFFFFFFFFFFFFFFFFFFFFFFFFF
FFFFFFFFFFFFFFFFFFFFFFFFFFFFFF
FFFFFFFFFFFFFFFFFFFFFFFFFFFFFF
FFFFFFFFFFFFFFFFFFFFFFFFFFFFFF
FFFFFFFFFFFFFFFFFFFFFFFFFFFFFF
FFFFFFFFFFFFFFFFFFFFFFFFFFFFFF
FFFFFFFFFFFFFFFFFFFFFFFFFFFFFF
FFFFFFFFFFFFFFFFFFFFFFFFFFFFFF
FFFFFFFFFFFFFFFFFFFFFFFFFFFFFF
FFFFFFFFFFFFFFFFFFFFFFFFFFFFFF
FFFFFFFFFFFFFFFFFFFFFFFFFFFFFF
FFFFFFFFFFFFFFFFFFFFFFFFFFFFFF
FFFFFFFFFFFFFFFFFFFFFFFFFFFFFF
FFFFFFFFFFFFFFFFFFFFFFFFFFFFFF
FFFFFFFFFFFFFFFFFFFFFFFFFFFFFF
FFFFFFFFFFFFFFFFFFFFFFFFFFFFFF
FFFFFFFFFFFFFFFFFFFFFFFFFFFFFF
FFFFFFFFFFFFFFFFFFFFFFFFFFFFFF
FFFFFFFFFFFFFFFFFFFFFFFFFFFFFF
FFFFFFFFFFFFFFFFFFFFFFFFFFFFFF
FFFFFFFFFFFFFFFFFFFFFFFFFFFFFF
FFFFFFFFFFFFFFFFFFFFFFFFFFFFFF
FFFFFFFFFFFFFFFFFFFFFFFFFFFFFF
FFFFFFFFFFFFFFFFFFFFFFFFFFFFFF
FFFFFFFFFFFFFFFFFFFFFFFFFFFFFF
FFFFFFFFFFFFFFFFFFFFFFFFFFFFFF
FFFFFFFFFFFFFFFFFFFFFFFFFFFFFF
FFFFFFFFFFFFFFFFFFFFFFFFFFFFFF
FFFFFFFFFFFFFFFFFFFFFFFFFFFFFF
FFFFFFFF00FFFFFFFFFE00FFFFFFFF
FFFFFFFF00FFFFFFFFFE00FFFFFFFF
FFFFFFFF00FFFFFFFFFE00FFFFFFFF
FFFFFFFF00FFFFFFFFFE00FFFFFFFF
FFFFFFFF00FFFFFFFFFE00FFFFFFFF
FFFFFFFF00FFFFFFFFFE00FFFFFFFF
FFFFFFFF00FFFFFFFFFE00FFFFFFFF
FFFFFFFF00FFFFFFFFFE00FFFFFFFF
FFFFFFFF00FFFFFFFFFE00FFFFFFFF
0000000000FFFFFFFFFE0000000000
0000000000FFFFFFFFFE0000000000
0000000000FFFFFFFFFE0000000000
0000000000FFFFFFFFFE0000000000
0000000000FFFFFFFFFE0000000000
0000000000FFFFFFFFFE0000000000
0000000000FFFFFFFFFE0000000000
0000000000FFFFFFFFFE0000000000
0000000000FFFFFFFFFE0000000000
0000000000FFFFFFFFFE0000000000
0000000000FFFFFFFFFE0000000000
0000000000FFFFFFFFFE0000000000
0000000000FFFFFFFFFE0000000000
0000000000FFFFFFFFFE0000000000
0000000000FFFFFFFFFE0000000000
0000000000FFFFFFFFFE0000000000
0000000000FFFFFFFFFE0000000000
0000000000FFFFFFFFFE0000000000
0000000000FFFFFFFFFE0000000000
0000000000FFFFFFFFFE0000000000
0000000000FFFFFFFFFE0000000000
0000000000FFFFFFFFFE0000000000
0000000000FFFFFFFFFE0000000000
0000000000FFFFFFFFFE0000000000
0000000000FFFFFFFFFE0000000000
0000000000FFFFFFFFFE0000000000
0000000000FFFFFFFFFE0000000000
0000000000FFFFFFFFFE0000000000
0000000000FFFFFFFFFE0000000000
0000000000FFFFFFFFFE0000000000
0000000000FFFFFFFFFE0000000000
0000000000FFFFFFFFFE0000000000
0000000000FFFFFFFFFE0000000000
0000000000FFFFFFFFFE0000000000
0000000000FFFFFFFFFE0000000000
0000000000FFFFFFFFFE0000000000
0000000000FFFFFFFFFE0000000000
0000000000FFFFFFFFFE0000000000
0000000000FFFFFFFFFE0000000000
0000000000FFFFFFFFFE0000000000
0000000000FFFFFFFFFE0000000000
0000000000FFFFFFFFFE0000000000
0000000000FFFFFFFFFE0000000000
0000000000FFFFFFFFFE0000000000
0000000000FFFFFFFFFE0000000000
0000000000FFFFFFFFFE0000000000
0000000000FFFFFFFFFE0000000000
0000000000FFFFFFFFFE0000000000
0000000000FFFFFFFFFE0000000000
0000000000FFFFFFFFFE0000000000
0000000000FFFFFFFFFE0000000000
0000000000FFFFFFFFFE0000000000
0000000000FFFFFFFFFE0000000000
0000000000FFFFFFFFFE0000000000
0000000000FFFFFFFFFE0000000000
0000000000FFFFFFFFFE0000000000
0000000000FFFFFFFFFE0000000000
0000000000FFFFFFFFFE0000000000
0000000000FFFFFFFFFE0000000000
0000000000FFFFFFFFFE0000000000
0000000000FFFFFFFFFE0000000000
0000000000FFFFFFFFFE0000000000
0000000000FFFFFFFFFE0000000000
0000000000FFFFFFFFFE0000000000
0000000000FFFFFFFFFE0000000000
0000000000FFFFFFFFFE0000000000
0000000000FFFFFFFFFE0000000000
0000000000FFFFFFFFFE0000000000
0000000000FFFFFFFFFE0000000000
00000000FFFFFFFFFFFFFF00000000
00000000FFFFFFFFFFFFFF00000000
00000000FFFFFFFFFFFFFF00000000
00000000FFFFFFFFFFFFFF00000000
00000000FFFFFFFFFFFFFF00000000
00000000FFFFFFFFFFFFFF00000000
00000000FFFFFFFFFFFFFF00000000
00000000FFFFFFFFFFFFFF00000000
00000000FFFFFFFFFFFFFF00000000
00000000FFFFFFFFFFFFFF00000000
00000000FFFFFFFFFFFFFF00000000
00000000FFFFFFFFFFFFFF00000000
00000000FFFFFFFFFFFFFF00000000
00000000FFFFFFFFFFFFFF00000000
00000000FFFFFFFFFFFFFF00000000
00000000FFFFFFFFFFFFFF00000000
00000000FFFFFFFFFFFFFF00000000
00000000FFFFFFFFFFFFFF00000000
00000000FFFFFFFFFFFFFF00000000
00000000FFFFFFFFFFFFFF00000000
00000000FFFFFFFFFFFFFF00000000
00000000FFFFFFFFFFFFFF00000000
00000000FFFFFFFFFFFFFF00000000
00000000FFFFFFFFFFFFFF00000000
00000000FFFFFFFFFFFFFF00000000
00000000FFFFFFFFFFFFFF00000000
00000000FFFFFFFFFFFFFF00000000
00000000FFFFFFFFFFFFFF00000000
00000000FFFFFFFFFFFFFF00000000
00000000FFFFFFFFFFFFFF00000000
00000000FFFFFFFFFFFFFF00000000
00000000FFFFFFFFFFFFFF00000000
ENDCHAR
STARTCHAR 0055
ENCODING 85
SWIDTH 794 0
DWIDTH 135 0
BBX 125 142 0 0
BITMAP
FFFFFFFFFFFFFF0007FFFFFFFFFFFFF8
FFFFFFFFFFFFFF0007FFFFFFFFFFFFF8
FFFFFFFFFFFFFF0007FFFFFFFFFFFFF8
FFFFFFFFFFFFFF0007FFFFFFFFFFFFF8
FFFFFFFFFFFFFF0007FFFFFFFFFFFFF8
FFFFFFFFFFFFFF0007FFFFFFFFFFFFF8
FFFFFFFFFFFFFF0007FFFFFFFFFFFFF8
FFFFFFFFFFFFFF0007FFFFFFFFFFFFF8
FFFFFFFFFFFFFF0007FFFFFFFFFFFFF8
FFFFFFFFFFFFFF0007FFFFFFFFFFFFF8
FFFFFFFFFFFFFF0007FFFFFFFFFFFFF8
FFFFFFFFFFFFFF0007FFFFFFFFFFFFF8
FFFFFFFFFFFFFF0007FFFFFFFFFFFFF8
FFFFFFFFFFFFFF0007FFFFFFFFFFFFF8
FFFFFFFFFFFFFF0007FFFFFFFFFFFFF8
FFFFFFFFFFFFFF0007FFFFFFFFFFFFF8
FFFFFFFFFFFFFF0007FFFFFFFFFFFFF8
FFFFFFFFFFFFFF0007FFFFFFFFFFFFF8
FFFFFFFFFFFFFF0007FFFFFFFFFFFFF8
FFFFFFFFFFFFFF0007FFFFFFFFFFFFF8
FFFFFFFFFFFFFF0007FFFFFFFFFFFFF8
FFFFFFFFFFFFFF0007FFFFFFFFFFFFF8
FFFFFFFFFFFFFF0007FFFFFFFFFFFFF8
FFFFFFFFFFFFFF0007FFFFFFFFFFFFF8
FFFFFFFFFFFFFF0007FFFFFFFFFFFFF8
FFFFFFFFFFFFFF0007FFFFFFFFFFFFF8
FFFFFFFFFFFFFF0007FFFFFFFFFFFFF8
FFFFFFFFFFFFFF0007FFFFFFFFFFFFF8
FFFFFFFFFFFFFF0007FFFFFFFFFFFFF8
FFFFFFFFFFFFFF0007FFFFFFFFFFFFF8
FFFFFFFFFFFFFF0007FFFFFFFFFFFFF8
FFFFFFFFFFFFFF0007FFFFFFFFFFFFF8
007FFFFFFFFF00000007FFFFFFFFF000
007FFFFFFFFF00000007FFFFFFFFF000
007FFFFFFFFF00000007FFFFFFFFF000
007FFFFFFFFF00000007FFFFFFFFF000
007FFFFFFFFF00000007FFFFFFFFF000
007FFFFFFFFF00000007FFFFFFFFF000
007FFFFFFFFF00000007FFFFFFFFF000
007FFFFFFFFF00000007FFFFFFFFF000
007FFFFFFFFF00000007FFFFFFFFF000
007FFFFFFFFF00000007FFFFFFFFF000
007FFFFFFFFF00000007FFFFFFFFF000
007FFFFFFFFF00000007FFFFFFFFF000
007FFFFFFFFF00000007FFFFFFFFF000
007FFFFFFFFF00000007FFFFFFFFF000
007FFFFFFFFF00000007FFFFFFFFF000
007FFFFFFFFF00000007FFFFFFFFF000
007FFFFFFFFF00000007FFFFFFFFF000
007FFFFFFFFF00000007FFFFFFFFF000
007FFFFFFFFF00000007FFFFFFFFF000
007FFFFFFFFF00000007FFFFFFFFF000
007FFFFFFFFF00000007FFFFFFFFF000
007FFFFFFFFF00000007FFFFFFFFF000
007FFFFFFFFF00000007FFFFFFFFF000
007FFFFFFFFF00000007FFFFFFFFF000
007FFFFFFFFF00000007FFFFFFFFF000
007FFFFFFFFF00000007FFFFFFFFF000
007FFFFFFFFF00000007FFFFFFFFF000
007FFFFFFFFF00000007FFFFFFFFF000
007FFFFFFFFF00000007FFFFFFFFF000
007FFFFFFFFF00000007FFFFFFFFF000
007FFFFFFFFF00000007FFFFFFFFF000
007FFFFFFFFF00000007FFFFFFFFF000
007FFFFFFFFF00000007FFFFFFFFF000
007FFFFFFFFF00000007FFFFFFFFF000
007FFFFFFFFF00000007FFFFFFFFF000
007FFFFFFFFF00000007FFFFFFFFF000
007FFFFFFFFF00000007FFFFFFFFF000
007FFFFFFFFF00000007FFFFFFFFF000
007FFFFFFFFF00000007FFFFFFFFF000
007FFFFFFFFF00000007FFFFFFFFF000
007FFFFFFFFF00000007FFFFFFFFF000
007FFFFFFFFF00000007FFFFFFFFF000
007FFFFFFFFF00000007FFFFFFFFF000
007FFFFFFFFF00000007FFFFFFFFF000
007FFFFFFFFF00000007FFFFFFFFF000
007FFFFFFFFF00000007FFFFFFFFF000
007FFFFFFFFF00000007FFFFFFFFF000
007FFFFFFFFF00000007FFFFFFFFF000
007FFFFFFFFF00000007FFFFFFFFF000
007FFFFFFFFF00000007FFFFFFFFF000
007FFFFFFFFF00000007FFFFFFFFF000
007FFFFFFFFF00000007FFFFFFFFF000
007FFFFFFFFF00000007FFFFFFFFF000
007FFFFFFFFF00000007FFFFFFFFF000
007FFFFFFFFF00000007FFFFFFFFF000
007FFFFFFFFF00000007FFFFFFFFF000
007FFFFFFFFF00000007FFFFFFFFF000
007FFFFFFFFF00000007FFFFFFFFF000
007FFFFFFFFF00000007FFFFFFFFF000
007FFFFFFFFF00000007FFFFFFFFF000
007FFFFFFFFF00000007FFFFFFFFF000
007FFFFFFFFF00000007FFFFFFFFF000
007FFFFFFFFF00000007FFFFFFFFF000
007FFFFFFFFF00000007FFFFFFFFF000
007FFFFFFFFF00000007FFFFFFFFF000
007FFFFFFFFF00000007FFFFFFFFF000
007FFFFFFFFF00000007FFFFFFFFF000
007FFFFFFFFF00000007FFFFFFFFF000
007FFFFFFFFF00000007FFFFFFFFF000
007FFFFFFFFF00000007FFFFFFFFF000
007FFFFFFFFF00000007FFFFFFFFF000
007FFFFFFFFF00000007FFFFFFFFF000
007FFFFFFFFF00000007FFFFFFFFF000
007FFFFFFFFF00000007FFFFFFFFF000
007FFFFFFFFF8000000FFFFFFFFFF000
007FFFFFFFFFC000001FFFFFFFFFF000
007FFFFFFFFFE000003FFFFFFFFFF000
007FFFFFFFFFF000007FFFFFFFFFF000
007FFFFFFFFFFFFFFFFFFFFFFFFFF000
007FFFFFFFFFFFFFFFFFFFFFFFFFF000
007FFFFFFFFFFFFFFFFFFFFFFFFFF000
007FFFFFFFFFFFFFFFFFFFFFFFFFF000
007FFFFFFFFFFFFFFFFFFFFFFFFFF000
007FFFFFFFFFFFFFFFFFFFFFFFFFF000
007FFFFFFFFFFFFFFFFFFFFFFFFFF000
007FFFFFFFFFFFFFFFFFFFFFFFFFF000
007FFFFFFFFFFFFFFFFFFFFFFFFFF000
007FFFFFFFFFFFFFFFFFFFFFFFFFF000
003FFFFFFFFFFFFFFFFFFFFFFFFFE000
001FFFFFFFFFFFFFFFFFFFFFFFFFC000
000FFFFFFFFFFFFFFFFFFFFFFFFF8000
0007FFFFFFFFFFFFFFFFFFFFFFFF0000
0003FFFFFFFFFFFFFFFFFFFFFFFE0000
0001FFFFFFFFFFFFFFFFFFFFFFFC0000
0000FFFFFFFFFFFFFFFFFFFFFFF80000
00007FFFFFFFFFFFFFFFFFFFFFF00000
00003FFFFFFFFFFFFFFFFFFFFFE00000
00001FFFFFFFFFFFFFFFFFFFFFC00000
00000FFFFFFFFFFFFFFFFFFFFF800000
000007FFFFFFFFFFFFFFFFFFFF000000
000003FFFFFFFFFFFFFFFFFFFE000000
000001FFFFFFFFFFFFFFFFFFFC000000
000000FFFFFFFFFFFFFFFFFFF8000000
0000007FFFFFFFFFFFFFFFFFF0000000
0000003FFFFFFFFFFFFFFFFFE0000000
0000001FFFFFFFFFFFFFFFFFC0000000
0000000FFFFFFFFFFFFFFFFF80000000
00000007FFFFFFFFFFFFFFFF00000000
00000003FFFFFFFFFFFFFFFE00000000
00000001FFFFFFFFFFFFFFFC00000000
ENDCHAR
STARTCHAR 0056
ENCODING 86
SWIDTH 858 0
DWIDTH 146 0
BBX 138 142 0 0
BITMAP
FFFFFFFFFFFFFF800001FFFFFFFFFFFFFFC0
FFFFFFFFFFFFFF800001FFFFFFFFFFFFFFC0
FFFFFFFFFFFFFF800001FFFFFFFFFFFFFFC0
FFFFFFFFFFFFFF800001FFFFFFFFFFFFFFC0
FFFFFFFFFFFFFF800001FFFFFFFFFFFFFFC0
FFFFFFFFFFFFFF800001FFFFFFFFFFFFFFC0
FFFFFFFFFFFFFF800001FFFFFFFFFFFFFFC0
FFFFFFFFFFFFFF800001FFFFFFFFFFFFFFC0
FFFFFFFFFFFFFF800001FFFFFFFFFFFFFFC0
FFFFFFFFFFFFFF800001FFFFFFFFFFFFFFC0
FFFFFFFFFFFFFF800001FFFFFFFFFFFFFFC0
FFFFFFFFFFFFFF800001FFFFFFFFFFFFFFC0
FFFFFFFFFFFFFF800001FFFFFFFFFFFFFFC0
FFFFFFFFFFFFFF800001FFFFFFFFFFFFFFC0
FFFFFFFFFFFFFF800001FFFFFFFFFFFFFFC0
FFFFFFFFFFFFFF800001FFFFFFFFFFFFFFC0
FFFFFFFFFFFFFF800001FFFFFFFFFFFFFFC0
FFFFFFFFFFFFFF800001FFFFFFFFFFFFFFC0
FFFFFFFFFFFFFF800001FFFFFFFFFFFFFFC0
FFFFFFFFFFFFFF800001FFFFFFFFFFFFFFC0
FFFFFFFFFFFFFF800001FFFFFFFFFFFFFFC0
FFFFFFFFFFFFFF800001FFFFFFFFFFFFFFC0
FFFFFFFFFFFFFF800001FFFFFFFFFFFFFFC0
FFFFFFFFFFFFFF800001FFFFFFFFFFFFFFC0
FFFFFFFFFFFFFF800001FFFFFFFFFFFFFFC0
FFFFFFFFFFFFFF800001FFFFFFFFFFFFFFC0
FFFFFFFFFFFFFF800001FFFFFFFFFFFFFFC0
FFFFFFFFFFFFFF800001FFFFFFFFFFFFFFC0
FFFFFFFFFFFFFF800001FFFFFFFFFFFFFFC0
FFFFFFFFFFFFFF800001FFFFFFFFFFFFFFC0
FFFFFFFFFFFFFF800001FFFFFFFFFFFFFFC0
FFFFFFFFFFFFFF800001FFFFFFFFFFFFFFC0
000FFFFFFFFFF80000000FFFFFFFFFF80000
000FFFFFFFFFF80000001FFFFFFFFFF80000
000FFFFFFFFFF80000001FFFFFFFFFF00000
0007FFFFFFFFFC0000001FFFFFFFFFF00000
0007FFFFFFFFFC0000003FFFFFFFFFF00000
0007FFFFFFFFFC0000003FFFFFFFFFE00000
0003FFFFFFFFFE0000003FFFFFFFFFE00000
0003FFFFFFFFFE0000007FFFFFFFFFE00000
0003FFFFFFFFFE0000007FFFFFFFFFC00000
0001FFFFFFFFFF0000007FFFFFFFFFC00000
0001FFFFFFFFFF000000FFFFFFFFFFC00000
0001FFFFFFFFFF000000FFFFFFFFFF800000
0000FFFFFFFFFF800000FFFFFFFFFF800000
0000FFFFFFFFFF800001FFFFFFFFFF800000
0000FFFFFFFFFF800001FFFFFFFFFF000000
00007FFFFFFFFFC00001FFFFFFFFFF000000
00007FFFFFFFFFC00003FFFFFFFFFF000000
00007FFFFFFFFFC00003FFFFFFFFFE000000
00007FFFFFFFFFE00003FFFFFFFFFE000000
00003FFFFFFFFFE00007FFFFFFFFFE000000
00003FFFFFFFFFE00007FFFFFFFFFC000000
00003FFFFFFFFFF00007FFFFFFFFFC000000
00001FFFFFFFFFF0000FFFFFFFFFFC000000
00001FFFFFFFFFF0000FFFFFFFFFF8000000
00001FFFFFFFFFF8000FFFFFFFFFF8000000
00000FFFFFFFFFF8001FFFFFFFFFF8000000
00000FFFFFFFFFF8001FFFFFFFFFF0000000
00000FFFFFFFFFFC001FFFFFFFFFF0000000
000007FFFFFFFFFC003FFFFFFFFFF0000000
000007FFFFFFFFFC003FFFFFFFFFE0000000
000007FFFFFFFFFE003FFFFFFFFFE0000000
000003FFFFFFFFFE007FFFFFFFFFE0000000
000003FFFFFFFFFE007FFFFFFFFFC0000000
000003FFFFFFFFFF007FFFFFFFFFC0000000
000001FFFFFFFFFF00FFFFFFFFFFC0000000
000001FFFFFFFFFF00FFFFFFFFFF80000000
000001FFFFFFFFFF80FFFFFFFFFF80000000
000000FFFFFFFFFF81FFFFFFFFFF80000000
000000FFFFFFFFFF81FFFFFFFFFF00000000
000000FFFFFFFFFFC1FFFFFFFFFF00000000
0000007FFFFFFFFFC3FFFFFFFFFF00000000
0000007FFFFFFFFFC3FFFFFFFFFE00000000
0000007FFFFFFFFFE3FFFFFFFFFE00000000
0000003FFFFFFFFFE7FFFFFFFFFE00000000
0000003FFFFFFFFFE7FFFFFFFFFC00000000
0000003FFFFFFFFFF7FFFFFFFFFC00000000
0000001FFFFFFFFFFFFFFFFFFFFC00000000
0000001FFFFFFFFFFFFFFFFFFFF800000000
0000001FFFFFFFFFFFFFFFFFFFF800000000
0000000FFFFFFFFFFFFFFFFFFFF800000000
0000000FFFFFFFFFFFFFFFFFFFF000000000
0000000FFFFFFFFFFFFFFFFFFFF000000000
00000007FFFFFFFFFFFFFFFFFFF000000000
00000007FFFFFFFFFFFFFFFFFFE000000000
00000007FFFFFFFFFFFFFFFFFFE000000000
00000003FFFFFFFFFFFFFFFFFFE000000000
00000003FFFFFFFFFFFFFFFFFFC000000000
00000003FFFFFFFFFFFFFFFFFFC000000000
00000001FFFFFFFFFFFFFFFFFFC000000000
00000001FFFFFFFFFFFFFFFFFF8000000000
00000001FFFFFFFFFFFFFFFFFF8000000000
00000000FFFFFFFFFFFFFFFFFF8000000000
00000000FFFFFFFFFFFFFFFFFF0000000000
00000000FFFFFFFFFFFFFFFFFF0000000000
000000007FFFFFFFFFFFFFFFFF0000000000
000000007FFFFFFFFFFFFFFFFE0000000000
000000007FFFFFFFFFFFFFFFFE0000000000
000000003FFFFFFFFFFFFFFFFE0000000000
000000003FFFFFFFFFFFFFFFFC0000000000
000000003FFFFFFFFFFFFFFFFC0000000000
000000001FFFFFFFFFFFFFFFFC0000000000
000000001FFFFFFFFFFFFFFFF80000000000
000000001FFFFFFFFFFFFFFFF80000000000
000000000FFFFFFFFFFFFFFFF80000000000
000000000FFFFFFFFFFFFFFFF00000000000
000000000FFFFFFFFFFFFFFFF00000000000
0000000007FFFFFFFFFFFFFFF00000000000
0000000007FFFFFFFFFFFFFFE00000000000
00000001FFFFFFFFFFFFFFFFFFC000000000
00000001FFFFFFFFFFFFFFFFFFC000000000
00000001FFFFFFFFFFFFFFFFFFC000000000
00000001FFFFFFFFFFFFFFFFFFC000000000
00000001FFFFFFFFFFFFFFFFFFC000000000
00000001FFFFFFFFFFFFFFFFFFC000000000
00000001FFFFFFFFFFFFFFFFFFC000000000
00000001FFFFFFFFFFFFFFFFFFC000000000
00000001FFFFFFFFFFFFFFFFFFC000000000
00000001FFFFFFFFFFFFFFFFFFC000000000
00000001FFFFFFFFFFFFFFFFFFC000000000
00000001FFFFFFFFFFFFFFFFFFC000000000
00000001FFFFFFFFFFFFFFFFFFC000000000
00000001FFFFFFFFFFFFFFFFFFC000000000
00000001FFFFFFFFFFFFFFFFFFC000000000
00000001FFFFFFFFFFFFFFFFFFC000000000
00000001FFFFFFFFFFFFFFFFFFC000000000
00000001FFFFFFFFFFFFFFFFFFC000000000
00000001FFFFFFFFFFFFFFFFFFC000000000
00000001FFFFFFFFFFFFFFFFFFC000000000
00000001FFFFFFFFFFFFFFFFFFC000000000
00000001FFFFFFFFFFFFFFFFFFC000000000
00000001FFFFFFFFFFFFFFFFFFC000000000
00000001FFFFFFFFFFFFFFFFFFC000000000
00000001FFFFFFFFFFFFFFFFFFC000000000
00000001FFFFFFFFFFFFFFFFFFC000000000
00000001FFFFFFFFFFFFFFFFFFC000000000
00000001FFFFFFFFFFFFFFFFFFC000000000
00000001FFFFFFFFFFFFFFFFFFC000000000
00000001FFFFFFFFFFFFFFFFFFC000000000
00000001FFFFFFFFFFFFFFFFFFC000000000
00000001FFFFFFFFFFFFFFFFFFC000000000
ENDCHAR
STARTCHAR 0057
ENCODING 87
SWIDTH 1358 0
DWIDTH 231 0
BBX 223 142 0 0
BITMAP
FFFFFFFFFFFFFFE00000FFFFFFFFFFFFFFFE000007FFFFFFFFFFFFFE
FFFFFFFFFFFFFFE00000FFFFFFFFFFFFFFFE000007FFFFFFFFFFFFFE
FFFFFFFFFFFFFFE00000FFFFFFFFFFFFFFFE000007FFFFFFFFFFFFFE
FFFFFFFFFFFFFFE00000FFFFFFFFFFFFFFFE000007FFFFFFFFFFFFFE
FFFFFFFFFFFFFFE00000FFFFFFFFFFFFFFFE000007FFFFFFFFFFFFFE
FFFFFFFFFFFFFFE00000FFFFFFFFFFFFFFFE000007FFFFFFFFFFFFFE
FFFFFFFFFFFFFFE00000FFFFFFFFFFFFFFFE000007FFFFFFFFFFFFFE
FFFFFFFFFFFFFFE00000FFFFFFFFFFFFFFFE000007FFFFFFFFFFFFFE
FFFFFFFFFFFFFFE00000FFFFFFFFFFFFFFFE000007FFFFFFFFFFFFFE
FFFFFFFFFFFFFFE00000FFFFFFFFFFFFFFFE000007FFFFFFFFFFFFFE
FFFFFFFFFFFFFFE00000FFFFFFFFFFFFFFFE000007FFFFFFFFFFFFFE
FFFFFFFFFFFFFFE00000FFFFFFFFFFFFFFFE000007FFFFFFFFFFFFFE
FFFFFFFFFFFFFFE00000FFFFFFFFFFFFFFFE000007FFFFFFFFFFFFFE
FFFFFFFFFFFFFFE00000FFFFFFFFFFFFFFFE000007FFFFFFFFFFFFFE
FFFFFFFFFFFFFFE00000FFFFFFFFFFFFFFFE000007FFFFFFFFFFFFFE
FFFFFFFFFFFFFFE00000FFFFFFFFFFFFFFFE000007FFFFFFFFFFFFFE
FFFFFFFFFFFFFFE00000FFFFFFFFFFFFFFFE000007FFFFFFFFFFFFFE
FFFFFFFFFFFFFFE00000FFFFFFFFFFFFFFFE000007FFFFFFFFFFFFFE
FFFFFFFFFFFFFFE00000FFFFFFFFFFFFFFFE000007FFFFFFFFFFFFFE
FFFFFFFFFFFFFFE00000FFFFFFFFFFFFFFFE000007FFFFFFFFFFFFFE
FFFFFFFFFFFFFFE00000FFFFFFFFFFFFFFFE000007FFFFFFFFFFFFFE
FFFFFFFFFFFFFFE00000FFFFFFFFFFFFFFFE000007FFFFFFFFFFFFFE
FFFFFFFFFFFFFFE00000FFFFFFFFFFFFFFFE000007FFFFFFFFFFFFFE
FFFFFFFFFFFFFFE00000FFFFFFFFFFFFFFFE000007FFFFFFFFFFFFFE
FFFFFFFFFFFFFFE00000FFFFFFFFFFFFFFFE000007FFFFFFFFFFFFFE
FFFFFFFFFFFFFFE00000FFFFFFFFFFFFFFFE000007FFFFFFFFFFFFFE
FFFFFFFFFFFFFFE00000FFFFFFFFFFFFFFFE000007FFFFFFFFFFFFFE
FFFFFFFFFFFFFFE00000FFFFFFFFFFFFFFFE000007FFFFFFFFFFFFFE
FFFFFFFFFFFFFFE00000FFFFFFFFFFFFFFFE000007FFFFFFFFFFFFFE
FFFFFFFFFFFFFFE00000FFFFFFFFFFFFFFFE000007FFFFFFFFFFFFFE
FFFFFFFFFFFFFFE00000FFFFFFFFFFFFFFFE000007FFFFFFFFFFFFFE
FFFFFFFFFFFFFFE00000FFFFFFFFFFFFFFFE000007FFFFFFFFFFFFFE
000FFFFFFFFFFC0000000FFFFFFFFFFFFFE00000003FFFFFFFFFF000
000FFFFFFFFFFC0000000FFFFFFFFFFFFFE00000003FFFFFFFFFF000
000FFFFFFFFFFC0000000FFFFFFFFFFFFFF00000007FFFFFFFFFE000
0007FFFFFFFFFE0000000FFFFFFFFFFFFFF00000007FFFFFFFFFE000
0007FFFFFFFFFE0000001FFFFFFFFFFFFFF00000007FFFFFFFFFE000
0007FFFFFFFFFE0000001FFFFFFFFFFFFFF8000000FFFFFFFFFFC000
0003FFFFFFFFFF0000001FFFFFFFFFFFFFF8000000FFFFFFFFFFC000
0003FFFFFFFFFF0000003FFFFFFFFFFFFFF8000000FFFFFFFFFFC000
0003FFFFFFFFFF0000003FFFFFFFFFFFFFFC000001FFFFFFFFFF8000
0001FFFFFFFFFF8000003FFFFFFFFFFFFFFC000001FFFFFFFFFF8000
0001FFFFFFFFFF8000007FFFFFFFFFFFFFFC000001FFFFFFFFFF8000
0001FFFFFFFFFF8000007FFFFFFFFFFFFFFE000003FFFFFFFFFF0000
0000FFFFFFFFFFC000007FFFFFFFFFFFFFFE000003FFFFFFFFFF0000
0000FFFFFFFFFFC00000FFFFFFFFFFFFFFFE000003FFFFFFFFFF0000
0000FFFFFFFFFFC00000FFFFFFFFFFFFFFFF000007FFFFFFFFFE0000
00007FFFFFFFFFE00000FFFFFFFFFFFFFFFF000007FFFFFFFFFE0000
00007FFFFFFFFFE00001FFFFFFFFFFFFFFFF00000FFFFFFFFFFE0000
00007FFFFFFFFFE00001FFFFFFFFFFFFFFFF80000FFFFFFFFFFC0000
00007FFFFFFFFFF00001FFFFFFFFFFFFFFFF80000FFFFFFFFFFC0000
00003FFFFFFFFFF00003FFFFFFFFFFFFFFFF80001FFFFFFFFFFC0000
00003FFFFFFFFFF00003FFFFFFFFFFFFFFFFC0001FFFFFFFFFF80000
00003FFFFFFFFFF80003FFFFFFFFFFFFFFFFC0001FFFFFFFFFF80000
00001FFFFFFFFFF80007FFFFFFFFFFFFFFFFC0003FFFFFFFFFF80000
00001FFFFFFFFFF80007FFFFFFFFFFFFFFFFE0003FFFFFFFFFF00000
00001FFFFFFFFFFC0007FFFFFFFFFFFFFFFFE0003FFFFFFFFFF00000
00000FFFFFFFFFFC000FFFFFFFFFFFFFFFFFE0007FFFFFFFFFF00000
00000FFFFFFFFFFC000FFFFFFFFFFFFFFFFFF0007FFFFFFFFFE00000
00000FFFFFFFFFFE000FFFFFFFFFFFFFFFFFF0007FFFFFFFFFE00000
000007FFFFFFFFFE001FFFFFFFFFFFFFFFFFF000FFFFFFFFFFE00000
000007FFFFFFFFFE001FFFFFFFFFFFFFFFFFF800FFFFFFFFFFC00000
000007FFFFFFFFFF001FFFFFFFFFFFFFFFFFF800FFFFFFFFFFC00000
000003FFFFFFFFFF003FFFFFFFFFFFFFFFFFF801FFFFFFFFFFC00000
000003FFFFFFFFFF003FFFFFFFFFFFFFFFFFFC01FFFFFFFFFF800000
000003FFFFFFFFFF803FFFFFFFFFFFFFFFFFFC01FFFFFFFFFF800000
000001FFFFFFFFFF807FFFFFFFFFFFFFFFFFFC03FFFFFFFFFF800000
000001FFFFFFFFFF807FFFFFFFFFFFFFFFFFFE03FFFFFFFFFF000000
000001FFFFFFFFFFC07FFFFFFFFFFFFFFFFFFE03FFFFFFFFFF000000
000000FFFFFFFFFFC0FFFFFFFFFFFFFFFFFFFE07FFFFFFFFFF000000
000000FFFFFFFFFFC0FFFFFFFFFFFFFFFFFFFF07FFFFFFFFFE000000
000000FFFFFFFFFFE0FFFFFFFFFFFFFFFFFFFF07FFFFFFFFFE000000
0000007FFFFFFFFFE1FFFFFFFFFFFFFFFFFFFF0FFFFFFFFFFE000000
0000007FFFFFFFFFE1FFFFFFFFFFFFFFFFFFFF8FFFFFFFFFFC000000
0000007FFFFFFFFFF1FFFFFFFFFFFFFFFFFFFF8FFFFFFFFFFC000000
0000003FFFFFFFFFF3FFFFFFFFFFFFFFFFFFFF9FFFFFFFFFFC000000
0000003FFFFFFFFFF3FFFFFFFFFFFFFFFFFFFFDFFFFFFFFFF8000000
0000003FFFFFFFFFFBFFFFFFFFFEFFFFFFFFFFDFFFFFFFFFF8000000
0000001FFFFFFFFFFFFFFFFFFFFE7FFFFFFFFFFFFFFFFFFFF8000000
0000001FFFFFFFFFFFFFFFFFFFFE7FFFFFFFFFFFFFFFFFFFF0000000
0000001FFFFFFFFFFFFFFFFFFFFC7FFFFFFFFFFFFFFFFFFFF0000000
0000000FFFFFFFFFFFFFFFFFFFFC3FFFFFFFFFFFFFFFFFFFF0000000
0000000FFFFFFFFFFFFFFFFFFFFC3FFFFFFFFFFFFFFFFFFFE0000000
0000000FFFFFFFFFFFFFFFFFFFF83FFFFFFFFFFFFFFFFFFFE0000000
00000007FFFFFFFFFFFFFFFFFFF81FFFFFFFFFFFFFFFFFFFE0000000
00000007FFFFFFFFFFFFFFFFFFF81FFFFFFFFFFFFFFFFFFFC0000000
00000007FFFFFFFFFFFFFFFFFFF01FFFFFFFFFFFFFFFFFFFC0000000
00000003FFFFFFFFFFFFFFFFFFF00FFFFFFFFFFFFFFFFFFFC0000000
00000003FFFFFFFFFFFFFFFFFFF00FFFFFFFFFFFFFFFFFFF80000000
00000003FFFFFFFFFFFFFFFFFFE00FFFFFFFFFFFFFFFFFFF80000000
00000001FFFFFFFFFFFFFFFFFFE007FFFFFFFFFFFFFFFFFF80000000
00000001FFFFFFFFFFFFFFFFFFE007FFFFFFFFFFFFFFFFFF00000000
00000001FFFFFFFFFFFFFFFFFFC007FFFFFFFFFFFFFFFFFF00000000
00000000FFFFFFFFFFFFFFFFFFC003FFFFFFFFFFFFFFFFFF00000000
00000000FFFFFFFFFFFFFFFFFFC003FFFFFFFFFFFFFFFFFE00000000
00000000FFFFFFFFFFFFFFFFFF8003FFFFFFFFFFFFFFFFFE00000000
000000007FFFFFFFFFFFFFFFFF8001FFFFFFFFFFFFFFFFFE00000000
000000007FFFFFFFFFFFFFFFFF8001FFFFFFFFFFFFFFFFFC00000000
000000007FFFFFFFFFFFFFFFFF0001FFFFFFFFFFFFFFFFFC00000000
000000003FFFFFFFFFFFFFFFFF0000FFFFFFFFFFFFFFFFFC00000000
000000003FFFFFFFFFFFFFFFFF0000FFFFFFFFFFFFFFFFF800000000
000000003FFFFFFFFFFFFFFFFE0000FFFFFFFFFFFFFFFFF800000000
000000001FFFFFFFFFFFFFFFFE00007FFFFFFFFFFFFFFFF800000000
000000001FFFFFFFFFFFFFFFFE00007FFFFFFFFFFFFFFFF000000000
000000001FFFFFFFFFFFFFFFFC00007FFFFFFFFFFFFFFFF000000000
000000000FFFFFFFFFFFFFFFFC00003FFFFFFFFFFFFFFFF000000000
000000000FFFFFFFFFFFFFFFFC00003FFFFFFFFFFFFFFFE000000000
000000000FFFFFFFFFFFFFFFF800003FFFFFFFFFFFFFFFE000000000
0000000007FFFFFFFFFFFFFFF800001FFFFFFFFFFFFFFFE000000000
0000000007FFFFFFFFFFFFFFF800001FFFFFFFFFFFFFFFC000000000
000000007FFFFFFFFFFFFFFFFF8003FFFFFFFFFFFFFFFFFE00000000
000000007FFFFFFFFFFFFFFFFF8003FFFFFFFFFFFFFFFFFE00000000
000000007FFFFFFFFFFFFFFFFF8003FFFFFFFFFFFFFFFFFE00000000
000000007FFFFFFFFFFFFFFFFF8003FFFFFFFFFFFFFFFFFE00000000
000000007FFFFFFFFFFFFFFFFF8003FFFFFFFFFFFFFFFFFE00000000
000000007FFFFFFFFFFFFFFFFF8003FFFFFFFFFFFFFFFFFE00000000
000000007FFFFFFFFFFFFFFFFF8003FFFFFFFFFFFFFFFFFE00000000
000000007FFFFFFFFFFFFFFFFF8003FFFFFFFFFFFFFFFFFE00000000
000000007FFFFFFFFFFFFFFFFF8003FFFFFFFFFFFFFFFFFE00000000
000000007FFFFFFFFFFFFFFFFF8003FFFFFFFFFFFFFFFFFE00000000
000000007FFFFFFFFFFFFFFFFF8003FFFFFFFFFFFFFFFFFE00000000
000000007FFFFFFFFFFFFFFFFF8003FFFFFFFFFFFFFFFFFE00000000
000000007FFFFFFFFFFFFFFFFF8003FFFFFFFFFFFFFFFFFE00000000
000000007FFFFFFFFFFFFFFFFF8003FFFFFFFFFFFFFFFFFE00000000
000000007FFFFFFFFFFFFFFFFF8003FFFFFFFFFFFFFFFFFE00000000
000000007FFFFFFFFFFFFFFFFF8003FFFFFFFFFFFFFFFFFE00000000
000000007FFFFFFFFFFFFFFFFF8003FFFFFFFFFFFFFFFFFE00000000
000000007FFFFFFFFFFFFFFFFF8003FFFFFFFFFFFFFFFFFE00000000
000000007FFFFFFFFFFFFFFFFF8003FFFFFFFFFFFFFFFFFE00000000
000000007FFFFFFFFFFFFFFFFF8003FFFFFFFFFFFFFFFFFE00000000
000000007FFFFFFFFFFFFFFFFF8003FFFFFFFFFFFFFFFFFE00000000
000000007FFFFFFFFFFFFFFFFF8003FFFFFFFFFFFFFFFFFE00000000
000000007FFFFFFFFFFFFFFFFF8003FFFFFFFFFFFFFFFFFE00000000
000000007FFFFFFFFFFFFFFFFF8003FFFFFFFFFFFFFFFFFE00000000
000000007FFFFFFFFFFFFFFFFF8003FFFFFFFFFFFFFFFFFE00000000
000000007FFFFFFFFFFFFFFFFF8003FFFFFFFFFFFFFFFFFE00000000
000000007FFFFFFFFFFFFFFFFF8003FFFFFFFFFFFFFFFFFE00000000
000000007FFFFFFFFFFFFFFFFF8003FFFFFFFFFFFFFFFFFE00000000
000000007FFFFFFFFFFFFFFFFF8003FFFFFFFFFFFFFFFFFE00000000
000000007FFFFFFFFFFFFFFFFF8003FFFFFFFFFFFFFFFFFE00000000
000000007FFFFFFFFFFFFFFFFF8003FFFFFFFFFFFFFFFFFE00000000
000000007FFFFFFFFFFFFFFFFF8003FFFFFFFFFFFFFFFFFE00000000
ENDCHAR
STARTCHAR 0058
ENCODING 88
SWIDTH 958 0
DWIDTH 163 0
BBX 155 142 0 0
BITMAP
FFFFFFFFFFFFFFFFE000003FFFFFFFFFFFFFFFE0
FFFFFFFFFFFFFFFFE000003FFFFFFFFFFFFFFFE0
FFFFFFFFFFFFFFFFE000003FFFFFFFFFFFFFFFE0
FFFFFFFFFFFFFFFFE000003FFFFFFFFFFFFFFFE0
FFFFFFFFFFFFFFFFE000003FFFFFFFFFFFFFFFE0
FFFFFFFFFFFFFFFFE000003FFFFFFFFFFFFFFFE0
FFFFFFFFFFFFFFFFE000003FFFFFFFFFFFFFFFE0
FFFFFFFFFFFFFFFFE000003FFFFFFFFFFFFFFFE0
FFFFFFFFFFFFFFFFE000003FFFFFFFFFFFFFFFE0
FFFFFFFFFFFFFFFFE000003FFFFFFFFFFFFFFFE0
FFFFFFFFFFFFFFFFE000003FFFFFFFFFFFFFFFE0
FFFFFFFFFFFFFFFFE000003FFFFFFFFFFFFFFFE0
FFFFFFFFFFFFFFFFE000003FFFFFFFFFFFFFFFE0
FFFFFFFFFFFFFFFFE000003FFFFFFFFFFFFFFFE0
FFFFFFFFFFFFFFFFE000003FFFFFFFFFFFFFFFE0
FFFFFFFFFFFFFFFFE000003FFFFFFFFFFFFFFFE0
FFFFFFFFFFFFFFFFE000003FFFFFFFFFFFFFFFE0
FFFFFFFFFFFFFFFFE000003FFFFFFFFFFFFFFFE0
FFFFFFFFFFFFFFFFE000003FFFFFFFFFFFFFFFE0
FFFFFFFFFFFFFFFFE000003FFFFFFFFFFFFFFFE0
FFFFFFFFFFFFFFFFE000003FFFFFFFFFFFFFFFE0
FFFFFFFFFFFFFFFFE000003FFFFFFFFFFFFFFFE0
FFFFFFFFFFFFFFFFE000003FFFFFFFFFFFFFFFE0
FFFFFFFFFFFFFFFFE000003FFFFFFFFFFFFFFFE0
FFFFFFFFFFFFFFFFE000003FFFFFFFFFFFFFFFE0
FFFFFFFFFFFFFFFFE000003FFFFFFFFFFFFFFFE0
FFFFFFFFFFFFFFFFE000003FFFFFFFFFFFFFFFE0
FFFFFFFFFFFFFFFFE000003FFFFFFFFFFFFFFFE0
FFFFFFFFFFFFFFFFE000003FFFFFFFFFFFFFFFE0
FFFFFFFFFFFFFFFFE000003FFFFFFFFFFFFFFFE0
FFFFFFFFFFFFFFFFE000003FFFFFFFFFFFFFFFE0
FFFFFFFFFFFFFFFFE000003FFFFFFFFFFFFFFFE0
0003FFFFFFFFFFFC00000001FFFFFFFFFFFE0000
0001FFFFFFFFFFFE00000003FFFFFFFFFFFC0000
0000FFFFFFFFFFFF00000007FFFFFFFFFFF80000
00007FFFFFFFFFFF8000000FFFFFFFFFFFF00000
00003FFFFFFFFFFFC000001FFFFFFFFFFFE00000
00001FFFFFFFFFFFE000003FFFFFFFFFFFC00000
00000FFFFFFFFFFFF000007FFFFFFFFFFF800000
000007FFFFFFFFFFF80000FFFFFFFFFFFF000000
000003FFFFFFFFFFFC0001FFFFFFFFFFFE000000
000001FFFFFFFFFFFE0003FFFFFFFFFFFC000000
000000FFFFFFFFFFFF0007FFFFFFFFFFF8000000
0000007FFFFFFFFFFF800FFFFFFFFFFFF0000000
0000003FFFFFFFFFFFC01FFFFFFFFFFFE0000000
0000001FFFFFFFFFFFE03FFFFFFFFFFFC0000000
0000000FFFFFFFFFFFF07FFFFFFFFFFF80000000
00000007FFFFFFFFFFF8FFFFFFFFFFFF00000000
00000003FFFFFFFFFFFDFFFFFFFFFFFE00000000
00000001FFFFFFFFFFFFFFFFFFFFFFFC00000000
00000000FFFFFFFFFFFFFFFFFFFFFFF800000000
000000007FFFFFFFFFFFFFFFFFFFFFF800000000
000000003FFFFFFFFFFFFFFFFFFFFFF000000000
000000001FFFFFFFFFFFFFFFFFFFFFE000000000
000000000FFFFFFFFFFFFFFFFFFFFFC000000000
0000000007FFFFFFFFFFFFFFFFFFFF8000000000
0000000003FFFFFFFFFFFFFFFFFFFF0000000000
0000000001FFFFFFFFFFFFFFFFFFFE0000000000
0000000000FFFFFFFFFFFFFFFFFFFC0000000000
00000000007FFFFFFFFFFFFFFFFFF80000000000
00000000003FFFFFFFFFFFFFFFFFF00000000000
00000000001FFFFFFFFFFFFFFFFFE00000000000
00000000000FFFFFFFFFFFFFFFFFC00000000000
000000000007FFFFFFFFFFFFFFFF800000000000
000000000003FFFFFFFFFFFFFFFF000000000000
000000000001FFFFFFFFFFFFFFFE000000000000
000000000000FFFFFFFFFFFFFFFC000000000000
0000000000007FFFFFFFFFFFFFF8000000000000
0000000000003FFFFFFFFFFFFFF0000000000000
0000000000001FFFFFFFFFFFFFE0000000000000
0000000000000FFFFFFFFFFFFFC0000000000000
0000000000000FFFFFFFFFFFFFC0000000000000
0000000000001FFFFFFFFFFFFFE0000000000000
0000000000003FFFFFFFFFFFFFF0000000000000
0000000000007FFFFFFFFFFFFFF8000000000000
000000000000FFFFFFFFFFFFFFFC000000000000
000000000001FFFFFFFFFFFFFFFE000000000000
000000000003FFFFFFFFFFFFFFFF000000000000
000000000007FFFFFFFFFFFFFFFF800000000000
00000000000FFFFFFFFFFFFFFFFFC00000000000
00000000001FFFFFFFFFFFFFFFFFE00000000000
00000000003FFFFFFFFFFFFFFFFFF00000000000
00000000007FFFFFFFFFFFFFFFFFF80000000000
0000000000FFFFFFFFFFFFFFFFFFFC0000000000
0000000001FFFFFFFFFFFFFFFFFFFE0000000000
0000000003FFFFFFFFFFFFFFFFFFFF0000000000
0000000007FFFFFFFFFFFFFFFFFFFF8000000000
000000000FFFFFFFFFFFFFFFFFFFFFC000000000
000000001FFFFFFFFFFFFFFFFFFFFFE000000000
000000003FFFFFFFFFFFFFFFFFFFFFF000000000
000000007FFFFFFFFFFFFFFFFFFFFFF800000000
00000000FFFFFFFFFFFFFFFFFFFFFFFC00000000
00000001FFFFFFFFFFFFFFFFFFFFFFFE00000000
00000003FFFFFFFFFFFDFFFFFFFFFFFF00000000
00000007FFFFFFFFFFF8FFFFFFFFFFFF80000000
0000000FFFFFFFFFFFF07FFFFFFFFFFFC0000000
0000001FFFFFFFFFFFE03FFFFFFFFFFFE0000000
0000003FFFFFFFFFFFC01FFFFFFFFFFFF0000000
0000007FFFFFFFFFFF800FFFFFFFFFFFF8000000
000000FFFFFFFFFFFF0007FFFFFFFFFFFC000000
000001FFFFFFFFFFFE0003FFFFFFFFFFFE000000
000003FFFFFFFFFFFC0001FFFFFFFFFFFF000000
000007FFFFFFFFFFF80000FFFFFFFFFFFF800000
00000FFFFFFFFFFFF000007FFFFFFFFFFFC00000
00001FFFFFFFFFFFE000003FFFFFFFFFFFE00000
00003FFFFFFFFFFFC000001FFFFFFFFFFFF00000
00007FFFFFFFFFFF8000000FFFFFFFFFFFF80000
0000FFFFFFFFFFFF00000007FFFFFFFFFFFC0000
0001FFFFFFFFFFFE00000003FFFFFFFFFFFE0000
0003FFFFFFFFFFFC00000001FFFFFFFFFFFF0000
FFFFFFFFFFFFFFFFE000003FFFFFFFFFFFFFFFE0
FFFFFFFFFFFFFFFFE000003FFFFFFFFFFFFFFFE0
FFFFFFFFFFFFFFFFE000003FFFFFFFFFFFFFFFE0
FFFFFFFFFFFFFFFFE000003FFFFFFFFFFFFFFFE0
FFFFFFFFFFFFFFFFE000003FFFFFFFFFFFFFFFE0
FFFFFFFFFFFFFFFFE000003FFFFFFFFFFFFFFFE0
FFFFFFFFFFFFFFFFE000003FFFFFFFFFFFFFFFE0
FFFFFFFFFFFFFFFFE000003FFFFFFFFFFFFFFFE0
FFFFFFFFFFFFFFFFE000003FFFFFFFFFFFFFFFE0
FFFFFFFFFFFFFFFFE000003FFFFFFFFFFFFFFFE0
FFFFFFFFFFFFFFFFE000003FFFFFFFFFFFFFFFE0
FFFFFFFFFFFFFFFFE000003FFFFFFFFFFFFFFFE0
FFFFFFFFFFFFFFFFE000003FFFFFFFFFFFFFFFE0
FFFFFFFFFFFFFFFFE000003FFFFFFFFFFFFFFFE0
FFFFFFFFFFFFFFFFE000003FFFFFFFFFFFFFFFE0
FFFFFFFFFFFFFFFFE000003FFFFFFFFFFFFFFFE0
FFFFFFFFFFFFFFFFE000003FFFFFFFFFFFFFFFE0
FFFFFFFFFFFFFFFFE000003FFFFFFFFFFFFFFFE0
FFFFFFFFFFFFFFFFE000003FFFFFFFFFFFFFFFE0
FFFFFFFFFFFFFFFFE000003FFFFFFFFFFFFFFFE0
FFFFFFFFFFFFFFFFE000003FFFFFFFFFFFFFFFE0
FFFFFFFFFFFFFFFFE000003FFFFFFFFFFFFFFFE0
FFFFFFFFFFFFFFFFE000003FFFFFFFFFFFFFFFE0
FFFFFFFFFFFFFFFFE000003FFFFFFFFFFFFFFFE0
FFFFFFFFFFFFFFFFE000003FFFFFFFFFFFFFFFE0
FFFFFFFFFFFFFFFFE000003FFFFFFFFFFFFFFFE0
FFFFFFFFFFFFFFFFE000003FFFFFFFFFFFFFFFE0
FFFFFFFFFFFFFFFFE000003FFFFFFFFFFFFFFFE0
FFFFFFFFFFFFFFFFE000003FFFFFFFFFFFFFFFE0
FFFFFFFFFFFFFFFFE000003FFFFFFFFFFFFFFFE0
FFFFFFFFFFFFFFFFE000003FFFFFFFFFFFFFFFE0
FFFFFFFFFFFFFFFFE000003FFFFFFFFFFFFFFFE0
ENDCHAR
STARTCHAR 0059
ENCODING 89
SWIDTH 958 0
DWIDTH 163 0
BBX 155 142 0 0
BITMAP
FFFFFFFFFFFFFFFFE000003FFFFFFFFFFFFFFFE0
FFFFFFFFFFFFFFFFE000003FFFFFFFFFFFFFFFE0
FFFFFFFFFFFFFFFFE000003FFFFFFFFFFFFFFFE0
FFFFFFFFFFFFFFFFE000003FFFFFFFFFFFFFFFE0
FFFFFFFFFFFFFFFFE000003FFFFFFFFFFFFFFFE0
FFFFFFFFFFFFFFFFE000003FFFFFFFFFFFFFFFE0
FFFFFFFFFFFFFFFFE000003FFFFFFFFFFFFFFFE0
FFFFFFFFFFFFFFFFE000003FFFFFFFFFFFFFFFE0
FFFFFFFFFFFFFFFFE000003FFFFFFFFFFFFFFFE0
FFFFFFFFFFFFFFFFE000003FFFFFFFFFFFFFFFE0
FFFFFFFFFFFFFFFFE000003FFFFFFFFFFFFFFFE0
FFFFFFFFFFFFFFFFE000003FFFFFFFFFFFFFFFE0
FFFFFFFFFFFFFFFFE000003FFFFFFFFFFFFFFFE0
FFFFFFFFFFFFFFFFE000003FFFFFFFFFFFFFFFE0
FFFFFFFFFFFFFFFFE000003FFFFFFFFFFFFFFFE0
FFFFFFFFFFFFFFFFE000003FFFFFFFFFFFFFFFE0
FFFFFFFFFFFFFFFFE000003FFFFFFFFFFFFFFFE0
FFFFFFFFFFFFFFFFE000003FFFFFFFFFFFFFFFE0
FFFFFFFFFFFFFFFFE000003FFFFFFFFFFFFFFFE0
FFFFFFFFFFFFFFFFE000003FFFFFFFFFFFFFFFE0
FFFFFFFFFFFFFFFFE000003FFFFFFFFFFFFFFFE0
FFFFFFFFFFFFFFFFE000003FFFFFFFFFFFFFFFE0
FFFFFFFFFFFFFFFFE000003FFFFFFFFFFFFFFFE0
FFFFFFFFFFFFFFFFE000003FFFFFFFFFFFFFFFE0
FFFFFFFFFFFFFFFFE000003FFFFFFFFFFFFFFFE0
FFFFFFFFFFFFFFFFE000003FFFFFFFFFFFFFFFE0
FFFFFFFFFFFFFFFFE000003FFFFFFFFFFFFFFFE0
FFFFFFFFFFFFFFFFE000003FFFFFFFFFFFFFFFE0
FFFFFFFFFFFFFFFFE000003FFFFFFFFFFFFFFFE0
FFFFFFFFFFFFFFFFE000003FFFFFFFFFFFFFFFE0
FFFFFFFFFFFFFFFFE000003FFFFFFFFFFFFFFFE0
FFFFFFFFFFFFFFFFE000003FFFFFFFFFFFFFFFE0
0003FFFFFFFFFFFC00000001FFFFFFFFFFFE0000
0001FFFFFFFFFFFE00000003FFFFFFFFFFFC0000
0000FFFFFFFFFFFF00000007FFFFFFFFFFF80000
00007FFFFFFFFFFF8000000FFFFFFFFFFFF00000
00003FFFFFFFFFFFC000001FFFFFFFFFFFE00000
00001FFFFFFFFFFFE000003FFFFFFFFFFFC00000
00000FFFFFFFFFFFF000007FFFFFFFFFFF800000
000007FFFFFFFFFFF80000FFFFFFFFFFFF000000
000003FFFFFFFFFFFC0001FFFFFFFFFFFE000000
000001FFFFFFFFFFFE0003FFFFFFFFFFFC000000
000000FFFFFFFFFFFF0007FFFFFFFFFFF8000000
0000007FFFFFFFFFFF800FFFFFFFFFFFF0000000
0000003FFFFFFFFFFFC01FFFFFFFFFFFE0000000
0000001FFFFFFFFFFFE03FFFFFFFFFFFC0000000
0000000FFFFFFFFFFFF07FFFFFFFFFFF80000000
00000007FFFFFFFFFFF8FFFFFFFFFFFF00000000
00000003FFFFFFFFFFFDFFFFFFFFFFFE00000000
00000001FFFFFFFFFFFFFFFFFFFFFFFC00000000
00000000FFFFFFFFFFFFFFFFFFFFFFF800000000
000000007FFFFFFFFFFFFFFFFFFFFFF000000000
000000003FFFFFFFFFFFFFFFFFFFFFE000000000
000000001FFFFFFFFFFFFFFFFFFFFFC000000000
000000000FFFFFFFFFFFFFFFFFFFFF8000000000
0000000007FFFFFFFFFFFFFFFFFFFF0000000000
0000000003FFFFFFFFFFFFFFFFFFFE0000000000
0000000001FFFFFFFFFFFFFFFFFFFC0000000000
0000000000FFFFFFFFFFFFFFFFFFF80000000000
00000000007FFFFFFFFFFFFFFFFFF00000000000
00000000003FFFFFFFFFFFFFFFFFE00000000000
00000000001FFFFFFFFFFFFFFFFFC00000000000
00000000000FFFFFFFFFFFFFFFFF800000000000
000000000007FFFFFFFFFFFFFFFF000000000000
000000000003FFFFFFFFFFFFFFFE000000000000
000000000001FFFFFFFFFFFFFFFC000000000000
000000000000FFFFFFFFFFFFFFF8000000000000
0000000000007FFFFFFFFFFFFFF0000000000000
0000000000003FFFFFFFFFFFFFE0000000000000
0000000000001FFFFFFFFFFFFFC0000000000000
0000000000000FFFFFFFFFFFFF80000000000000
00000000000007FFFFFFFFFFFF00000000000000
00000000000003FFFFFFFFFFFE00000000000000
00000000000001FFFFFFFFFFFC00000000000000
00000000000000FFFFFFFFFFF800000000000000
000000000000007FFFFFFFFFF000000000000000
000000000000003FFFFFFFFFE000000000000000
000000000000001FFFFFFFFFC000000000000000
000000000000001FFFFFFFFFC000000000000000
000000000000001FFFFFFFFFC000000000000000
000000000000001FFFFFFFFFC000000000000000
000000000000001FFFFFFFFFC000000000000000
000000000000001FFFFFFFFFC000000000000000
000000000000001FFFFFFFFFC000000000000000
000000000000001FFFFFFFFFC000000000000000
000000000000001FFFFFFFFFC000000000000000
000000000000001FFFFFFFFFC000000000000000
000000000000001FFFFFFFFFC000000000000000
000000000000001FFFFFFFFFC000000000000000
000000000000001FFFFFFFFFC000000000000000
000000000000001FFFFFFFFFC000000000000000
000000000000001FFFFFFFFFC000000000000000
000000000000001FFFFFFFFFC000000000000000
000000000000001FFFFFFFFFC000000000000000
000000000000001FFFFFFFFFC000000000000000
000000000000001FFFFFFFFFC000000000000000
000000000000001FFFFFFFFFC000000000000000
000000000000001FFFFFFFFFC000000000000000
000000000000001FFFFFFFFFC000000000000000
000000000000001FFFFFFFFFC000000000000000
000000000000001FFFFFFFFFC000000000000000
000000000000001FFFFFFFFFC000000000000000
000000000000001FFFFFFFFFC000000000000000
000000000000001FFFFFFFFFC000000000000000
000000000000001FFFFFFFFFC000000000000000
000000000000001FFFFFFFFFC000000000000000
000000000000001FFFFFFFFFC000000000000000
000000000000001FFFFFFFFFC000000000000000
000000000000001FFFFFFFFFC000000000000000
000000000000001FFFFFFFFFC000000000000000
0000000000003FFFFFFFFFFFFFE0000000000000
0000000000003FFFFFFFFFFFFFE0000000000000
0000000000003FFFFFFFFFFFFFE0000000000000
0000000000003FFFFFFFFFFFFFE0000000000000
0000000000003FFFFFFFFFFFFFE0000000000000
0000000000003FFFFFFFFFFFFFE0000000000000
0000000000003FFFFFFFFFFFFFE0000000000000
0000000000003FFFFFFFFFFFFFE0000000000000
0000000000003FFFFFFFFFFFFFE0000000000000
0000000000003FFFFFFFFFFFFFE0000000000000
0000000000003FFFFFFFFFFFFFE0000000000000
0000000000003FFFFFFFFFFFFFE0000000000000
0000000000003FFFFFFFFFFFFFE0000000000000
0000000000003FFFFFFFFFFFFFE0000000000000
0000000000003FFFFFFFFFFFFFE0000000000000
0000000000003FFFFFFFFFFFFFE0000000000000
0000000000003FFFFFFFFFFFFFE0000000000000
0000000000003FFFFFFFFFFFFFE0000000000000
0000000000003FFFFFFFFFFFFFE0000000000000
0000000000003FFFFFFFFFFFFFE0000000000000
0000000000003FFFFFFFFFFFFFE0000000000000
0000000000003FFFFFFFFFFFFFE0000000000000
0000000000003FFFFFFFFFFFFFE0000000000000
0000000000003FFFFFFFFFFFFFE0000000000000
0000000000003FFFFFFFFFFFFFE0000000000000
0000000000003FFFFFFFFFFFFFE0000000000000
0000000000003FFFFFFFFFFFFFE0000000000000
0000000000003FFFFFFFFFFFFFE0000000000000
0000000000003FFFFFFFFFFFFFE0000000000000
0000000000003FFFFFFFFFFFFFE0000000000000
0000000000003FFFFFFFFFFFFFE0000000000000
0000000000003FFFFFFFFFFFFFE0000000000000
ENDCHAR
STARTCHAR 005A
ENCODING 90
SWIDTH 682 0
DWIDTH 116 0
BBX 106 142 0 0
BITMAP
FFFFFFFFFFFFFFFFFFFFFFFFFFC0
FFFFFFFFFFFFFFFFFFFFFFFFFFC0
FFFFFFFFFFFFFFFFFFFFFFFFFFC0
FFFFFFFFFFFFFFFFFFFFFFFFFFC0
FFFFFFFFFFFFFFFFFFFFFFFFFFC0
FFFFFFFFFFFFFFFFFFFFFFFFFFC0
FFFFFFFFFFFFFFFFFFFFFFFFFFC0
FFFFFFFFFFFFFFFFFFFFFFFFFFC0
FFFFFFFFFFFFFFFFFFFFFFFFFFC0
FFFFFFFFFFFFFFFFFFFFFFFFFFC0
FFFFFFFFFFFFFFFFFFFFFFFFFFC0
FFFFFFFFFFFFFFFFFFFFFFFFFFC0
FFFFFFFFFFFFFFFFFFFFFFFFFFC0
FFFFFFFFFFFFFFFFFFFFFFFFFFC0
FFFFFFFFFFFFFFFFFFFFFFFFFFC0
FFFFFFFFFFFFFFFFFFFFFFFFFFC0
FFFFFFFFFFFFFFFFFFFFFFFFFFC0
FFFFFFFFFFFFFFFFFFFFFFFFFFC0
FFFFFFFFFFFFFFFFFFFFFFFFFFC0
FFFFFFFFFFFFFFFFFFFFFFFFFFC0
FFFFFFFFFFFFFFFFFFFFFFFFFFC0
FFFFFFFFFFFFFFFFFFFFFFFFFFC0
FFFFFFFFFFFFFFFFFFFFFFFFFFC0
FFFFFFFFFFFFFFFFFFFFFFFFFFC0
FFFFFFFFFFFFFFFFFFFFFFFFFFC0
FFFFFFFFFFFFFFFFFFFFFFFFFFC0
FFFFFFFFFFFFFFFFFFFFFFFFFFC0
FFFFFFFFFFFFFFFFFFFFFFFFFFC0
FFFFFFFFFFFFFFFFFFFFFFFFFF80
FFFFFFFFFFFFFFFFFFFFFFFFFF00
FFFFFFFFFFFFFFFFFFFFFFFFFF00
FFFFFFFFFFFFFFFFFFFFFFFFFE00
FFFFFFFF000001FFFFFFFFFFFC00
FFFFFFFF000003FFFFFFFFFFFC00
FFFFFFFF000003FFFFFFFFFFF800
FFFFFFFF000007FFFFFFFFFFF000
FFFFFFFF00000FFFFFFFFFFFF000
FFFFFFFF00000FFFFFFFFFFFE000
FFFFFFFF00001FFFFFFFFFFFC000
FFFFFFFF00003FFFFFFFFFFFC000
FFFFFFFF00003FFFFFFFFFFF8000
0000000000007FFFFFFFFFFF0000
000000000000FFFFFFFFFFFF0000
000000000000FFFFFFFFFFFE0000
000000000001FFFFFFFFFFFC0000
000000000003FFFFFFFFFFFC0000
000000000003FFFFFFFFFFF80000
000000000007FFFFFFFFFFF00000
00000000000FFFFFFFFFFFF00000
00000000000FFFFFFFFFFFE00000
00000000001FFFFFFFFFFFC00000
00000000003FFFFFFFFFFFC00000
00000000003FFFFFFFFFFF800000
00000000007FFFFFFFFFFF000000
0000000000FFFFFFFFFFFF000000
0000000000FFFFFFFFFFFE000000
0000000001FFFFFFFFFFFC000000
0000000003FFFFFFFFFFFC000000
0000000003FFFFFFFFFFF8000000
0000000007FFFFFFFFFFF0000000
000000000FFFFFFFFFFFF0000000
000000000FFFFFFFFFFFE0000000
000000001FFFFFFFFFFFC0000000
000000003FFFFFFFFFFFC0000000
000000003FFFFFFFFFFF80000000
000000007FFFFFFFFFFF00000000
00000000FFFFFFFFFFFF00000000
00000000FFFFFFFFFFFE00000000
00000001FFFFFFFFFFFC00000000
00000003FFFFFFFFFFFC00000000
00000003FFFFFFFFFFF800000000
00000007FFFFFFFFFFF000000000
0000000FFFFFFFFFFFF000000000
0000000FFFFFFFFFFFE000000000
0000001FFFFFFFFFFFC000000000
0000003FFFFFFFFFFFC000000000
0000003FFFFFFFFFFF8000000000
0000007FFFFFFFFFFF0000000000
000000FFFFFFFFFFFF0000000000
000000FFFFFFFFFFFE0000000000
000001FFFFFFFFFFFC0000000000
000003FFFFFFFFFFFC0000000000
000003FFFFFFFFFFF80000000000
000007FFFFFFFFFFF00000000000
00000FFFFFFFFFFFF00000000000
00000FFFFFFFFFFFE00000000000
00001FFFFFFFFFFFC00000000000
00003FFFFFFFFFFFC00000000000
00003FFFFFFFFFFF800000000000
00007FFFFFFFFFFF000000000000
0000FFFFFFFFFFFF000000000000
0000FFFFFFFFFFFE000000000000
0001FFFFFFFFFFFC000000000000
0003FFFFFFFFFFFC000000000000
0003FFFFFFFFFFF8000000000000
0007FFFFFFFFFFF0000000000000
000FFFFFFFFFFFF0000000000000
000FFFFFFFFFFFE0000000000000
001FFFFFFFFFFFC0000000000000
003FFFFFFFFFFFC0000000000000
003FFFFFFFFFFF80000000000000
007FFFFFFFFFFF00003FFFFFFFC0
00FFFFFFFFFFFF00003FFFFFFFC0
00FFFFFFFFFFFE00003FFFFFFFC0
01FFFFFFFFFFFC00003FFFFFFFC0
03FFFFFFFFFFFC00003FFFFFFFC0
03FFFFFFFFFFF800003FFFFFFFC0
07FFFFFFFFFFF000003FFFFFFFC0
0FFFFFFFFFFFF000003FFFFFFFC0
0FFFFFFFFFFFE000003FFFFFFFC0
1FFFFFFFFFFFFFFFFFFFFFFFFFC0
3FFFFFFFFFFFFFFFFFFFFFFFFFC0
3FFFFFFFFFFFFFFFFFFFFFFFFFC0
7FFFFFFFFFFFFFFFFFFFFFFFFFC0
FFFFFFFFFFFFFFFFFFFFFFFFFFC0
FFFFFFFFFFFFFFFFFFFFFFFFFFC0
FFFFFFFFFFFFFFFFFFFFFFFFFFC0
FFFFFFFFFFFFFFFFFFFFFFFFFFC0
FFFFFFFFFFFFFFFFFFFFFFFFFFC0
FFFFFFFFFFFFFFFFFFFFFFFFFFC0
FFFFFFFFFFFFFFFFFFFFFFFFFFC0
FFFFFFFFFFFFFFFFFFFFFFFFFFC0
FFFFFFFFFFFFFFFFFFFFFFFFFFC0
FFFFFFFFFFFFFFFFFFFFFFFFFFC0
FFFFFFFFFFFFFFFFFFFFFFFFFFC0
FFFFFFFFFFFFFFFFFFFFFFFFFFC0
FFFFFFFFFFFFFFFFFFFFFFFFFFC0
FFFFFFFFFFFFFFFFFFFFFFFFFFC0
FFFFFFFFFFFFFFFFFFFFFFFFFFC0
FFFFFFFFFFFFFFFFFFFFFFFFFFC0
FFFFFFFFFFFFFFFFFFFFFFFFFFC0
FFFFFFFFFFFFFFFFFFFFFFFFFFC0
FFFFFFFFFFFFFFFFFFFFFFFFFFC0
FFFFFFFFFFFFFFFFFFFFFFFFFFC0
FFFFFFFFFFFFFFFFFFFFFFFFFFC0
FFFFFFFFFFFFFFFFFFFFFFFFFFC0
FFFFFFFFFFFFFFFFFFFFFFFFFFC0
FFFFFFFFFFFFFFFFFFFFFFFFFFC0
FFFFFFFFFFFFFFFFFFFFFFFFFFC0
FFFFFFFFFFFFFFFFFFFFFFFFFFC0
FFFFFFFFFFFFFFFFFFFFFFFFFFC0
FFFFFFFFFFFFFFFFFFFFFFFFFFC0
ENDCHAR
STARTCHAR 0061
ENCODING 97
SWIDTH 711 0
DWIDTH 121 0
BBX 113 113 0 0
BITMAP
0000001FFFFFFFFFFFFFFE00000000
0000001FFFFFFFFFFFFFFE00000000
0000001FFFFFFFFFFFFFFE00000000
0000001FFFFFFFFFFFFFFE00000000
0000001FFFFFFFFFFFFFFE00000000
0000001FFFFFFFFFFFFFFE00000000
0000001FFFFFFFFFFFFFFE00000000
0000001FFFFFFFFFFFFFFE00000000
0000001FFFFFFFFFFFFFFE00000000
0000001FFFFFFFFFFFFFFE00000000
0000001FFFFFFFFFFFFFFE00000000
0000001FFFFFFFFFFFFFFE00000000
0000001FFFFFFFFFFFFFFE00000000
0000001FFFFFFFFFFFFFFE00000000
0000001FFFFFFFFFFFFFFE00000000
0000001FFFFFFFFFFFFFFE00000000
0000001FFFFFFFFFFFFFFE00000000
0000001FFFFFFFFFFFFFFE00000000
0000001FFFFFFFFFFFFFFE00000000
0000001FFFFFFFFFFFFFFE00000000
0000001FFFFFFFFFFFFFFE00000000
0000001FFFFFFFFFFFFFFE00000000
0000001FFFFFFFFFFFFFFE00000000
0000001FFFFFFFFFFFFFFE00000000
0000001FFFFFFFFFFFFFFE00000000
00000000FFFFFFFFFFFF8000000000
00000001FFFFFFFFFFFFC000000000
00000001FFFFFFFFFFFFC000000000
00000001FFFFFFFFFFFFE000000000
00000003FFFFFFFFFFFFE000000000
00000003FFFFFFFFFFFFE000000000
00000007FFFFFFFFFFFFF000000000
00000007FFFFFFFFFFFFF000000000
00000007FFFFFFFFFFFFF800000000
0000000FFFFFFFFFFFFFF800000000
0000000FFFFFFFFFFFFFF800000000
0000001FFFFFFFFFFFFFFC00000000
0000001FFFFFFFFFFFFFFC00000000
0000001FFFFFFFFFFFFFFE00000000
0000003FFFFFFFFFFFFFFE00000000
0000003FFFFFFFFFFFFFFE00000000
0000007FFFFFFFFFFFFFFF00000000
0000007FFFFFFFFFFFFFFF00000000
0000007FFFFFFF7FFFFFFF80000000
000000FFFFFFFF7FFFFFFF80000000
000000FFFFFFFE7FFFFFFF80000000
000001FFFFFFFE3FFFFFFFC0000000
000001FFFFFFFE3FFFFFFFC0000000
000001FFFFFFFC1FFFFFFFE0000000
000003FFFFFFFC1FFFFFFFE0000000
000003FFFFFFF81FFFFFFFE0000000
000007FFFFFFF80FFFFFFFF0000000
000007FFFFFFF80FFFFFFFF0000000
000007FFFFFFF007FFFFFFF8000000
00000FFFFFFFF007FFFFFFF8000000
00000FFFFFFFE003FFFFFFF8000000
00001FFFFFFFE003FFFFFFFC000000
00001FFFFFFFC003FFFFFFFC000000
00003FFFFFFFC001FFFFFFFE000000
00003FFFFFFFC001FFFFFFFE000000
00003FFFFFFF8000FFFFFFFE000000
00007FFFFFFFFFFFFFFFFFFF000000
00007FFFFFFFFFFFFFFFFFFF000000
0000FFFFFFFFFFFFFFFFFFFF800000
0000FFFFFFFFFFFFFFFFFFFF800000
0000FFFFFFFFFFFFFFFFFFFF800000
0001FFFFFFFFFFFFFFFFFFFFC00000
0001FFFFFFFFFFFFFFFFFFFFC00000
0003FFFFFFFFFFFFFFFFFFFFE00000
0003FFFFFFFFFFFFFFFFFFFFE00000
0003FFFFFFFFFFFFFFFFFFFFE00000
0007FFFFFFFFFFFFFFFFFFFFF00000
0007FFFFFFFFFFFFFFFFFFFFF00000
000FFFFFFFFFFFFFFFFFFFFFF80000
000FFFFFFFFFFFFFFFFFFFFFF80000
000FFFFFFFFFFFFFFFFFFFFFF80000
001FFFFFFFFFFFFFFFFFFFFFFC0000
001FFFFFFFFFFFFFFFFFFFFFFC0000
003FFFFFFFFFFFFFFFFFFFFFFE0000
003FFFFFFFFFFFFFFFFFFFFFFE0000
003FFFFFFFFFFFFFFFFFFFFFFE0000
007FFFFFFFFFFFFFFFFFFFFFFF0000
007FFFFFFF80000000FFFFFFFF0000
00FFFFFFFF80000000FFFFFFFF8000
00FFFFFFFF80000000FFFFFFFF8000
00FFFFFFFF000000007FFFFFFF8000
01FFFFFFFF000000007FFFFFFFC000
01FFFFFFFF000000007FFFFFFFC000
FFFFFFFFFFE0000007FFFFFFFFFF80
FFFFFFFFFFE0000007FFFFFFFFFF80
FFFFFFFFFFE0000007FFFFFFFFFF80
FFFFFFFFFFE0000007FFFFFFFFFF80
FFFFFFFFFFE0000007FFFFFFFFFF80
FFFFFFFFFFE0000007FFFFFFFFFF80
FFFFFFFFFFE0000007FFFFFFFFFF80
FFFFFFFFFFE0000007FFFFFFFFFF80
FFFFFFFFFFE0000007FFFFFFFFFF80
FFFFFFFFFFE0000007FFFFFFFFFF80
FFFFFFFFFFE0000007FFFFFFFFFF80
FFFFFFFFFFE0000007FFFFFFFFFF80
FFFFFFFFFFE0000007FFFFFFFFFF80
FFFFFFFFFFE0000007FFFFFFFFFF80
FFFFFFFFFFE0000007FFFFFFFFFF80
FFFFFFFFFFE0000007FFFFFFFFFF80
FFFFFFFFFFE0000007FFFFFFFFFF80
FFFFFFFFFFE0000007FFFFFFFFFF80
FFFFFFFFFFE0000007FFFFFFFFFF80
FFFFFFFFFFE0000007FFFFFFFFFF80
FFFFFFFFFFE0000007FFFFFFFFFF80
FFFFFFFFFFE0000007FFFFFFFFFF80
FFFFFFFFFFE0000007FFFFFFFFFF80
FFFFFFFFFFE0000007FFFFFFFFFF80
FFFFFFFFFFE0000007FFFFFFFFFF80
ENDCHAR
STARTCHAR 0062
ENCODING 98
SWIDTH 576 0
DWIDTH 98 0
BBX 88 113 0 0
BITMAP
FFFFFFFFFFFFFFFFFE0000
FFFFFFFFFFFFFFFFFF0000
FFFFFFFFFFFFFFFFFF8000
FFFFFFFFFFFFFFFFFFC000
FFFFFFFFFFFFFFFFFFE000
FFFFFFFFFFFFFFFFFFF000
FFFFFFFFFFFFFFFFFFF800
FFFFFFFFFFFFFFFFFFFC00
FFFFFFFFFFFFFFFFFFFE00
FFFFFFFFFFFFFFFFFFFF00
FFFFFFFFFFFFFFFFFFFF80
FFFFFFFFFFFFFFFFFFFFC0
FFFFFFFFFFFFFFFFFFFFE0
FFFFFFFFFFFFFFFFFFFFF0
FFFFFFFFFFFFFFFFFFFFF8
FFFFFFFFFFFFFFFFFFFFFC
FFFFFFFFFFFFFFFFFFFFFE
FFFFFFFFFFFFFFFFFFFFFF
FFFFFFFFFFFFFFFFFFFFFF
FFFFFFFFFFFFFFFFFFFFFF
FFFFFFFFFFFFFFFFFFFFFF
FFFFFFFFFFFFFFFFFFFFFF
FFFFFFFFFFFFFFFFFFFFFF
FFFFFFFFFFFFFFFFFFFFFF
FFFFFFFFFFFFFFFFFFFFFF
01FFFFFFFC0003FFFFFFFF
01FFFFFFFC0001FFFFFFFF
01FFFFFFFC0000FFFFFFFF
01FFFFFFFC0000FFFFFFFF
01FFFFFFFC00007FFFFFFF
01FFFFFFFC00007FFFFFFF
01FFFFFFFC00007FFFFFFF
01FFFFFFFC00007FFFFFFF
01FFFFFFFC00007FFFFFFF
01FFFFFFFC00007FFFFFFF
01FFFFFFFC00007FFFFFFF
01FFFFFFFC00007FFFFFFF
01FFFFFFFC00007FFFFFFF
01FFFFFFFC00007FFFFFFF
01FFFFFFFC0000FFFFFFFF
01FFFFFFFC0001FFFFFFFF
01FFFFFFFC0003FFFFFFFF
01FFFFFFFFFFFFFFFFFFFF
01FFFFFFFFFFFFFFFFFFFF
01FFFFFFFFFFFFFFFFFFFF
01FFFFFFFFFFFFFFFFFFFF
01FFFFFFFFFFFFFFFFFFFF
01FFFFFFFFFFFFFFFFFFFF
01FFFFFFFFFFFFFFFFFFFE
01FFFFFFFFFFFFFFFFFFFC
01FFFFFFFFFFFFFFFFFFF8
01FFFFFFFFFFFFFFFFFFF0
01FFFFFFFFFFFFFFFFFFE0
01FFFFFFFFFFFFFFFFFFC0
01FFFFFFFFFFFFFFFFFF80
01FFFFFFFFFFFFFFFFFFC0
01FFFFFFFFFFFFFFFFFFE0
01FFFFFFFFFFFFFFFFFFF0
01FFFFFFFFFFFFFFFFFFF8
01FFFFFFFFFFFFFFFFFFFC
01FFFFFFFFFFFFFFFFFFFE
01FFFFFFFFFFFFFFFFFFFF
01FFFFFFFFFFFFFFFFFFFF
01FFFFFFFFFFFFFFFFFFFF
01FFFFFFFFFFFFFFFFFFFF
01FFFFFFFFFFFFFFFFFFFF
01FFFFFFFFFFFFFFFFFFFF
01FFFFFFFC0003FFFFFFFF
01FFFFFFFC0001FFFFFFFF
01FFFFFFFC0000FFFFFFFF
01FFFFFFFC00007FFFFFFF
01FFFFFFFC00007FFFFFFF
01FFFFFFFC00007FFFFFFF
01FFFFFFFC00007FFFFFFF
01FFFFFFFC00007FFFFFFF
01FFFFFFFC00007FFFFFFF
01FFFFFFFC00007FFFFFFF
01FFFFFFFC00007FFFFFFF
01FFFFFFFC00007FFFFFFF
01FFFFFFFC00007FFFFFFF
01FFFFFFFC00007FFFFFFF
01FFFFFFFC00007FFFFFFF
01FFFFFFFC00007FFFFFFF
01FFFFFFFC00007FFFFFFF
01FFFFFFFC00007FFFFFFF
01FFFFFFFC0000FFFFFFFF
01FFFFFFFC0001FFFFFFFF
01FFFFFFFC0003FFFFFFFF
FFFFFFFFFFFFFFFFFFFFFF
FFFFFFFFFFFFFFFFFFFFFF
FFFFFFFFFFFFFFFFFFFFFF
FFFFFFFFFFFFFFFFFFFFFF
FFFFFFFFFFFFFFFFFFFFFF
FFFFFFFFFFFFFFFFFFFFFF
FFFFFFFFFFFFFFFFFFFFFF
FFFFFFFFFFFFFFFFFFFFFF
FFFFFFFFFFFFFFFFFFFFFE
FFFFFFFFFFFFFFFFFFFFFC
FFFFFFFFFFFFFFFFFFFFF8
FFFFFFFFFFFFFFFFFFFFF0
FFFFFFFFFFFFFFFFFFFFE0
FFFFFFFFFFFFFFFFFFFFC0
FFFFFFFFFFFFFFFFFFFF80
FFFFFFFFFFFFFFFFFFFF00
FFFFFFFFFFFFFFFFFFFE00
FFFFFFFFFFFFFFFFFFFC00
FFFFFFFFFFFFFFFFFFF800
FFFFFFFFFFFFFFFFFFF000
FFFFFFFFFFFFFFFFFFE000
FFFFFFFFFFFFFFFFFFC000
FFFFFFFFFFFFFFFFFF8000
FFFFFFFFFFFFFFFFFF0000
FFFFFFFFFFFFFFFFFE0000
ENDCHAR
ENDFONT
